<?xml version="1.0" encoding="UTF-8"?>
<svg id="Layer_1" xmlns="http://www.w3.org/2000/svg" version="1.1" viewBox="0 0 1000 1000">
  <!-- Generator: Adobe Illustrator 29.0.1, SVG Export Plug-In . SVG Version: 2.1.0 Build 192)  -->
  <defs>
    <style>
      .st0, .st1 {
        fill-rule: evenodd;
      }

      .st0, .st2 {
        fill: #da0008;
      }
    </style>
  </defs>
  <path class="st2" d="M221.4,160.2c-.4-.4-.3-.9.1-.9s.8.4.7.8c-.1.4-.5.4-.8,0M226.1,163.8c-.1-.1-.5-.3-.9-.5-.9-.3-.9-.5-.6-1.5.4-.9.8-1.1,1.4-.7.4.2.6.2.8,0,.3-.2.4-.1.8.3.6.7.6,1.8,0,1.2-.2-.2-.3-.1-.3.2,0,.7-.8,1.2-1.3.8h0ZM226.1,165.2c-.2-.5.2-1.1.6-.9.4.1.4.7,0,1.1-.3.3-.5.3-.7-.1h0ZM673.4,139.9c0-.4,0-.8.1-.9,0-.2,0-.3,0-.3-.2,0-.8,1.7-.7,1.8.3.3.6,0,.6-.6h0ZM672.7,154.7c0-.1,0-.2-.2-.2s-.2,0-.2.2,0,.2.2.2.2,0,.2-.2ZM267.2,178.3c0-.1-.1-.4-.3-.5-.2-.2-.3-.2-.3.1s0,.4.1.5c.2.2.4.1.4-.1h0ZM283.4,182c-.5-.2-.7-.2-.7,0s.2.2.5.2c.5,0,.5,0,.1-.2h0ZM285.7,182.6c0,0-.2,0-.4,0-.1,0-.1.1.1.1s.3,0,.2-.1ZM281.1,184.7c0-.2,0-.3-.2-.2-.2,0-.4.1-.6.1s-.3,0-.3.2c0,.3.9.2,1-.1h0ZM700.1,193.5c0-.2,0-.2-.2-.2-.1,0-.2.2,0,.3.2.3.3.2.3-.1h0ZM694.6,210.2c1.3-.7,1.9-1.2,2.1-1.8,0-.2,1.8-3.8,3.8-8,3.3-6.7,3.7-7.7,3.8-8.7,0-1.2-.2-1.6-.6-1-.4.5-3,5-5.3,9.2-1.1,2.1-2.9,5.2-3.9,7-1,1.8-1.8,3.4-1.8,3.6.2.4.7.3,1.9-.3h0ZM652.5,209c-1.5-2.6-1.9-3.4-1.9-4,0-.3,0-.6-.3-.6-.5-.1-1-1-3-4.8-2.1-3.8-4.4-8-5-8.8-.3-.5-.4-.5-.5-.2,0,.2-.2.6-.3.9-.1.4-.1.7,0,1.2.3.8,1.5,3.3,2.3,4.9.3.6.6,1.3.6,1.6s.4,1.1.8,1.7c.4.6,1.6,2.8,2.6,4.7,1.9,3.8,2.5,4.5,3.5,4.5s.9.2,1.2.4.7.3.8.3c0,0-.4-.9-1-1.9ZM714.9,217.2c0-.3-.5-.5-.6-.4s0,.6.3.6.4-.1.4-.3h0ZM634.7,219c.2-.5,0-1-.5-1s-.4.1-.5.3c-.2.5,0,1,.5,1s.4-.2.5-.4ZM654.8,221.8c-.4-.3-.6-.2-.4,0,0,.1.3.2.4.2.3,0,.3,0,0-.3h0ZM638.1,223.1c.2-.2.2-.4.2-.5-.2-.2-1.7-.9-1.8-.8-.3.2-.1.6.4,1.1.7.6.8.6,1.2.2h0ZM632.7,223.4c0-.4-.5-.5-.7-.2-.2.2.3.8.5.6,0,0,.2-.3.2-.5ZM702.5,225.8c0-.2,0-.3-.3-.3-.4,0-.7.3-.5.6.2.3.7.1.8-.2ZM694.9,233.6c.6-.4.1-.8-.5-.5-.5.2-.6.4-.4.6.2.2.5.1.9-.1h0ZM639.9,236.7c.3-.1.4-.4.4-.9,0-.8-.2-1-.7-.9-.3,0-1,1-1,1.3s.6.7.8.7.4,0,.5-.2h0ZM682.2,244c.2-.2-.4-.5-.8-.3-.4.1-.2.5.3.5s.4,0,.5-.2h0ZM637,242.9c-.3-.9-.5-1.5-.6-1.4,0,0,.1.8.4,1.6.3.9.5,1.5.6,1.4,0,0-.1-.8-.4-1.6ZM520.5,244.1c0,0-.2,0-.2.2,0,.3,0,.3.1.1.1-.1.2-.3.1-.3h0ZM664.1,244.7c.1-.1.2-.3.2-.4,0-.2-1.2-.4-1.7-.3-.4.1-.5.6-.2.7.5.2,1.4.1,1.6-.1h0ZM659.4,246.1c0-.6-.3-.8-.8-.5-.4.2-.4.9,0,1.1.5.3.8,0,.8-.6h0ZM678.4,247.6c0-.2-.2-.3-.4-.3-.4,0-.6.3-.3.6.2.2.7,0,.7-.3h0ZM682.7,248.2c0-.4-.5-.5-.7,0-.1.3.3.7.5.5,0,0,.2-.3.2-.5h0ZM663.6,250.2c.1-.3,0-.5-.5-.5s-.3.1-.3.4c0,.4.7.5.8.1h0ZM670.9,251.1c.3-.2,0-.8-.2-.8s-.5.3-.4.7c.1.3.3.3.6.1h0ZM664.8,254.1c.2-.3-.3-.8-.5-.6-.2.2,0,.8.2.8s.2,0,.3-.2h0ZM548.8,253.3c0-1.1-.2-1.1-.6-.2-.3.6-.3.7,0,1,.4.5.7.2.7-.7ZM686.4,254.5c0-.1-.2-.3-.3-.4-.2,0-.3,0-.3.4s0,.4.3.4c.2,0,.3-.2.3-.4ZM645.2,255.9c.1-.3-.5-.5-.7-.3-.1.1-.1.3,0,.4.2.3.7.2.8-.1h0ZM688.2,259.5c0-.2-.1-.4-.3-.4s-.3.2-.3.4.1.4.3.4.3-.2.3-.4ZM673.4,214.6c.3-.5,0-1.3-.4-1.5-.6-.3-1.5-.2-2,.3-.7.6-.4,1.2.7,1.2s.9.1,1,.2c.3.3.5.3.7-.1h0ZM678.1,214.6c-.2-1-.4-1.3-.7-.9-.3.4-.2,1.1.1,1.4.5.5.7.4.6-.5h0ZM678.5,217c.1-.4-.3-.9-.7-.9s-.7.6-.2.9c.5.3.8.3,1,0ZM669.8,216.6c0-.5-.2-.7-.7-.4-.4.2-.5.9-.3,1.2.2.2.9-.3,1-.7h0ZM676.5,218.7c0-.5-.6-.9-.9-.6-.2.2-.2.3,0,.6.3.5.9.4.9,0ZM672.7,221.6c.1-.3,0-.9-.3-.9s-.4.5-.3.9c0,.2.2.3.3.3s.2-.1.3-.3ZM669.7,224.5c.1-.4,0-.7-.4-.7s-.7.4-.3.7c.4.3.6.3.7,0ZM678.2,227.3c.5-.2.4-1.2-.2-1.5-.9-.6-1.4.5-.7,1.3.4.4.4.4.8.3h0ZM672.1,227c0-.2,0-.4-.2-.4s-.2.2-.2.4,0,.4.2.4.2-.2.2-.4ZM666.3,228.3c.2-.4-.1-.9-1-1.3-.5-.2-.9-.4-1-.3-.6.4.5,1.8,1.4,1.8s.6,0,.6-.2ZM669.2,228.4c0-.3-.6-.5-.9-.2-.1.1-.1.3,0,.4.2.3,1,.2,1-.2h0ZM667.8,230.5c.4-.1.4-1.1,0-1.4-.4-.3-1,0-1,.4s.1.6.3.8c.4.4.3.4.7.2h0ZM674.2,231.3c0-.3-.3-.7-.6-.7s-.4.1-.4.4,0,.5.1.6c.1.1.8-.2.8-.3h0ZM677.7,232.1c0-.4-.6-.6-.9-.3s0,.8.5.8c.3,0,.4-.2.4-.4h0ZM680.8,232.1c0-.1-.3-.1-.5,0-.2.1-.3.2,0,.5.2.4.2.4.5,0,.2-.2.2-.4,0-.5ZM666.2,233.9c0-.2,0-.4-.3-.7-.5-.4-1-.3-.8.3.2.7.9,1,1.1.4ZM668.6,234.8c.9-.3.5-1-.5-.9q-.7,0-.8.4c-.2.6.3.8,1.3.5h0ZM677.1,234.9c0-.5-.5-.5-.6,0,0,.4,0,.4.3.4.2,0,.3-.2.3-.4h0ZM669.1,237.1c0-.2,0-.4-.2-.4s-.2.2-.2.4,0,.4.2.4.2-.2.2-.4ZM674.5,238.3c.2-.3,0-.9-.5-1.1-.5-.3-1.1,0-1.1.4,0,.6,1.3,1.3,1.6.8h0ZM671.1,240.3c-1-1-2-2-2.4-2.4-1.3-1.1-4.5-4.2-4.5-4.4s.2-.3.3-.4c.5-.3.7-1.2.3-1.9-.4-.8-.8-.9-1.7-.2-1.6,1.3-1.8.2-.5-3.8.4-1.4.9-3,1-3.5.1-.5.4-1.4.7-2,.2-.6.7-2.1,1-3.3.6-2.2.8-3.1,1.5-5.3.2-.6.4-1.3.5-1.7.2-.8.6-1.1,1.1-.7.6.5,1,.6,1.4.2.2-.2.3-.4.3-.6,0-.4-.6-.8-1.3-.9-.6,0-.7-.1-.6-.5,0-.3.2-.6.4-.8.3-.3.4-.3.9-.1.7.3,1.2.1,1.2-.4s-.6-1.1-1-1c-.7.3-.8-.6-.2-2.3.1-.4.5-1.5.8-2.5.3-.9.7-2.1.9-2.7.4-.9.6-1.7,1.2-4.4.1-.6.4-.5.7.4.2.4.9,2.2,1.6,4,.8,1.9,1.3,3.4,1.3,3.8s.1.8.4,1c.2.2.6.9.8,1.6.4,1,.6,1.7.9,3.7,0,.2.2.5.4.8.2.3.5,1.3.8,2.3.3,1,.6,2.2.8,2.5s.3,1,.3,1.4.1,1,.4,1.3c.4.5,2.3,6.3,2.3,6.9s.3,1.2.6,2.2c.3,1.1.7,2.4.9,2.9l.2,1-5.8,5.9c-3.2,3.2-5.9,5.9-6,5.9s-.9-.8-1.9-1.8h0ZM641.1,260c0-.1-.2-1.5-.6-3-.5-2-.7-3-.6-3.6,0-.7,0-.9-.2-1.1-.4-.4-.8-1.1-.9-2-.2-1-1.6-3.8-3.3-6.6-1.9-2.9-2.3-4-3.2-7.5-.4-1.6-1.1-3.9-1.5-5.1-1-2.7-1.2-3.4-.9-4.2.2-.6.2-.7-.4-1.2-.5-.4-.6-.6-.6-1.1,0-.3-.1-1-.3-1.4-.5-1.3-1.5-7.3-1.3-7.7.1-.2,0-.5-.3-.9-.2-.4-.5-.9-.5-1.2,0-.3,0-.9,0-1.4-.2-2-.1-2.1.3-2.5.3-.3.3-.5.2-.7,0-.2-.2-1.2-.2-2.3,0-2.8,0-2.8,3,.2,1.2,1.3,2.6,2.5,2.9,2.8s1.7,1.5,2.9,2.7c1.2,1.2,2.4,2.3,2.6,2.4.2.1.4.3.4.5s.4.6.9.9c.5.4,1.5,1.2,2.1,1.8,1.3,1.1,14.9,14,18.3,17.3,1,1,2.4,2.3,3.1,2.9.7.6,1.3,1.4,1.5,1.7.2.3.7.8,1.1,1.1,1.1.7,5.1,4.4,5.1,4.8,0,.2,0,.5-.2.6-.3.3-.2.3.4.1.4-.1.5,0,.9.3.2.2.5.5.7.5.4,0,1.2-.6,3.6-2.8,3.1-2.8,4-3.5,4.5-3.5s.4-.1.4-.4,0-.5.1-.7c.1-.4,6.7-6.6,9.2-8.8,1-.8,3.2-2.5,4.9-3.7,1.8-1.2,3.7-2.7,4.4-3.2s1.5-1.1,1.8-1.3c.4-.2.7-.5.7-.7,0-.5.7-1.7,1.4-2.3.3-.3.8-.9,1-1.3.2-.4,1-1.3,1.9-2.1.8-.8,2.5-2.4,3.8-3.6,1.3-1.2,2.8-2.6,3.5-3.2,1.2-1,1.2-1,2.5-1s2.3-.4,3.1-1.9c.3-.6.8-1.3,1-1.5.2-.2.4-.6.4-.9,0-.4,1.2-2.6,2.7-4.8.4-.7.5-.9.3-1-.1,0-.3-.2-.5-.2s-.6-.3-1-.7l-.8-.7-1,1.1c-.5.6-1.3,1.2-1.7,1.4-.4.2-1.3,1-1.9,1.8-1.2,1.4-5.5,5.6-7.5,7.3-.6.5-1.4,1.2-1.7,1.6-.3.4-.9.7-1.2.8-.5,0-.6.3-.8.8-.1.4-.6,1-1,1.5-1.7,1.7-15.9,15.1-16.2,15.3-.3.1-.5.1-.6,0-.3-.3-.9-2.1-1.3-4-.2-.8-.5-1.8-.7-2.2-.3-.6-.4-1.1-.4-2.1s0-1.4-.3-1.6c-.2-.1-.5-.7-.7-1.3-.5-1.4-4.1-13-4.2-13.7,0-.3-.5-1.7-1-3.1s-1-3.1-1.1-3.7c-.2-.6-.7-2.4-1.2-4-1.2-3.6-1.3-4-.8-4.3.2-.1.3-.2.3-.3,0,0-.3-.2-.6-.4-.4-.2-.6-.6-.7-1.4-.2-1.3-1.2-2.7-1.4-2.1,0,.2,0,.6.1.8.3.6.2.7-.9.8-.8,0-.9,0-1.3.8-.2.4-1.3,3.6-2.3,7.1-2.2,7.1-5,16.1-5.5,17.7-.2.6-.5,1.1-.7,1.2-.2,0-.2.2,0,.5.2.4,0,.9-.9,3.9-.6,1.8-.9,2.2-1.6,2.2h-.5l.5.2c.4.1.5.3.5.6,0,.7-1.3,4.3-1.7,4.8-.3.3-.4.7-.4,1.6s-.4,2.4-.9,2.5c-.3,0-2-1.6-3.3-3.1-.5-.7-1-1.2-1.2-1.2-.3,0-2-1.5-7.6-6.9-5.7-5.4-16.5-15.6-18.9-17.9-.8-.8-1.8-1.5-2.2-1.7-.7-.3-.7-.3-1.3,0-.6.3-.7.4-.5.9,0,.3.2,1.2.2,1.9,0,.7.2,1.3.3,1.4.3.4,1.2,6.4,1,7.6,0,.7,0,1.3.2,1.6.3.7.8,4.2.8,5.8s.1,1.6.3,2c.2.4.4,1.5.5,2.5.4,3.4,2.5,13.3,4.4,21.5.6,2.4,1.1,4.7,1.2,5.2,0,.5.2,1,.3,1.1,0,.1.5,1.1.8,2.1.4,1.1,1,2.4,1.4,3.1.4.6.7,1.4.7,1.7,0,.3,0,.5,0,.3.2-.5.6-.2,2,1,1.3,1.1,3.3,2.4,3.9,2.4s.3-.1.3-.3h0ZM682.8,260.1c.1-.3-.5-.5-.8-.3s-.1.3,0,.4c.2.3.7.2.8-.1ZM707.5,260.2c.3-.2,1-.6,1.7-.9.8-.4,1.3-.8,1.7-1.4.3-.4.7-.9.8-1,.4-.2.4-1.5,0-3.3-.2-.9-.2-1.5,0-2.3.1-.6.4-2.1.6-3.2s.5-2.5.7-2.9c.2-.5.2-.9.2-.9-.2-.2.4-2.3.9-3.4.3-.6.9-1.8,1.3-2.6.7-1.1.9-1.9,1.2-3.4.2-1.1.4-2.3.4-2.8,0-1.5.4-3.3,1-4.5.7-1.5,1.2-3.5,1-4.4,0-.4-.3-1-.5-1.4-.2-.4-.5-1.2-.7-1.7s-.4-1.1-.4-1.2-.1-.5-.3-.7c-.2-.3-.3-.3-.6,0-.3.3-1.2,2.1-1.2,2.5,0,.6-1.9,5.3-3.8,9.3-.2.4-.4,1-.4,1.2,0,.3-.3.6-1.1,1.1,0,0,0,.5.2,1.2.2,1,.6,4.4.6,6s-.1.7-.2.8c-.2.1-.1.3.2.8.4.5.5.9.5,2.7,0,2.5,0,3.1-1.9,6.8-3,5.9-3.1,6.3-3.3,8.1-.1,1.6-.1,1.6.3,2,.5.4.5.4,1.1,0h0ZM674.3,263.4c.9-1.3.3-2.4-1-1.6-.2.2-.6.3-.7.3-.3,0-.5.4-.5,1.1s.2.9.8,1c.6.1.8,0,1.4-.9h0ZM641.9,266.9c0-.2-.2-.3-.3-.3s-.3.1-.3.3c0,.2,0,.3.3.3s.4-.1.3-.3ZM677.1,268.4c.3-.2.8-.3,1.6-.3,2,0,9.8-.5,12.5-.9,1.4-.2,3-.4,3.6-.6.6-.2,1.3-.3,1.7-.3.3,0,.9-.1,1.2-.3,1.2-.6,1.2-.8-.4-5.9-2.2-7-2.6-8.4-2.6-8.9,0-.2-.1-.8-.3-1.2-.4-.8-1.3-3.4-3.2-9.7-.7-2.3-1.3-4.3-1.4-4.4-.1-.2-.6.3-1.6,1.4l-.7.9.7,2.2c.4,1.2.7,2.6.7,2.9s0,.8.3.8c.2,0,.5.9.8,1.8.3.9.7,2.2.9,2.9.3.9.3,1.3.2,1.6-.2.3-.2.4.2.7.4.3,1,1.7.9,1.9,0,.1,0,.4.2.7.2.3.8,2,1.3,3.7.6,1.7,1.2,3.4,1.3,3.6.3.5.3.5-.4,1.4-.8,1-1.5,1.3-1.9.8-.1-.2-.2-.5-.2-.6,0-.4-.3-.3-1,.5-.4.4-1,.9-1.4,1-.9.2-4.8.2-5.4,0-.3-.1-.6-.1-1,.1-1.3.6-2.7.8-10.3.7-6,0-7.9,0-9.7-.3-1.4-.2-2.2-.4-2.4-.6-.1-.2-.3-.2-.5-.2-.1,0-1.9,0-3.9,0-3.8-.2-4.5-.3-4.7-1.1,0-.2-.2-.5-.3-.6-.3-.5-.2-1.2.5-3.4,1.1-3.7,1.3-4.2,1.7-4.6.3-.3.4-.7.4-1.2,0-1.2.4-2.9.8-3.8.2-.5.5-1.4.7-2s.7-2.8,1.4-4.9l1.1-3.8-.4-.5c-.2-.3-.7-.9-1.1-1.2l-.8-.7-.9,2.7c-3.9,12.5-7.4,24.5-7.5,25.9,0,.8,0,.9.8,1.3,1,.5,1.9.7,12.5,1.8,3.8.4,7.4.6,10.5.7,3.1,0,4.8.2,4.9.3,0,.1.2.4.2.7v.5s.1-.5.1-.5c0-.3.3-.6.5-.8h0ZM696.4,269.9c0-.3,0-.5-.2-.7-.3-.3-.3-.3-.6,0-.4.4-.2,1.1.3,1.1s.4-.2.5-.4ZM694.5,270.8c.1-.3,0-.5-.5-.5s-.5.4-.2.6c.2.2.6.1.7-.1h0ZM689.5,275.2c.2-.4-.9-1.5-1.3-1.4-.5,0-.5,1,0,1.1.2,0,.5.2.5.3.2.4.7.3.8,0h0ZM643.3,276.2c0-.2,0-.3-.3-.3-.4,0-.7.3-.5.6.2.3.7.1.8-.2ZM646,276.9c.4-.4.5-1,.2-1s-1.1.6-1.1,1,.4.5,1,0ZM680.2,276.8c0-.5-.5-.5-.7,0-.1.3.3.7.5.5,0,0,.2-.3.2-.5h0ZM675.8,278.8c0-.5-.4-.7-.9-.4-.3.2-.3.3-.2.6.3.5,1,.4,1.1-.1h0ZM632.8,278.9c.1-.5-.3-.7-.7-.4-.2.1-.1.3,0,.5.3.4.5.4.6-.1h0ZM668.1,279c0-.6-.4-.9-.8-.5-.4.4-.2,1.1.4,1.1.3,0,.4-.2.5-.6ZM680.8,279.7c.3-.2.1-.8-.3-.8s-.3.2-.3.5c0,.5.1.6.5.3ZM661.1,279.3c0-.3,0-.4-.2-.4-.4,0-.6.3-.4.7.2.4.6.2.7-.3h0ZM685.1,280.6c0-.2,0-.4-.3-.4-.5-.1-1.1.3-.9.6.2.3,1.1.2,1.2-.2h0ZM650.1,281.3c.3-.1.7-.3.8-.4.5-.2.4-.7-.3-1.1-.8-.5-.8-.5-1.5.2l-.6.6.5.5c.5.6.5.6,1.1.2h0ZM706.8,282c.1-.2.1-.4,0-.5-.4-.2-.7,0-.6.5.1.5.4.5.6,0ZM682.8,281.6c-.1-.2-.6-.2-.8,0,0,.1,0,.3.1.5.2.3.3.3.5,0,.1-.2.2-.4.1-.5h0ZM724,284.5c.2-.5,0-.6-.6-.6s-.8-.1-1-.3c-.9-.6-1.2.2-.3.9.7.5,1.7.5,1.9,0h0ZM590,284.3c0-.4,0-.4-.5-.4s-.9.3-.6.7c.3.4,1,.3,1.1-.3ZM661.3,285.2c.2,0,.3-.1.3-.4,0-.5,0-.5-.8,0-.5.2-.6.4-.4.5.1.1.3.1.4,0,0-.1.3-.2.5-.2h0ZM674.1,285.8c.2-.3-.5-.8-.7-.6s0,.8.3.8.3-.1.4-.2ZM649.4,286.3c0-.1,0-.3-.2-.4-.3-.2-.6.2-.5.5.2.3.7.2.7,0ZM601.2,289.5c.2-.4-.2-.8-.5-.5-.2.2,0,.8.2.8s.2-.1.3-.3h0ZM617.3,289.7c.3-.4,1.1-1.7,1.8-2.9,1.4-2.4,4-6.5,4.8-7.4.3-.3.5-.8.6-1.1,0-.3.3-.6.4-.7.2-.1,0-.3-1.2-.7-1.3-.5-14.7-4.2-29.4-8.3-3.1-.9-5.7-1.6-5.9-1.7-.2-.1-.3-.4-.3-.6,0-.4,0-.4-.3,0-.2.2-.5.3-.8.3-.6,0-2.9-.9-3.3-1.3-.2-.2-.6-.5-.8-.6s-.5-.4-.5-.6c-.2-.5-.7-.5-1.2,0-.2.3-.5.5-.7.5-.5,0-10.1-2.7-10.8-3.1-.5-.2-1.3-.4-1.8-.5-.5,0-1.2-.2-1.4-.4-.2-.1-.8-.3-1.2-.4-1.7-.3-16.3-4.5-16.7-4.8-.2-.2-.5-.3-.8-.2-.5.1-7-1.7-7.9-2.2-.3-.1-.8-.3-1.2-.3-1,0-17.5-4.8-18.2-5.2-.4-.2-.6-.5-.5-.8,0-.4,0-.5-.5-.4-.3,0-.7.2-.9.4-.5.4-.5.4-8.1-1.8-3.5-1-9.3-2.6-12.9-3.6-7.4-2.1-9.4-2.7-9.7-3.1-.1-.1-.5-.3-.9-.3s-1.7-.3-3-.6c-3-.7-28.6-7.9-30.9-8.6-1-.3-2.8-.8-4.1-1.1-3.4-.8-18.9-5.1-19.3-5.3-.2-.1-1.5-.5-2.9-.8-3.3-.8-14.5-3.9-21-5.7-5-1.4-6.9-2.1-7.7-2.6-.3-.2-.7-.3-1.4-.2-.8,0-1.3,0-2.4-.4-.8-.3-2.2-.7-3.1-.9-1.8-.4-5.2-1.4-6-1.8-.3-.1-1.1-.4-1.9-.5-.8-.1-3.4-.8-5.9-1.5-2.5-.7-5.4-1.5-6.6-1.8-1.2-.3-2.4-.7-2.6-.9-.3-.2-.7-.3-1-.3-.5,0-10.5-2.7-12.8-3.5-.7-.3-1.8-.5-2.5-.6-2-.3-2.9-.9-2.1-1.5.3-.2.3-.3,0-.3s-.5.2-.6.4-.5.4-.7.4c-.4,0-14.6-3.9-17.8-5-1-.3-2.7-.8-3.6-1-2.3-.5-6.3-1.6-6.7-1.9-.2-.1-.4-.3-.5-.5-.2-.2-.3-.2-.7,0-.4.2-.8.1-2.1-.3-1.9-.6-2.2-.8-2-1.2,0-.2,0-.3-.4-.3s-.8-.2-1.2-.4c-1.4-.7-2-.9-2.6-.8-.3,0-.6.2-.6.2,0,.3-.6.4-1.1.1-.3-.1-2.3-.7-4.5-1.2-2.2-.5-4.8-1.2-5.7-1.6-.9-.3-2.3-.7-3.1-.8-1.6-.3-3.1-.8-4.1-1.3-.4-.2-1-.4-1.3-.4-.9,0-2.5-.5-2.8-.9-.2-.2-1-.2-1.3,0-.1.1.4.4.9.4s.7.2,1.1.4c.4.2.9.4,1,.4.1,0,.8.2,1.4.6.6.3,1.6.7,2.1,1,.5.2,1.2.7,1.5,1.1.6.7,1.1.8,2,.6.6-.2,1.9.4,2.9,1.3.5.4.8.5,1.3.5.4,0,.9,0,1.2.3.2.2.7.3.9.3.6,0,2.1.7,2.7,1.4.4.4.7.5,1.3.5s1.2.2,2.1.7c.7.4,1.5.7,1.7.7s.9.3,1.4.6c.6.3,1.3.6,1.6.6s.6,0,.7.2.3.3.6.4.5.4.6.6c.2.6.5.7,1.8.7s1.2.1,1.5.3.6.3.9.3,1.2.4,2.2,1,2,1,2.3,1,.6.1.8.3c.2.1.6.3.8.3.5,0,3.5,1.5,3.6,1.8,0,0,.4.2.7.2.5,0,.7.1.9.5.2.5.4.5,1.5.6.9,0,1.6.3,2.7.8.8.4,1.5.8,1.6.9,0,.1.3.2.5.2s.5.1.6.3c.1.2.5.3.8.3s.8.1,1,.3c.2.2.6.3.9.4.6,0,2.3.8,2.4,1.1,0,.1.4.2.6.2s.9.2,1.4.5c1.9,1,2.8,1.4,3.2,1.4s.6.1.7.3c.1.2.5.3.8.3s.8.1,1,.3c.2.2.5.3.6.3.1,0,.7.3,1.4.7.6.4,1.4.7,1.6.7s.8.3,1.1.6c.4.4.9.6,1.2.6s.7.1.8.3c.1.2.5.3.9.3s.9.2,1.1.4c.3.2.6.4.9.4.7,0,2.3.9,3.1,1.7.7.7.8.8,1.8.8s2.9.7,3.2,1.2c0,.1.4.2.8.2s.7,0,.8.2c0,.1.4.2.7.3.3,0,.7.2.8.4s.5.3.8.3.8.1,1,.3c.2.1.6.3.8.3.5,0,1.9.7,2.7,1.4.5.4.8.5,1.4.5s1,.1,1.2.3c.2.2.7.3,1,.4s.8.2,1.1.4c.3.2.9.4,1.3.6,1.1.5,1.4.8,1.3,1.2,0,.3,0,.4.9.4s1.2.1,1.4.3c.2.2.6.3.9.3s.7.1.9.3c.2.1.6.3,1,.3s.7.1.8.3c.1.2.5.3.8.3s1,.3,1.7.7,1.4.7,1.7.7.6,0,.7.2c0,.1,2.8,1.5,3,1.5s.6.3,1.2.7c.8.5,1.4.7,2,.7s1,.1,1.2.3.5.3.6.3c.1,0,.5.2.8.4.3.2.6.4.8.3.1,0,1.3.5,2.6,1.1,1.3.7,2.6,1.2,2.9,1.2s.7.2,1,.4c.3.2.7.4.9.4s.7.1.9.3.7.3.9.3,1.5.6,2.8,1.2c1.3.7,2.6,1.2,2.8,1.2s.6.1.8.3c.2.2.6.3.9.3.5,0,1.5.4,3.3,1.5.2.1.5.3.8.4.3.1.6.3.8.4s.6.2.9.2.6.1.8.3c.1.2.5.3.9.3s.8.1.9.3c.1.2.4.3.5.3s.4.2.7.4c.3.2.7.4.9.4s1,.3,1.7.7c.7.4,1.4.7,1.6.7s.9.2,1.5.6c.6.3,1.4.6,1.6.6s.9.3,1.4.6c.5.3,1.1.6,1.2.7.1,0,.5.2.8.4.3.1.8.3,1.1.3s.6.1.7.3c0,.2.4.3.7.3.5,0,1.1.2,2.1.8.2,0,.5.3.8.4.3.1.5.3.5.5,0,.4.7.7,1.3.5.4-.2.5-.1.9,0,.2.2.6.3.8.3s1.5.6,2.8,1.2c1.7.9,2.7,1.2,3.4,1.3.5,0,1.1.2,1.3.4.2.2.5.3.6.3s.4.1.5.3c.2.2.5.3.8.3s1,.3,1.6.6c.6.3,1.2.6,1.4.6s.9.3,1.6.7,1.4.7,1.6.7.8.3,1.4.6c.6.3,1.2.6,1.3.6s.3.1.5.3c.2.2.6.3.9.3s.8.2,1,.4c.3.2.8.4,1,.4s.7.1.9.3c.2.1.5.3.7.3.2,0,.4.1.4.3,0,.2.2.3.4.3s.5.1.7.3c.2.1.6.3.9.3s.7.2,1,.4.8.4,1,.4.9.3,1.5.6c.6.3,1.2.6,1.4.6s.9.3,1.6.7c.7.4,1.5.7,1.7.7s.9.3,1.5.6,1.3.6,1.6.6.6,0,.7.2c.4.4,3.2,1.7,3.5,1.7s.9.3,1.6.7c.7.4,1.5.7,1.7.7s.7.1.9.3c.2.1.6.3.9.3s.6.1.8.3.4.3.5.3.5.1.7.3.5.3.8.3,1,.3,1.7.7c.7.4,1.5.7,1.7.7s.9.3,1.6.7c.7.4,1.4.7,1.7.7s.9.2,1.5.6c.6.3,1.2.6,1.4.6s.9.3,1.6.7c.7.4,1.5.7,1.8.7.4,0,.6.1.7.3,0,.2.2.3.4.3s.8.3,1.4.6,1.3.6,1.6.6.6,0,.6.2c.2.3,2.1,1.2,2.6,1.2s.6.1.8.3.5.3.8.3,1,.3,1.7.7c.7.4,1.5.7,1.7.7s.6.1.8.3c.2.1.5.3.7.3.2,0,.4.1.5.3s.5.3.8.3c.5,0,1.3.4,2.2,1,.2.2.7.3,1.1.3s.7.1.8.3.5.3.8.3,1,.3,1.6.6,1.3.6,1.5.6.9.3,1.6.7c.7.4,1.4.7,1.7.7s.6.1.8.3.6.3.9.3c.3,0,.8.2,1,.4.3.2.7.4,1,.4s.8.2,1.2.4,1,.4,1.4.4,2.8-.5,5.4-1.2c6.1-1.6,9.5-2.4,11.4-2.7.8-.1,2.5-.5,3.8-.8,3-.7,12.8-2.3,15.4-2.6,1.5-.2,2.3-.2,2.8,0,.7.2.8.1.8-.1.1-.4,1.6-.7,5-.8.9,0,1,0,1,.5v.5c0,0,.4-.6.4-.6.5-.8,1.1-.9,6-1.3,5-.4,15.9-.9,16.3-.8.2,0,.8,0,1.5-.1,1.8-.4,7,0,7.5.5.9.8.2,2.4-2.3,5.6-2.2,2.7-2.6,3.5-2.7,5.2-.1,1.6,0,1.8.8.8h0ZM674.7,291.2c0-.4-.3-.5-.7-.3-.2.1-.2.2,0,.5.3.4.7.3.7-.2h0ZM659.8,290.9c-.3-.3-.9.2-.6.5.2.2.3.2.5,0,.2-.2.2-.4,0-.5h0ZM576.7,293.4c.2-.2-.6-1-1-.9-.4,0-.5.9-.2,1.1.3.2.9,0,1.2-.2ZM711.7,293.5c-.1-.3-.3-.4-.6,0-.2.2-.2.3,0,.5.3.3.7,0,.6-.5ZM719.2,294c0-.3,0-.6-.2-.7-.3-.2-.8.1-.8.5s.1.7.6.7.3-.1.3-.6h0ZM621.7,294.3c0-.2,0-.3-.4-.3s-.7.3-.3.6c.2.2.7,0,.8-.3h0ZM670.3,295.4c0-.2-.2-.3-.2-.2s0,.2,0,.4c0,.2.2.3.2.2,0,0,0-.2,0-.4h0ZM725.4,296.2c0-.1-.2-.2-.4-.2-.3,0-.4,0-.4.2s.1.3.4.2c.2,0,.4-.1.4-.2ZM678.2,298c0-.6-.7-.8-1-.3-.2.2-.2.4,0,.6.4.5,1,.3,1-.3ZM654.8,300c.3-.3.3-.5-.1-.5s-.6.2-.5.5c.1.3.3.3.6,0h0ZM630.4,301.3c.4-.1.5-.2.5-.7,0-.4,0-.5.3-.6.2,0,.5-.5.8-.9s1.7-2.5,3.2-4.7c1.6-2.1,2.8-3.9,2.6-3.9-.3,0-1.4.9-3.4,2.9-.8.8-1.8,1.7-2.2,2-.4.3-.8,1-1.1,1.6-.2.6-.7,1.7-1.1,2.6-.7,1.6-.9,2.4-.4,2,.2-.1.5-.3.8-.4h0ZM608,301.6c.4-.3.4-1,0-1.4-.8-.7-2.8-1.5-5.8-2.3-.6-.2-1.3-.5-1.6-.8-.7-.6-1.4-.8-1.4-.4s-.8.5-4.9,0c-5.1-.6-9.4-.9-15.4-.9-3.3,0-4.9,0-5.2.2-.2.1-.8.2-1.2.2-1.8,0-11.1,1.1-11.1,1.3s2.5.2,5.5.2c6.7.2,12.6.4,18.3.8,7.5.5,11.8,1.1,17,2.4,1.7.4,3.2.8,3.5.8.8.1,2.1,0,2.4-.3h0ZM733.3,302.7c-.1-.1-.3-.2-.5-.1-.2.1-.3.2,0,.5.2.4.2.4.5.1.2-.2.2-.4,0-.5ZM684.5,308c0-.2-.2-.4-.5-.4-.5,0-.9.2-.7.6.2.5,1.2.3,1.2-.2h0ZM595.2,308.1c0-.4-.5-.7-.7-.4s0,.9.4.8c.2,0,.3-.2.4-.4h0ZM660.4,310.1c.7-.2,2.1-1,3.2-1.8,1.6-1.1,2-1.3,2.3-1.1.5.3.8,0,.8-1s1.1-3.1,2.2-3.6c.7-.3.8-.5.2-1-.4-.3-.4-.4-.2-1.7.1-.8.2-1.8.2-2.4s0-1.1.4-1.4c.5-.5.5-.8,0-.7-.4.1-.5,0-1.2-1.8-1-2.6-2.7-4.6-4.9-6.1-.6-.4-1.1-.8-1.2-.9,0-.1-.3-.2-.5-.2s-.6-.2-.8-.4c-.3-.3-.9-.4-1.2,0,0,0,.2.5.5,1s.7,1.4.9,2c.5,1.6.5,5.4.2,7.9-1.6,11.4-1.8,12.3-2.5,13.4-.3.4-.3.4.1.4s.9-.2,1.6-.5h0ZM653.4,310c-1-1.1-1.8-2.5-1.8-3.2,0-.4-.2-.9-.6-1.3-.4-.5-.5-.8-.5-1.4s-.1-1-.3-1.3c-.3-.6-.4-2.3,0-2.9.2-.4.2-.6-.2-1-.5-.6-.5-.7-.1-1.1.3-.3.3-.3,0-.8-.3-.4-.3-.6,0-1.6.5-2.5,1.6-5.3,2.6-6.5.3-.4.6-.9.8-1.3.1-.4.4-.9.7-1.3.8-1.1.5-1-4.1,1.5-.8.4-2.5,2.4-3.9,4.5-.5.8-1.1,1.6-1.2,1.8-.4.4-.5,6.4,0,8.2.7,3.2,2.8,6,5.5,7.4,1.7.9,2.6,1.2,3.4,1.3h.6l-.8-.8h0ZM687.7,312c.2-.3-.2-.6-.5-.5-.3.1-.4.3-.2.5.2.2.6.2.7,0ZM658.8,312.5c.1-.2-.2-.5-.5-.5s-.2,0-.3.2c-.3.2-.1.6.3.6s.4-.1.5-.2ZM544.2,312.5c-.1-.1-.5.1-.5.4s.1.1.3,0c.2-.1.2-.3.2-.3ZM721.6,313.6c0-.4-.3-.5-.6-.3-.4.2-.1.8.3.7.2,0,.3-.2.3-.4ZM667.3,313.8c.5-.5,0-1.4-.6-1.2-.5.2-.3,1.4.3,1.4s.2-.1.3-.2h0ZM629,313.7c.4-.4.3-.9-.1-1-.5-.1-1.3.5-1.2.9.1.5.8.5,1.3,0ZM661.2,316c.1-.3-.4-.6-.7-.4,0,0-.2.2-.2.4,0,.4.7.4.8,0h0ZM672.2,316.2c.2-.4-.2-.8-.5-.5-.2.2,0,.8.2.8s.2-.1.3-.3h0ZM628.5,315.9c0-.2-.6-.4-.8-.2-.3.3.2.8.6.6.1-.1.3-.3.3-.4ZM687.7,316.6c0-.3,0-.6-.1-.8-.2-.3-.3-.3-.6.1-.3.3-.3.5-.1.8.3.5.7.5.9-.1h0ZM656.2,317.3c0-.2,0-.4-.2-.5-.2-.1-.7.4-.5.6.2.3.7.2.7-.2h0ZM644.3,317.3c.5-.2.7-.4.7-.8s-.1-.4-.4-.4c-.5,0-1.5.8-1.5,1.2s.2.4,1.2,0h0ZM519.5,317.9c-.2-.2-.3-.3-.3-.4,0-.2.7-.7,1-.7.6,0,.8.6.3,1-.5.4-.6.4-1,0ZM521.2,318.7c.2-.2.2-.6.1-1.1-.1-.9,0-1.1,1.8-1.6.6-.2,1.3-.4,1.6-.6s1-.3,1.5-.4c1.4-.3,2.5-.6,2.9-.8.7-.4,3-1,3.3-.9.2,0,.7-.1,1.2-.4.5-.3,1.4-.6,2-.8.6-.2,1.2-.4,1.5-.5.8-.3,1.5-.2,1.7.2.1.3.2.3.4-.1.3-.8,1.6-1.3,5.9-2.6.8-.2,1.6-.5,1.9-.6.3,0,.9-.2,1.5-.4.6-.1,1.5-.4,2.2-.7s1.7-.6,2.3-.8c.6-.2,1.6-.5,2.2-.7,2.3-.8,2.8-1,3.8-1.2,2.9-.8,3.3-1,3.5-1.1,0,0-.5-.2-1.2-.4-.8-.1-2.1-.4-2.9-.7-.8-.2-2.9-.8-4.6-1.1-1.7-.4-3.2-.8-3.3-.9s-.4-.1-.6,0c-.7.2-8.3-1-9.2-1.4-.9-.4-2-.5-2.2-.2-.2.3-2.4.2-3.4,0-.6-.1-1-.4-1.2-.8-.3-.4-.6-.5-1-.5s-.7,0-.8.2c0,.1-.7.3-1.3.4-1.5.2-1.7,0-1.5-1.2.1-1.1.2-1.3.8-1.3s.5,0,.2-1.3c0-.4,0-.6.6-1.1.8-.8,2.9-1.9,4.1-2.2,1-.3,2-.9,1.8-1.1,0,0-1.2-.5-2.4-1l-2.2-.9h-18.1c-12.3.2-18.5.1-19.5,0-.9-.1-2.1-.1-3.3,0-1,0-11.4.2-23,.3-16.5.1-21.2,0-21.5-.1-.4-.2-.7-.2-1.7,0-1.6.4-3.4.3-4-.2-.4-.4-1.4-.3-1.6,0-.1.2-.9.2-1.2,0s-.4-.1-.7.1c-.6.4-2.8.5-3.2.1-.3-.2-1.6-.2-2.1,0-.2,0-3.7.2-7.9.2s-7.7,0-8.3-.3c-.7-.2-.8-.2-1.3,0-.5.3-1.7.4-17.1.5-20,.2-25.2.2-25.4-.2,0-.2-.2-.2-.5,0-.3.3-.7.4-2.1.4s-1.9,0-2-.2c-.2-.2-.4-.2-.7,0-.3.2-2,.3-7.5.3-3.9,0-7.3,0-7.5.2-.2,0-.6,0-.9,0-.3-.1-.7-.1-1,0-.9.2-13.5.2-14.4,0-.6-.2-.8-.2-1.2,0-.4.3-2.1.3-14.9.5-7.9.1-18.8.2-24.1.2s-10.5,0-11.5.2c-1.7.2-4.2,0-4.5-.2-.1,0-.5,0-1,0-.4.1-4,.2-7.9.3-6.8.1-7.9.2-7.4.7,0,0,1.1.2,2.4.3,2.1.1,2.2.2,2.8.7.7.6.9.6,2.5.2,1.2-.3,4.1-.3,4.5,0,.3.2,1,.3,2.8.3s2.5,0,2.8.3,1,.3,2.7.3c2,0,2.4,0,2.7.3.3.3.8.3,2.8.4,1.8,0,2.6.1,3,.3.4.2,1.2.3,3.5.3,2.2,0,3,0,3.3.3.3.2,1,.3,2.7.3,1.8,0,2.5,0,2.8.3.3.2,1,.3,2.9.3s2.7,0,3.1.3c.4.2,1.2.3,2.7.3s2.3,0,3,.4c.7.3,1.2.4,3,.4,1.8,0,2.2,0,2.5.3.3.3.8.3,2.6.3s2.4,0,2.8.3c.4.2,1.3.3,3.2.4,1.7,0,2.9.2,3.2.4.4.2,1.3.3,2.8.3s2.3,0,2.6.3c.3.2.9.3,2.2.3s1.9,0,2,.2c.1.1,1.1.3,2.7.3,1.7,0,2.6.2,2.8.3.2.2,1.3.3,3.8.4,2,0,3.5.2,3.5.3,0,.4,1.3.5,3.4.4,1.9,0,2.3,0,2.8.2.5.2,1.1.3,2.9.3s2.3,0,2.6.3c.3.2,1,.3,2.7.3,2.1,0,2.4,0,3,.4.6.4.9.4,2.9.4,1.6,0,2.4,0,2.6.2.2.2,1.3.3,3.4.4,1.7,0,3.4.2,3.7.3,1,.4,2.5.6,2.5.4.1-.3.4-.2.8.1.3.3.8.3,3.5.3,2.7,0,3.3,0,3.8.3.5.2,1.3.4,3.3.4,1.5,0,2.8.2,2.9.3.2.1,1.5.2,3.2.3,2,0,3,.2,3.1.3.1.1.5.2.8.2s.6,0,.6.2c.1.2,1.1.2,1.4,0,.1,0,.5,0,.8.2.4.2,1.2.3,3.6.3s3.2,0,3.7.3c.4.2,1.3.3,2.8.4,1.5,0,2.3.2,2.4.4.2.2.9.3,3,.3s2.9,0,3.1.3,1,.3,3.3.3,3,0,3.3.3c.3.2,1,.3,2.7.3,1.8,0,2.4,0,2.8.3.4.2,1.1.3,3,.4,1.4,0,2.6.2,2.8.3.2.1,1.4.2,3.1.3,2.1,0,2.9.1,3,.3.2.2.7.3,2,.3s1.9,0,2.3.3c.4.3,1,.3,3.9.3,3,0,3.6,0,4,.3.4.2,1.1.3,3.2.4,2,0,2.8.1,3.2.4s1.2.3,2.8.3,2.4,0,2.6.3c.3.2,1,.3,3,.3,2,0,2.8,0,3,.3s1,.3,3,.3,2.8,0,3,.3,1,.3,3,.3c2.2,0,2.7,0,3.1.3.4.3,1,.4,2.6.4,2,0,2.2.1,2.7.5.5.4.6.5,1.2.3,1.1-.3,5.1-.3,5.8,0,.3.1.9.4,1.3.4.5.1.7.3.7.6,0,.5.2.5.6,0,.4-.5,1.9-.7,2.5-.4.3.2.6.2,1.2,0,.5-.2,1-.3,1.2-.3.5,0,2.3.9,2.5,1.1.2.3.6.2.9,0h0ZM633.8,319.1c0-.2-.1-.4-.2-.4s-.2.2-.2.4c0,.3,0,.4.2.4s.3-.1.2-.4ZM621,320c.2-.3-.2-.7-.5-.5-.4.2-.4.7,0,.7s.4,0,.5-.1h0ZM515.3,320.4c.2-.4,0-1.1-.3-1-.4.1-.4,1.3,0,1.3s.2-.1.3-.3h0ZM628.2,321.6c0-.6-.6-.8-1-.3-.3.4,0,.9.6.8.3,0,.4-.2.4-.5h0ZM683.4,323.1c.2-.4-.3-.7-.7-.4-.2.2-.2.3,0,.5.3.4.5.3.7,0h0ZM652.1,324.7c.2-.3.1-.4-.1-.6-.6-.6-1.4.2-.9.8.3.4.7.3,1-.1ZM611.7,328c0-.3-4-3.9-5.7-5.1-.8-.6-2.4-1.6-3.5-2.2-5-2.9-9.7-5.7-10-6-.2-.2-.6-.4-1-.5-.3,0-2.2-.7-4.1-1.6s-4.5-1.9-5.6-2.4c-2.3-1-3.1-1.5-3.1-2s0-.4-.5,0c-.5.3-.6.3-4.1-.9l-3.5-1.2-1.5.5c-.8.2-3.9,1.2-6.8,2.1s-5.8,1.8-6.2,1.9c-1,.3-3.7,1.1-5.9,1.7-.9.2-2.4.7-3.3,1-.9.3-2.1.6-2.6.6-.5,0-1.2.2-1.8.5-.9.5-2.6,1-3.3.9-.4,0-1,.2-1.4.5-.2.1-.5.3-.8.3s-1.2.4-2,.7c-.8.3-2.3.7-3.2.9-1.9.4-3,.9-2.9,1.4,0,.3.4.3,2.3.4,1.3,0,2.4.2,2.6.3.1.1,1.1.3,2.1.3s2,.2,2.1.3c.2.1,1.5.2,3.5.3,2.2,0,3.5.2,4,.4.4.1,1.2.3,1.9.3s1.3,0,1.5.2c.2.1,1.3.2,2.5.3,3,.1,3.1.1,3.3,1.1.1.7.2.8.7.9.5,0,.5,0,.5-.6s0-.7.8-.9c.6-.2.8-.2,1.1,0,.2.1,1.4.3,2.9.4,1.4,0,2.6.2,2.7.3.1.1,1.5.2,3,.3,1.8,0,3,.2,3.3.4.3.2,1.2.3,2.6.3s2.3,0,2.8.3c.5.2,1.4.3,3.3.3s2.8,0,3.3.3c.5.2,1.6.3,3.3.4,1.5,0,2.8.2,3,.3.2.1,1.5.3,3.1.3,1.7,0,2.8.2,3.2.4.3.2,1.2.3,2.4.3s2,0,2.2.3c.2.2,1.3.3,3.3.4,1.8,0,3.2.2,3.5.4.4.2,1.4.3,2.8.3s2.2,0,2.3.2c.2.2.7.2.7,0h0ZM724.1,328.7c.2-.3-.5-1.1-.9-1.1-.6,0-.6.4,0,.9.5.5.8.6.9.3ZM719,329.3c.2-.3,0-.5-.3-.8-.5-.5-1-.4-1,.3s1,1.2,1.3.5h0ZM600.1,329.5c.2-.3.1-.4,0-.4s-.3.2-.3.4,0,.4,0,.4.2-.2.3-.4ZM742.1,332.8c0-.6-.3-1-.9-1s-.7.5-.1,1.1c.5.5,1,.5,1.1-.1h0ZM677.7,333.8c.8-.7.9-1.5.2-1.5s-1.6,1-1.6,1.5c0,.8.5.8,1.4,0h0ZM728.2,335.3c0-.5-1-.6-1.1-.1-.1.5,0,.6.6.5.3,0,.5-.2.5-.4h0ZM710.5,336c0-.3-.1-.4-.4-.4s-.4.1-.4.4.1.4.4.4.4-.1.4-.4ZM743.9,338.4c.2-.3.1-.5-.1-.8-.4-.5-.7-.3-.7.5s.4.9.8.3h0ZM659.3,340.3c.3-.5,0-1-1-1.1-1,0-1.2.3-.6,1,.5.5,1.2.6,1.6,0ZM708.7,344.4c0-.4-.1-.5-.4-.5-.3,0-.5,0-.5.2-.2.5,0,.9.5.8.3,0,.4-.2.4-.5h0ZM672.2,344.8c.2-.4-.2-.8-.5-.5-.2.2,0,.8.2.8s.2-.1.3-.3h0ZM663,345.5c.4-.2.2-1.1-.2-1.1-.5-.1-.8.2-.6.8.1.5.4.6.8.3h0ZM711.2,347.7c.1-.6-.1-.9-.6-.8-.5,0-.6.7-.2,1,.5.4.6.3.8-.2ZM737.1,349.8c.1-.3,0-.5-.5-.5s-.5.4-.2.6c.2.2.6.1.7-.1h0ZM698.8,349.9c.3-.3.3-.6,0-1s-1.5-.4-1.8,0c-.2.2-.1.4.2.8.5.5,1.2.6,1.6.3h0ZM652.5,349.6c0-.2,0-.3-.3-.3-.5,0-.6.2-.5.5.1.4.7.2.8-.2h0ZM638.9,349.8c.1-.3-.3-.7-.5-.5,0,0-.2.3-.2.5,0,.4.5.5.7,0h0ZM688.8,349.9c.2-.3.1-.5-.3-.9-.5-.5-.5-.5-.8-.2-.3.4-.2.9.3,1.2.4.3.5.3.8-.1h0ZM690.8,350.5c.2-.3-.2-.6-.6-.5-.2,0-.2.2-.2.4.1.3.6.4.7,0ZM716.1,351.5c0-.1-.2-.2-.4-.2-.3,0-.4,0-.4.2s.1.3.4.2c.2,0,.4-.1.4-.2ZM728.3,354.3c.2-.1.2-.2,0-.5-.3-.4-.5-.4-.7,0-.2.5.1.8.6.5h0ZM695.7,354.2c.2-.5-.3-.8-.7-.4-.3.3-.3.4,0,.5.4.3.6.2.7-.1h0ZM632.2,354.5c-.1-.2-.8-.2-.9,0-.2.3.5.6.8.4.1-.1.2-.3.1-.4h0ZM634.7,354.8c0-.6-.8-.7-1-.1,0,.2,0,.5,0,.7.3.4,1,0,.9-.5h0ZM697,356.3c-.1-.3-.6-.4-.7,0,0,.1,0,.3,0,.5,0,.2.2.2.5,0,.2-.1.3-.3.3-.5h0ZM657.9,356.8c.3-.2.1-.8-.3-.8s-.3.2-.3.5c0,.5.1.6.5.3h0ZM695.2,359c0-.4-.5-.7-.8-.4-.3.3,0,.8.4.8.2,0,.4-.2.4-.4ZM622.6,358.6c0-.4,0-.4-.2.3-.2,1.1-.2,2,0,1,0-.4.2-1,.2-1.3h0ZM730.8,360.3c0-.5-.4-.7-.9-.4-.3.2-.3.3-.2.6.3.5,1,.4,1.1-.1h0ZM722.2,361c.2-.4-.2-.8-.5-.5-.2.2,0,.8.2.8s.2-.1.3-.3h0ZM500.9,361.4c0-.1-.3-.2-.8-.3-.9-.1-1,0-.5.3.4.3,1.2.3,1.2,0h0ZM734,361.5c0-.6-.7-.7-.7,0s0,.5.4.5.4-.1.3-.4h0ZM630.9,361.6c.2-.2.4-.5.5-.7,0-.3,0-.4-.5-.4-.5,0-.6,0-.7.3-.1.4,0,1.2.2,1.1,0,0,.3-.1.5-.3ZM636.4,362.5c-.2-.3-.7-.2-.7.1s0,.4.1.5c.2.2.7-.4.5-.6h0ZM624.7,362.6c-.1-.4-.3-.4-.7-.1-.2.2-.2.2,0,.5.4.3.8.1.6-.4ZM751.2,363.4c0-.3-.1-.4-.7-.4-.8,0-1.2.2-1,.6,0,.2.3.3.9.2.7,0,.8-.1.8-.4ZM697.7,364c.2-.5-.2-1.1-.6-1-.8.2-.7,1.2,0,1.2s.5-.1.5-.2ZM705.6,364.6c0-.4-.6-.5-.8-.2-.2.3,0,.6.5.6s.4-.1.4-.4ZM729.7,365.9c0-.2,0-.4-.2-.5-.3-.2-.6.2-.5.6.2.4.7.4.7,0h0ZM714.9,366.5c0-.5-.5-.7-.8-.2-.2.4,0,.6.4.6s.3-.1.3-.4ZM716.7,367.2c0-.1,0-.3,0-.4-.2-.2-.8.2-.7.5.1.2.6.2.8,0ZM713.7,367.2c0-.1,0-.3,0-.4-.2-.2-1,.2-.9.4.2.2.8.2,1,0h0ZM465.6,367.3c0-.1,0-.2-.2-.2s-.1,0,0,.2c0,.1.2.2.2.2s0,0,0-.2ZM671.7,367.7c0-.4-.3-.5-.7-.3-.3.2,0,.6.4.6s.4-.1.3-.3ZM622.9,367.9c0,0,0-.3-.2-.4-.2-.2-.3-.2-.6,0-.3.3-.2.6.3.6s.4,0,.5-.2h0ZM704.3,370.2c0-.4-.4-.6-.6-.3,0,.1-.1.3,0,.4.2.3.6.2.6-.1h0ZM359.8,370.4c0-.3-1-.6-1.2-.3-.1.1,0,.3.2.4.5.2.9.2,1,0h0ZM444.8,370.5c-.1-.2-.3-.4-.4-.4s0,.2.1.4.4.4.4.4,0-.2-.1-.4h0ZM743.1,371c.3-.3,0-.7-.5-.7s-.7.5-.3.8c.4.2.6.2.9,0ZM661.7,372c0-.2,0-.4-.2-.5-.3-.2-.7.2-.5.5.2.4.7.4.7,0h0ZM629.1,372c0-.4-.4-.7-.6-.5-.3.3,0,.8.3.8s.4-.1.4-.4h0ZM619.1,374.2s0-.2.1-.4c0-.2,0-.3-.4-.3s-.7.3-.4.6c.1.1.6.2.6,0h0ZM747.3,374.2c.4-.4.5-1.6,0-1.7-.2,0-.6,0-1,.2-.6.3-.8.4-.8.9,0,.8,1.1,1.2,1.7.6h0ZM678.9,374.1c.3-.5,0-.7-.9-.7s-1.1.3-.8.8c.3.5,1.4.5,1.7,0h0ZM609.4,374.2c.2-.3.2-.3,0,0-.3.2-.4.4-.3.4s.2-.1.3-.3ZM618.9,377.4c.5-.3.5-1.1,0-1.4-.4-.2-.5-.2-.8,0-.3.3-.4,1,0,1.3.3.3.5.3.9,0ZM696.6,377.6c.4-.4.3-1-.1-1.1-.5-.1-.9.3-.9.9s.5.8,1,.2h0ZM742.5,378.4c0-.2-.2-.5-.3-.8-.3-.4-.4-.4-.8-.2-.5.2-.8.8-.6,1.1,0,.1.5.2,1,.2.7,0,.8,0,.8-.4h0ZM614.3,378.4c0-.1,0-.3-.1-.5-.2-.4-.7,0-.5.5.1.3.5.3.6,0h0ZM655.3,378.6c.3-.2.3-.3,0-.6-.1-.2-.4-.3-.7-.3-.5,0-.6.7-.3.9.3.2.4.2.8-.1ZM328,378.5c0-.1,0-.2-.2-.2s-.2.1-.2.3,0,.2.2.2c.1,0,.2-.2.2-.3h0ZM729.1,379.5c0-.2-.2-.3-.4-.3s-.4.1-.4.3c0,.2,0,.3.4.3s.5,0,.4-.3ZM726.6,380.1c0-.4-.4-.5-.7-.3-.3.2-.3.3,0,.5.4.3.7.2.7-.2h0ZM744.4,380.9c.1-.3-.3-.7-.5-.5,0,0-.2.3-.2.5,0,.5.5.5.7,0h0ZM723.2,380.2c.4-.8.4-1.1,0-1.1s-1.3,1.1-1.2,1.3c0,0,.1.3.2.5.2.5.6.2,1.1-.6ZM706.2,383.5c.3-.2.1-.6-.2-.6s-.3,0-.5.2c-.2.2-.2.2,0,.4.3.2.4.2.7,0h0ZM635.1,384c.3-.3,0-.5-.6-.5s-.8.2-.6.6c.2.3,1,.2,1.2,0h0ZM630.3,384.5c-.2-.5-.2-.5-.5-.4-.3.1-.4.9,0,1.2.3.3.8-.3.6-.8h0ZM664.3,387.1c.3-.3,0-.9-.4-1.1-.2,0-.5-.2-.7-.4-.3-.4-.8-.3-1.2.1-.4.5-.2,1,.4,1,.3,0,.7.1.9.3.4.3.7.4,1,0h0ZM714.6,386.8c.6-.6.7-1.1.1-1.3-.5-.1-.7,0-.8.6,0,.2-.2.4-.4.5-.6.1-.8.4-.4.7.4.3.8.2,1.5-.5h0ZM642.3,388.9c1-.4,1.1-.7.6-1.2-.4-.4-1-.5-1.2-.2,0,.1-.3.2-.5.2-.5,0-.6.5-.3,1,.4.6.3.6,1.4.2h0ZM632.3,388.9c.3-.3.5-1.2.2-1.2s-1.2.8-1.2,1.2c0,.5.5.5,1,0h0ZM588.9,389c.3-.4.3-.9-.2-1-.5-.2-.8,0-.8.5s.5.9.9.5h0ZM581.6,389.5c0-.4-.9-1.1-1.2-1-.4.1-.4.4,0,.9.4.4,1.1.5,1.1.1h0ZM579.1,388.4c1.6-.6,3.5-1.3,4.1-1.6l1.1-.5h-1c-1.3.3-2.2.6-3.9,1.5-.7.4-2,1-2.9,1.2-.9.3-1.6.6-1.6.6,0,.2,1.3-.2,4.2-1.3h0ZM714.8,389.2c-.2-.3-.7-.2-.7.1s0,.4.1.5c.2.2.7-.4.5-.6h0ZM656.2,392.5c0-.5-.4-.7-.7-.3-.2.3,0,.8.4.8s.3-.2.3-.5h0ZM693.2,394c.2-.2,0-.6-.3-.6s-.5.3-.4.6c.1.2.5.3.7,0ZM742.6,394.7c0-.1,0-.4,0-.5-.2-.4-.7,0-.5.5.1.4.4.4.6,0h0ZM717.9,395.1c0-.4-.4-.7-.6-.5-.3.3,0,.8.3.8s.4-.1.4-.4h0ZM705.6,395.1c0-.2-.1-.4-.3-.4-.5,0-.6.2-.5.5.2.4.8.3.8-.1h0ZM682.8,396c.2-.2,0-.6-.3-.6s-.5.3-.4.6c.1.2.5.2.7,0ZM575.3,395.7c.4-.8-.4-1.4-1.1-1-.5.3,0,1.1.9,1.3,0,0,.1-.2.2-.4h0ZM648.2,396.4c0-.1,0-.3-.2-.4-.2-.1-.8.3-.6.5.2.3.8.2.8-.1h0ZM566.8,397.6c0-.2-.1-.4-.4-.4-.4,0-.7.3-.5.6.2.4.8.2.8-.2ZM282,398.1c1-.4,6.6-1.5,9.9-2,.7-.1,1.9-.3,2.8-.5.8-.1,2.2-.4,3.1-.5.9-.1,2.3-.4,3.1-.6.8-.2,1.9-.4,2.4-.4s1.2-.1,1.6-.3,1.2-.3,1.8-.3,1.4-.1,1.8-.3c.4-.2,1.2-.3,1.8-.3s1.5-.1,2-.3c.9-.3,4.2-1,10-2.1,5-.9,6.4-1.2,8.2-1.5,1.4-.3,3.4-.6,7.2-1.4.8-.1,2.2-.4,3-.5.8-.1,1.7-.3,2-.4.3-.1.7-.2,1-.2.3,0,1.3-.2,2.2-.4,1.4-.3,2-.4,3.7-.3,2.1.1,2.1.1,3-.5.6-.4,1.5-.7,2.5-.9,2.7-.5,4.6-.9,5.7-1,.6-.1,1.7-.3,2.4-.5,2.5-.5,4.5-.9,5.4-1,.5,0,2.1-.3,3.6-.6,4.1-.9,4.9-1,6.4-1.2.8,0,2.3-.4,3.4-.6,2.3-.6,8-1.6,9.8-1.9.7,0,1.4,0,1.6,0,.3.1.5,0,.6-.1.2-.3,3.5-1,4.7-1s.9,0,1-.2c.1,0,1.2-.4,2.5-.6,1.8-.3,2.4-.4,2.7-.2.3.2.4.1.8,0,.7-.5,2.1-.8,3.6-.9.8,0,1.6-.2,1.9-.3.2-.1,1.4-.4,2.6-.6,1.2-.2,2.6-.4,3.1-.5s1.3-.2,1.9-.3c.9,0,1.1,0,1.4.3s.3.3.4,0c.2-.5.6-.3.8.3.1.3.5.7.9,1,.7.4.7.4,1.1.2.2-.1.2-.2,0-.6-.4-.6-.2-1.6.4-2,.2-.2,1-.3,1.6-.4.6,0,1.8-.2,2.6-.4,3-.8,3.9-.9,5.4-1,.8,0,1.8-.2,2.1-.3,1.1-.3,3.4-.8,4.7-.9.7,0,1.4-.2,1.5-.3.1-.1.8-.3,1.5-.4.7-.1,1.4-.3,1.6-.4.3-.2.4-.2.6.1.2.3.2.3.6,0,.8-.5,2-.9,3.2-.9s1.5-.1,1.9-.3c.4-.1,1.1-.3,1.5-.3s1.1-.1,1.5-.3c.4-.1,1.2-.3,1.7-.3s1.2-.1,1.6-.3c.3-.2,1.2-.4,2-.5.7,0,1.6-.2,1.9-.4s1.3-.3,2.1-.4c.8-.1,2.2-.4,3-.5.8-.1,2.1-.3,2.9-.4.8,0,1.6-.2,1.9-.3.3-.1.7-.2,1-.2s1.2-.2,1.9-.4c1.8-.5,3.7-.9,6.2-1.2,1.1-.1,2.4-.4,2.8-.5,2.6-.7,2.9-.8,6.9-1.4.9-.1,2.4-.4,3.2-.6,2.3-.5,3.5-.5,3.8-.3.2.1.5,0,1.3-.3.9-.4,1.3-.5,2.6-.5s1.7,0,2.2-.4c.5-.3.8-.4,2-.3,1.1,0,1.6,0,1.9-.2.5-.4,2.3-.8,3.9-1.1.7-.1,1.3-.3,1.4-.4,0-.1.6-.2,1-.2s1.2,0,1.7-.2c1-.2,2.9-.6,5.5-1,1-.2,2-.4,2.4-.5.3,0,1-.2,1.6-.2.6,0,1.5-.2,2.1-.3.6-.1,1.5-.4,2.2-.5.6-.2,1.6-.3,2.1-.4.5,0,1.4-.2,1.9-.4s1.6-.3,2.4-.2c.9,0,1.7,0,2.2-.2.9-.4,2.4-.7,4.1-.9.7,0,1.4-.3,1.6-.4.2-.1.6-.2.9-.2.7,0,4.7-.7,5.8-1.1.5-.1,1.2-.3,1.6-.3s1.3-.1,2-.3c2.1-.5,3.3-.7,5-1,2.8-.4,4.1-.7,5.5-1,.7-.1,1.8-.3,2.3-.4.5,0,1-.2,1.1-.3,0,0,.9-.2,1.7-.3s1.8-.2,2.1-.3c.4-.1.7-.2,1,0,.3.1.7.1,1.5-.2.6-.2,1.1-.4,1.2-.5,0-.1.6-.2,1.1-.2s1.2-.1,1.7-.3,1.1-.3,1.5-.3,1.1-.1,1.5-.3,1.3-.3,1.8-.3,1.2,0,1.5-.2c.6-.2,2.7-.6,4.9-1,.7-.1,1.7-.3,2.2-.5.5-.1,1.3-.3,1.7-.3s1.2,0,1.6-.2c.8-.2,3-.6,5-1,.7-.1,1.5-.3,1.9-.5s1.2-.3,1.7-.3,1.3-.1,1.8-.3,1.1-.3,1.5-.3,1.3-.1,2-.3c1.4-.3,3.4-.6,5.5-.8.8,0,1.8-.3,2.2-.5.4-.2,1-.3,1.4-.3s.7,0,.7-.2c.1-.2-1.4-2.7-1.8-2.9-.2-.1-3.2-.5-6.6-.9-7.2-.8-9.8-1.1-10.2-1.4-.2-.1-.4-.1-.6,0-.4.2-2.6,0-15.6-1.4-10.3-1.2-12.2-1.4-12.8-1.6-.3-.1-.5-.1-.7,0-.2.1-.6.1-1.5,0-.7-.1-3.8-.5-6.8-.8-4.4-.5-5.5-.6-5.7-.9-.2-.2-.3-.3-.6,0-.3.1-.7.2-1.2.1-.4,0-1.5-.2-2.4-.2-1.8-.1-1.8,0-1.9-1.5,0-.8-.4-.7-.5.1,0,.4-.2.7-.3.8-.3.2-2.2.2-3.4,0-.6-.1-1.4-.2-1.8-.3-.8,0-1.5-.5-1.2-.9.2-.2,0-.2-1,.2l-.9.4-3.3-.3c-1.8-.2-3.8-.4-4.4-.5-.6-.1-2-.3-3-.4-1.2-.1-2-.3-2.3-.5-.4-.2-.5-.3-.7-.1-.5.5-2.4,0-2.8-.6-.2-.3-.2-.3-1,0-.4.2-1,.4-1.3.4-.8,0-2-.4-2.1-.7,0-.2-.2-.2-.5-.2-.2,0-1.2.2-2.2.3-2.2.2-4.5.8-6.5,1.4-1.7.6-5.8,1.6-6.2,1.6s-.5.2-.8.4c-.3.2-.6.4-.8.4s-.6.2-1,.4c-.4.2-1,.4-1.2.4s-1.1.2-1.9.6c-.8.3-2.2.8-3.2,1.1s-2.5.7-3.4,1c-.9.2-1.9.6-2.2.7-1.2.6-3,1.1-5.6,1.7-1,.2-2,.6-2.4.7-1.1.6-3,1.2-3.8,1.2s-.8,0-.8.1c0,.2-1.7.8-1.9.7-.2-.1-1.4.4-1.6.7,0,.1-.3.2-.5.2s-.5.1-.6.3c-.1.2-.4.3-.7.3s-1.4.3-2.5.7c-4.1,1.4-8.8,2.8-10.4,3.2-.4.1-.8.3-.9.4s-.4.2-.7.2-.6.1-.9.3-.7.3-1,.4c-.4,0-.9.2-1.2.4-1.3.5-2.2.8-5.4,1.5-.7.2-1.6.5-2,.6-1.1.5-2.4,1-3.3,1.2-.9.2-2,.6-2.5.9-.1.1-.7.3-1.1.4-.5.1-1.7.4-2.8.7-1.1.3-2.2.5-2.5.5s-1,.2-1.7.6c-1.4.7-2.4,1.1-4.3,1.6-.8.2-1.7.5-2,.7-.2.1-.9.3-1.4.4-.5,0-1.2.2-1.5.4-.3.1-.6.2-.7.2s-.5.1-.8.3c-.3.2-.7.3-.9.3s-.6.1-1,.3c-.9.4-1.8.7-2.9,1-.5.1-1,.4-1.1.5-.1.1-.4.2-.7.2-.3,0-.7.1-1,.3-.3.1-.7.3-1,.3-.3,0-.6.1-.8.3-.2.2-.6.3-.9.3s-1.6.4-3,.9c-1.4.5-2.9.9-3.3,1s-.8.2-1,.4c-.1.1-.5.2-.8.3-.3,0-.8.2-1.1.3-.3.1-1.2.4-2,.6-.8.2-1.7.5-2.1.7-1.3.5-2.6.9-2.8.9s-.5.1-.8.2c-1.2.5-2.5.9-3.4,1.1-.5,0-1,.2-1.2.3-.5.2-2.2.8-2.5.8s-.5.1-.8.3c-.5.2-1.2.4-4.5,1.4-.6.2-1.8.5-2.6.8-.9.3-2,.6-2.6.7-.5.1-1.4.4-1.9.7-.5.3-1.1.5-1.3.5s-.6.1-.8.3-.6.3-.8.3c-.3,0-.7.1-1,.3-.3.1-.7.3-.9.3-.4,0-2.8.8-3.5,1.1-.3.1-.7.3-.9.3s-.6.1-.9.3c-.3.2-.7.3-.9.3s-.6.1-.9.2c-.6.2-2.1.6-3.7,1-.6.1-1.1.3-1.2.5,0,.1-.4.3-.7.3-.6,0-2.9.8-2.9,1s-.2.2-.4.2-.8.2-1.2.4c-.5.2-1.1.4-1.4.4s-1.1.3-1.8.6-1.4.6-1.6.6-.7.1-1.1.3c-.4.1-1.4.5-2.1.7-.8.2-1.7.5-2.1.7-.4.1-1,.4-1.3.5-.4.1-1,.3-1.5.4s-.9.3-1,.5c-.1.1-.5.3-.8.3s-.8.1-1,.3c-.2.1-.6.3-1,.3-.6,0-1.9.4-3.1.9-.3.1-.8.3-.9.3s-.6.1-.9.3c-.3.1-.9.4-1.3.5-.4.1-.9.3-1.2.4-.5.2-1.6.5-3.8,1-.5.1-1,.3-1.1.4-.1,0-.3.2-.5.2s-.4.1-.4.3c0,.2-.4.3-.7.3s-.9.1-1.2.3c-.9.4-1.9.7-2.6.9-.4,0-.9.3-1.2.5-.3.2-.7.3-1,.3s-.5.1-.6.3-.5.3-.8.3-.8.1-1,.3-.6.3-1,.3c-.3,0-.7.1-.8.3-.1.2-.5.3-.8.3s-.8.1-1,.3-.6.3-1,.3c-.4,0-1,.2-1.5.4-1.3.5-2.1.8-2.8,1-.3,0-.8.2-1,.4s-.6.2-.8.2-.6.1-.9.3c-.3.1-.9.3-1.3.4-.4,0-.9.2-1,.4-.1.1-.6.3-1,.3s-.9.1-1.1.2c-.4.2-2,.6-3.8,1-.8.1-1.3.4-1.7.8-.5.5-.6.5-1,.3-.4-.2-.7-.1-1.9.6-.8.4-1.6.8-1.8.8s-.6.1-.9.3c-.3.1-1.3.4-2.1.6s-1.8.5-2.2.7c-.4.2-.9.4-1,.4-.4,0-2.1.5-2.7.9-.3.1-.7.3-1,.3-.5,0-.9.3-.9.7s.3.3.9.3c1.1,0,1.4,0,2.8-.5h.2ZM277.1,398.6c0-.1-.2-.1-.4,0-.4.1-.4.3.1.3s.3,0,.3-.2h0ZM676.6,398.8c0-.2-.2-.3-.5-.3s-.5.1-.5.3.2.3.5.3.5-.1.5-.3ZM716.2,400.1c0,0,.3-.2.6-.4.5-.2.6-.3.4-.5-.3-.4-1.3-.4-1.7,0-.1.1-.2.4-.2.7,0,.3.1.4.5.4s.5,0,.5-.1h0ZM265.4,399.9c-.2-1-.2-1.1-.6-.8-.4.3-.4.9,0,1.1.5.3.6.2.5-.3ZM264.1,400.5c0,0-.1-.2-.3-.3-.3-.1-.4,0-.2.3s.4.2.4,0ZM674.1,400.6c0-.2,0-.3-.4-.3s-.5.1-.5.4,0,.4.4.3c.2,0,.5-.2.5-.4h0ZM262.5,400.9c-.2-.3-.5,0-.4.3,0,.2.2.2.3.1.1-.1.1-.3,0-.4h0ZM713,401.3c0-.5-.7-.5-.7,0s.1.4.4.4.4-.1.3-.3h0ZM585.7,401.6c.1-.1.2-.5.2-.8s.1-.8.3-1c.3-.4,0-.9-.5-.9s-.3,0-.3-.2-.2-.2-.5-.2c-.5,0-.7.5-.2.6.3.1.4.8,0,1-.1,0-.3.3-.4.5-.2.3-.1.5.2.8.4.4.8.5,1.1.2ZM630.2,401.7c0-.3-.2-.3-.4,0-.2.2-.2.3,0,.5.3.3.6,0,.5-.4h0ZM257.9,401.5c-.2-.6-.6-.6-.7,0,0,.4.5.9.8.7s0-.4,0-.7h0ZM611.2,402.5c0-.1-.2-.2-.4-.2-.3,0-.4,0-.4.2s.1.3.4.2c.2,0,.4-.1.4-.2ZM691.4,403.7c0-.4-.5-.7-.7-.3,0,.2,0,.4,0,.6.2.4.7.2.7-.3h0ZM754.9,404.2c-.1-.2-.3-.3-.4-.3-.3,0-.2.7,0,.8.4.1.6-.2.3-.5h0ZM694.5,404.2c-.1-.3-.6-.4-.7,0,0,.1,0,.3,0,.5,0,.2.2.2.5,0,.2-.1.3-.3.3-.5ZM559.8,405.1c.1-.4-.3-.8-.5-.5-.2.2,0,.8.3.8s.2-.1.3-.3h0ZM611.8,405.7c0-.2,0-.3-.2-.4-.3-.1-.7.2-.6.5.2.3.6.2.8,0h0ZM523.2,406.2c0-.1,0-.2-.2-.2s-.2,0-.2.2,0,.2.2.2.2,0,.2-.2ZM755.4,405.1c-.2-.3-.2-.3-.1.1,0,.3.1.8.1,1.1,0,.6,0,.6.1-.1,0-.4,0-1-.1-1.1h0ZM613.5,406.9c0-.3-.1-.4-.5-.4-.5,0-.9.2-.7.6.2.5,1.2.3,1.2-.2h0ZM663.7,407.5c0-.2-.2-.3-.4-.3-.4,0-.6.3-.3.6.2.2.7,0,.7-.3h0ZM661.1,407.5c0-.2,0-.3-.3-.3s-.4.1-.4.2c0,.6.6.6.7,0h0ZM598.8,407.4c0-.2,0-.6,0-.7-.2-.4-.7,0-.7.6s.6.9.7.1ZM240.1,407.8c.2-.3.1-.5-.4-.5s-.5.4-.2.6.4.2.6-.1h0ZM658,408c0-.2,0-.3-.3-.3s-.4.1-.4.4c0,.5.6.4.7,0h0ZM546.8,408.7c0-.6-.7-.8-1-.3-.4.5,0,.9.5.8.4,0,.5-.2.5-.5ZM569.2,409.6c.2-.3-.4-.9-.7-.6s-.2.4,0,.5c.1.4.6.4.8,0ZM702.6,410.3c.3-1.2-.3-1.6-1.1-.8-.4.4-.6,1.1-.3,1.4,0,0,.4.1.7,0,.4,0,.6-.2.7-.6h0ZM752.6,412.6c.3-.4,0-1.1-.5-1.1s-.7.3-.5.9c.2.5.6.6.9.1h0ZM713.6,413.7c0-.5-.4-.7-.7-.3-.2.3,0,.8.4.8s.3-.2.3-.5h0ZM507.4,413.7c0-.5-.5-.5-.6,0,0,.4,0,.4.3.4.2,0,.4-.2.4-.5h0ZM756.7,414.3c0,0-.2,0-.4,0-.2,0-.1.1.1.1.2,0,.3,0,.2-.1h0ZM720.3,415.1c.2-.3-.2-.7-.5-.4-.2.2,0,.6.2.6s.2,0,.3-.2ZM626.6,415c.1-.3-.5-.5-.7-.3-.1.1-.1.3,0,.4.2.3.7.2.8-.1ZM567.9,414.9c.2-.3.2-.5,0-.7-.4-.4-.7-.2-.7.4s.4.9.8.3ZM542.7,415c0-.3-.5-.5-.7-.3-.1.1-.1.3,0,.4.2.3.7.2.8-.1h0ZM662.4,415.6c0-.3-.5-.5-.7-.3-.1.1-.1.3,0,.4.2.3.7.2.8-.1ZM601.4,416.9c.4-.4.5-1.2.1-1.2s-1.1.9-1,1.2c.2.4.4.4.9,0ZM551.3,417.5c.2-.5,0-1-.5-.9-.7.1-.7,1.3,0,1.3s.4-.2.5-.4h0ZM533.4,417.4c0-.4-.7-.4-.8,0,0,.3,0,.3.4.3.2,0,.4-.2.4-.4ZM500.6,417.4c0-.2-.1-.3-.3-.4-.2,0-.3,0-.3.4s.1.4.3.3c.2,0,.3-.2.3-.3ZM682.2,418.2c0,0,0-.3-.2-.4-.2-.2-.3-.2-.6,0-.3.3-.2.6.3.6s.4,0,.5-.2h0ZM561.2,418.2c.1-.2-.3-.6-.6-.5,0,0-.2.2-.2.4,0,.4.6.5.8.1h0ZM659.9,419.4c.1-.3-.3-.7-.5-.5,0,0-.2.3-.2.5,0,.5.5.5.7,0ZM625.3,420.6c0-.4-.4-.6-.6-.3-.1.1-.1.3,0,.5.3.3.6.2.6-.2h0ZM499.3,420.8c.2-.2.3-.4.2-.8-.2-1-2.2-.9-2.2.1s1.2,1.2,2,.6h0ZM703.2,421.3c0-.2,0-.4-.2-.5-.3-.2-.7.2-.5.5.2.4.7.4.7,0ZM673.5,421.2c.4-.6,0-1-1-1s-.8,0-.9.4c-.1.8,0,1,.9,1,.5,0,.9-.2,1-.4ZM578.9,423.9c.1-.1.2-.4.2-.7,0-.6-.7-.7-1.8-.2-.8.4-1.1.7-.8,1,.2.2,2.1.1,2.3-.1h0ZM634,424c0-.4,0-.6-.2-.7-.4-.1-.7.4-.5,1,.2.6.7.4.8-.3h0ZM526.5,424.2c0-.2-.2-.6-.5-.7-.2-.2-.5-.6-.6-.9-.1-.7-.3-.7-.8-.3-.4.3-.4.3.2,1.3.3.6.7,1.1.8,1.1.5.1.8,0,.8-.5h0ZM581.7,424.6c0-.5,0-.6-.5-.6s-.5.1-.5.3c-.1.6.1.9.6.9.3,0,.4-.2.4-.6h0ZM566.8,425c0-.4-.6-.6-.8-.3-.2.3,0,.6.4.6s.4-.1.4-.3ZM551.6,425.9c.2-.1.3-.5.3-.9,0-.1-.4-.5-.9-.7-.9-.5-.9-.5-1.5-.2-1,.5-1,1,.2,1.5,1,.5,1.6.6,2,.3h0ZM519.8,426.1c0-.2-.2-.3-.5-.3-.5,0-.6.2-.3.5.2.2.8.1.8-.2h0ZM637.1,426.9c.1-.3,0-.5-.5-.5s-.5.4-.2.6c.2.2.6.1.7-.1h0ZM583.9,426.9c.1-.3-.2-.7-.5-.5,0,0-.2.3-.2.5,0,.5.5.5.7,0h0ZM708,426.9c.2-.3.2-.4,0-.5-.7-.5-1.4,0-.9.7.3.4.7.3,1-.2h0ZM503.1,427.3c0-.2,0-.3-.3-.3s-.4.1-.4.4c0,.5.6.4.7,0h0ZM517.9,428c0-.4-.6-.6-.8-.3-.2.3,0,.6.4.6s.4-.1.4-.3h0ZM595.2,428.4c0-.5-.8-1.5-1.2-1.4-.4.1-.4,1.1,0,1.5.5.5,1.2.5,1.2,0h0ZM514.8,428.8c.2-.5-.2-.7-.6-.4-.3.2-.3.3,0,.5.4.3.6.2.7-.1h0ZM567.8,429.5c.2-.5.1-.6-.3-.6s-.4,0-.4.2c0,.3.2.8.4.8s.2-.1.3-.3h0ZM485.9,429.6c0-.4,0-.6-.4-.8-.4-.2-.5-.2-.8,0s-.2.3.1.8c.5.6,1,.6,1.1-.1ZM538.8,430.1c.3-.4.3-1.4,0-1.7-.3-.4-.7-.4-1.3.2-.7.6-.6.9.2,1.4.6.4.9.4,1.2,0h0ZM695.5,431c.4-.4.2-1-.3-1s-.9.3-.9.9.7.6,1.2,0h0ZM482.8,431c-.2-.3-.9-.2-.9,0s0,.3.1.4c.2.2.9-.2.7-.5h0ZM711.7,431.8c0-.2-.1-.4-.3-.4s-.3.2-.3.4.1.4.3.4.3-.2.3-.4ZM596.3,431.7c0-.2,0-.3-.3-.3s-.4.1-.4.2c0,.6.6.6.7,0h0ZM506,431.5c.6-.5.5-1-.2-1.5-.8-.6-1.1-.4-1.1.8s.4,1.6,1.3.7ZM474.5,432c.2-.4,0-.8-.6-.8s-.6.4-.5.9c.1.4.8.4,1,0h0ZM527.2,431.8c.1-.3-.2-.6-.6-.6-.1,0-.5.2-.8.5-.5.4-.5.6-.4.8.2.3.2.3,1,0,.4-.2.8-.5.9-.7h0ZM520.9,433c.8-.5,1.1-1.1.7-1.5-.4-.4-2.1,1.1-1.8,1.7.1.4.3.4,1.2-.2h0ZM482.6,433.2c.2-.4-.2-.8-.5-.5-.2.2,0,.8.2.8s.2-.1.3-.3h0ZM639.5,433.8c.2-.3,0-.5-.4-.5s-.3.1-.3.4c0,.4.4.5.7.1ZM534,433.7c0-.3-.5-.5-.7-.3-.1.1-.1.3,0,.4.2.3.7.2.8-.1h0ZM512.9,434.5c.2-.4-.2-.8-.5-.5-.2.2,0,.8.2.8s.2-.1.3-.3h0ZM569.8,434.9c0-.4-.5-.6-.8-.3s0,.3.1.5c.3.3.7.2.7-.2h0ZM447.5,434.8c0-.4-.5-.5-.7,0-.1.3.3.7.5.5,0,0,.1-.3.1-.5h0ZM483.4,435.1c0-.7-.3-.8-.8-.5-.5.4-.2,1.1.4,1.1s.5,0,.4-.6h0ZM611.1,435.5c0-.2,0-.4-.3-.5-.5-.3-1.1.2-.9.6.2.4,1.1.3,1.2-.1h0ZM695.2,436.2c0-.3-.5-.5-.8-.3s-.1.3,0,.4c.2.3.7.2.8-.1ZM658,435.7c-.5-1.8-1.6-4.8-2.2-6-.3-.7-.5-1.3-.5-1.5,0-.4-4.5-3.3-5.6-3.6-.6-.2-1.1-.3-1.2-.2,0,0,.7.9,1.7,1.9,5.4,5.1,5.9,5.8,7.1,9,.7,1.9,1.2,2.2.7.5h0ZM649.9,437c.3-.3.1-.7-.3-.7s-.5.3-.4.6c.2.4.3.4.6,0h0ZM641.9,436.7c0-.5-.7-.5-.7,0s0,.4.1.5c.2.2.7-.1.6-.4h0ZM589.7,436.9c0-1.1-.7-1.7-1.4-1-.4.4-.4.8.2,1.3.7.7,1.1.5,1.2-.3ZM545.1,437c0-.4,0-.6-.4-.6s-.6.5-.4,1c.2.5.8.2.8-.4h0ZM708.6,438.5c0-.4-.4-.4-.7,0-.2.2-.2.3,0,.4.4.1.6,0,.7-.3h0ZM615.5,438.6c.3-.5.2-.5,0-.9-.4-.4-.7-.2-.7.4s.4,1.1.8.4h0ZM542.7,438.7c0-.3-.5-.5-.7-.3-.1.1-.1.3,0,.4.2.3.7.2.8-.1h0ZM750,438.9c0-.6,0-.6-1.1-.6-1.4,0-1.7.2-1.1.8.4.4.6.5,1.3.4.8,0,.9,0,.9-.6h0ZM427.3,439.1c.9-.3,1.4-.4,1.6-.3.2.1.4,0,.8-.3l.5-.5h-.5c-.6,0-2.5.6-3.3,1.2-.7.5-.6.4,1-.1h0ZM595.8,439.8c0-.2-.1-.4-.3-.4-.5,0-.6.2-.3.6.4.4.6.3.6-.2h0ZM454.4,440c.1-.4,0-.6-.4-.6s-.5.4-.3.7c.3.4.5.4.6,0h0ZM653.2,440.5c0-.2,0-.4-.2-.5-.3-.2-.6.2-.5.6.2.4.7.4.7,0h0ZM619.8,440c.1-.4-1.3-1.9-1.7-1.7-.4.1-.4.7,0,1.4.2.3.3.8.4.9,0,.3.1.3.7,0,.3-.2.6-.4.7-.6h0ZM492.7,440.6c.1-.3-.7-1.2-1-1.2-.5,0-.5.6,0,1.1.4.5.9.5,1.1.2ZM428.4,440.4c0-.5-.1-.5-.5-.4-.2,0-.3.3-.3.5s.1.4.4.3c.3,0,.4-.2.4-.4h0ZM698.2,441.1c0-.3-.5-.5-.8-.3s-.1.3,0,.4c.2.3.7.2.8-.1ZM594.4,441.2c.2-.2.2-.4,0-.8-.3-.6-1.1-.6-1.4,0-.5.8.7,1.6,1.3.9h0ZM583.9,441.4c0,0,0-.3,0-.5-.3-.5-1-.4-1.1.2,0,.4,0,.4.5.4s.6,0,.7-.1h0ZM479,441.1c.1-.3-.5-.5-.7-.3-.1.1-.1.3,0,.4.2.3.7.2.8-.1ZM611.8,441.7c0-.1,0-.3-.2-.3-.3-.1-.7.2-.6.5.2.3.8.2.8-.2ZM589.9,441.6c.4-.5.4-.9,0-.9s-1.1.9-1,1.1c.2.3.6.2,1-.3ZM567.8,441.9c.2-.3-.2-.7-.5-.4-.2.2,0,.6.2.6s.2,0,.3-.2ZM517.8,441.7c0-.3-.3-.4-.7-.2-.2.2-.2.2,0,.4.4.2.7.1.7-.2ZM603.7,442.3c0-.3-.5-.5-.7-.3s-.1.3,0,.4c.2.3.7.2.8-.1h0ZM554.4,442.6c-.1-.2-.6-.2-.8,0,0,.1,0,.3.1.5.2.3.3.3.5,0,.1-.2.2-.4.1-.5h0ZM488.8,443.1c.2-.5,0-.6-.9-.6s-1.2.2-.8.7c.3.4,1.6.4,1.8,0h0ZM603,443.9c.2-.2,0-.9-.3-.9s-.5.7-.3.9c0,0,.2.1.3.1s.3,0,.3-.1ZM584.5,443.5c0-.2-.2-.4-.3-.4-.2,0-.3,0-.3.4s0,.5.3.4c.2,0,.3-.2.3-.4ZM725.6,443.5c.6-.6,1.1-1.2,1-1.3,0-.1-.5-.2-1.2-.3h-1.2c0,0-.4.8-.4.8-.4.8-.4.9-.1,1.3.2.3.4.5.5.5s.7-.5,1.3-1.1h0ZM550.1,444.2c0-.3-.5-.5-.7-.3-.1.1-.1.3,0,.4.2.3.7.2.8-.1h0ZM511.8,444.4c.3-.4-1-1.5-1.3-1.2-.2.2,0,.8.3,1.1.5.3.8.4,1,.1h0ZM484.5,444.1c0-.4-.5-.4-.6,0,0,.3,0,.3.3.3.2,0,.4-.2.4-.4h0ZM445.3,444.2c.7-.7,0-1.8-1-1.8s-.6.3-.2,1.2c.4.9.7,1.1,1.2.6h0ZM631.5,445.6c0-.2,0-.4-.2-.5-.4-.3-.5-.2-.5.3s.5.7.7.2h0ZM552.3,445.6c.2-.4-.2-.8-.5-.5-.2.2,0,.8.2.8s.2-.1.3-.3h0ZM481.8,446.1c.2-.2.2-.2,0-.2s-.4,0-.4.2c-.1.2.1.2.5,0h0ZM511.8,446.1c.2-.5-.2-.7-.6-.4s-.3.4-.2.5c.2.3.7.2.8-.1ZM454.3,446c0-.5-.9-1.2-1.4-1.1-.6,0-.6.8.1,1.2.7.4,1.3.4,1.3-.1ZM740.1,446.9c0,0,0-.3,0-.5-.2-.4-.2-.4-.5,0-.1.2-.2.4-.2.5.1.2.5.2.7,0h0ZM633.3,446.9c.2-.2-.2-.9-.4-.7-.3.2-.2.9,0,.9s.3,0,.4-.1ZM592.7,446.7c0-.3-.5-.5-.7-.3-.1.1-.1.3,0,.4.2.3.7.2.8-.1ZM556.8,446.9c.2-.2,0-.6-.3-.6s-.5.3-.4.6c.1.2.5.2.7,0h0ZM479.6,446.7c-.1-.5-.7-.5-.7,0s.1.4.4.4.4-.1.3-.3h0ZM509.9,446.9c0-.6-.4-.8-.7-.3-.3.4,0,1,.4.9.2,0,.3-.2.3-.6h0ZM441.3,447.5c.1-.4-.6-1.8-.9-1.8s-1.1.7-1.1.9.4.7.9,1c.5.3,1,.3,1.1,0h0ZM713.6,447.9c0-.5-.1-.6-.5-.3-.3.2-.1.8.3.8s.3-.2.3-.5ZM573.5,448.1c.1-.4-.4-.8-.7-.5-.3.3,0,.8.3.8s.3-.1.4-.3ZM497.4,447.9c0-.6-.5-.7-.5,0s.1.5.3.5.3-.1.2-.4ZM638.1,447.9c0-.9,0-1.1-.4-1.4-.5-.3-.6-.3-1.1.7l-.4.7.5.6c.3.4.6.6.9.5.3,0,.4-.2.4-1.2ZM470.5,449c.5-.2.7-.8.5-1.2-.1-.3-.4-.4-1-.4s-.8,0-1,.5c-.4.8.5,1.5,1.5,1.1h0ZM429,449c0-.1-.2-.3-.4-.3-.3,0-.5.5-.2.7.3.3.7,0,.6-.5h0ZM750.2,449.7c.2-.5-.3-1-.7-.8-.2,0-.3.3-.3.7s0,.5.5.5.5-.1.6-.4h0ZM535,450.2c.4-.5,0-.9-.8-.9s-.8,0-.9.3c-.2.7,1.2,1.1,1.7.5ZM730.9,450.6c.1-.3,0-.5-.4-.5s-.2.2-.2.4c0,.4.5.5.6.1ZM618.8,450.9c.1,0,.2-.3.2-.5,0-.4-1.5-.6-1.7-.2-.4.6.8,1.2,1.5.8h0ZM525.7,450.9c.3-.2.2-.9-.2-.9-.5-.1-.9.3-.7.8.2.4.5.5.9.2ZM740.1,451c0-.2-.1-.4-.3-.4s-.3.2-.3.4.1.4.3.4.3-.2.3-.4ZM407.8,451.4c.3-.3,0-.9-.5-.9s-.7.4-.5.9c.1.3.7.4,1,0h0ZM684.1,451.3c0-.4,0-.6-.4-.6-.3,0-.5,0-.5.4-.2.6,0,.9.5.8.3,0,.4-.2.4-.6ZM587.1,451.6c.1-.2.1-.4,0-.6-.4-.5-.8-.4-.8.4s0,.7.3.6c.2,0,.4-.2.5-.4ZM535.8,451.8c.2-.3-.2-.7-.5-.5-.4.2-.4.7,0,.7s.4,0,.5-.1h0ZM442.5,451.7c0-.4-.7-1.3-1.1-1.3s-1.5,1.1-1.4,1.3c.1.2.8.3,1,0,.2-.3.9-.2,1,.1.1.4.5.3.6-.2h0ZM405,451.6c0-.6,0-.9-.3-.9-.4,0-.8.6-.6,1.3.1.5.2.6.5.5.4,0,.4-.2.4-.9h0ZM415.4,452.4c.1-.4-.1-.7-.5-.5-.3.2-.2.8.2.8s.2-.1.3-.3ZM396.2,452.5c.2-.4-.4-1.1-.9-1-.6,0-.6.8-.1,1.2.4.3.9.2,1-.1h0ZM477.8,452.9c0-.3-.1-.4-.4-.4s-.4.1-.4.4.1.4.4.4.4-.1.4-.4ZM742.5,452.9c0-.6-.3-.8-.5-.3-.1.4,0,.9.3.9s.2-.3.2-.6h0ZM652.6,454.2c0-.2-.1-.3-.4-.2-.6,0-.7.5,0,.5s.5-.1.5-.3h0ZM647.7,454.2c0-.2-.2-.3-.5-.3s-.5.1-.5.3.2.3.5.3.5-.1.5-.3ZM600.7,454.2c0-.2-.1-.3-.4-.2-.6,0-.7.5,0,.5s.5-.1.5-.3h0ZM510,454.7c0-.3-.7-.4-.8-.1-.1.2,0,.4.5.4s.4-.1.4-.3ZM442.3,455c.1,0,.2-.4.2-.7,0-.5-.1-.6-1.1-.6-.6,0-1.1,0-1.3.2-.4.3-.3.9,0,1.1s1.8.3,2.1,0h0ZM409.4,455c0-.5,0-.6-.5-.6s-.5.1-.6.3c-.2.5,0,.9.6.9s.5,0,.5-.6ZM607.5,455.3c0-.2-.2-.3-.5-.3-.5,0-.6.2-.3.5.3.3.7.1.7-.2ZM604.4,454.7c0-.6-.1-.7-.5-.7s-.5.1-.5.7c0,.5,0,.7.3.9.5.4.9,0,.8-.9h0ZM723.9,455.7c.5-.5,0-.8-1-.8s-1-.1-1.3-.5c-.5-.6-1.1-.6-1.5-.1-.5.5-.4.7.3,1,.3.1.9.4,1.2.5.8.3,2.1.3,2.5,0h0ZM430.7,455.7c.3-.3.3-.3,0-.6-.2-.1-.5-.2-.6-.2s-.2-.2-.2-.4-.2-.5-.4-.6c-.3-.1-.5,0-.9.4-.5.5-.5.5-.1.8.2.1.5.2.6.2s.4.2.6.4c.5.5.6.5,1,0h0ZM491.4,456c0-.2-.1-.4-.4-.4-.5,0-.6.2-.5.5.2.4.8.3.8-.1ZM587.5,456.2c.5-.5.3-1.6-.2-1.7-.3,0-.5,0-.5.5,0,.3-.2.6-.3.8-.3.3,0,.8.4.8s.5-.2.7-.4ZM396.3,456.6c0-.4-.6-.6-.8-.3-.2.3,0,.6.4.6s.4-.1.4-.3ZM743.2,456.8c0-.1,0-.3-.1-.5-.2-.4-.7,0-.5.5.1.3.5.3.6,0h0ZM496.9,456.6c0-.4-.6-1-1-1s-.4.6.2,1.1c.6.5.8.4.8,0h0ZM390.5,457c.3-.1.4-.6.2-.6s-.2,0-.4-.1c-.3-.1-.6.4-.4.7.1.2.1.2.5,0h0ZM677.8,458.6c.2-.2.2-.3,0-.4-.2,0-.4,0-.6,0-.2,0-.3.2,0,.4.1.2.3.3.4.3s.2-.1.4-.3h0ZM674.1,458.4c0-.2,0-.3-.4-.3s-.7.3-.3.6c.2.2.7,0,.8-.3h0ZM597.9,458.8c.5-.2.5-.8,0-.8-1,0-1.3.2-.9.7.4.4.4.4.9.1h0ZM531.8,458.9c0,0,.7-.5,1.5-.9,1.5-.7,1.8-1.2,1.1-1.6-.3-.1-.5,0-1,.5-.4.5-.8.7-1.2.7-.6,0-1.4.5-1.4.9s.5.6.8.6c0,0,.2,0,.2-.2h0ZM405.8,458.8c1.2-.4,2.7-.8,3.3-1,.6-.2,1.8-.6,2.6-.9,1.2-.5,1.4-.6,1.4-.9-.1-.5-.9-.4-.9,0,0,.2,0,.4-.2.4-.1,0-1.4.4-2.8.8-2.9.9-6.3,2.1-5.9,2.1.2,0,1.3-.3,2.5-.6h0ZM498.7,459.3c.2-.2.3-.5.2-1,0-.5-.1-.7-.5-.8-.3,0-.5,0-.5.3,0,.2-.2.5-.3.8-.4.9.4,1.4,1.1.7h0ZM402.3,459.8c0-.1,0-.2,0-.2s-.2,0-.2.2,0,.2,0,.2.1,0,.2-.2ZM675.2,459.9c.2-.4-.2-.8-.5-.5-.2.2,0,.8.2.8s.2-.1.3-.3h0ZM650.6,459.9c0-.3-.8-1.2-1.1-1.2s-.5.9-.2,1.2c.3.3,1.2.3,1.3,0ZM449.6,459.8c.4-.4.3-1.2-.1-1.3-.3,0-1.1.6-1.1.9s.5.7.7.7.3-.2.5-.4h0ZM392.5,459.6c0-.3,0-.4-.2-.4-.4,0-.6.3-.4.7.1.4.6.2.6-.3h0ZM530.3,461.1c.1-.3,0-.5-.5-.5s-.3.1-.3.4c0,.4.7.5.8.1h0ZM486.4,461.1c.2-.3-.2-.6-.6-.5-.2,0-.2.2-.2.4.1.3.6.4.8,0h0ZM616.4,461.1c.5-1,.5-1.1.1-1.8-.2-.3-.3-.7-.4-.9,0-.2-.3-.3-.5-.3-.3,0-.4.2-.4,1.6,0,.9,0,1.7,0,1.9.1.6.7.4,1.2-.5h0ZM540,461.3c0-.6,0-.7.9-.3,1,.4,1.3.2,1.2-.7,0-.7-.7-1.7-1.1-1.7s-.2.2-.3.5c-.2.6-.5.7-1,.5-.6-.3-.8-.1-.9.7,0,.5,0,.7.4,1.1.7.7,1.1.7,1,0h0ZM624.2,462.2c0-.4-.6-.6-.8-.3-.3.4-.2.5.3.5s.5-.1.5-.3h0ZM534.2,461.9c0-.5-.7-.8-1-.5-.2.2-.3.4-.3.5s.1.3.3.5c.4.4,1,0,1-.5ZM382.1,462.4c.5-.5,0-1.6-.6-1.1-.1.1-.3.4-.3.6,0,.3.3.8.6.8s.2-.1.3-.2ZM714.3,462.7c.2-.6.2-.6,1.4-.6s1.3,0,1.5.3c.4.4,1.2.3,1.3-.2,0-.3,0-.4-.5-.5-.4,0-.6-.3-.6-.5,0-.5-.7-.6-1.4-.2-.5.2-.6.2-1,0-.7-.5-1.1-.3-1.7.7-.7,1.1-.6,1.7.3,1.7s.6-.1.7-.6h0ZM584.5,462.9c.1-.3-.3-.7-.5-.5,0,0-.2.3-.2.5,0,.5.5.5.7,0ZM537.6,463.1c.3-.2.1-.6-.4-.6s-.5.4-.2.6c.2.2.3.2.6,0h0ZM607.9,463.1c.3-.4,0-.8-1-1.1-.8-.2-1.1,0-1,.6.2.7,1.5,1,1.9.4h0ZM369.1,462.8c0-.2-.1-.4-.3-.4-.3,0-.4.6-.2.8.2.2.5,0,.5-.5h0ZM617.8,463.1c0-.4,0-.6-.3-.6-.3,0-.5.5-.3,1,.2.5.6.2.6-.4h0ZM738.8,463.2c.3-.5.2-.8-.1-.8-.7,0-1.3,1-.9,1.4.2.2.8-.2,1-.6h0ZM622.7,463.6c.6-.8-.3-1.7-1-1-.4.4-.4.6,0,1,.4.5.7.4,1.1,0h0ZM479.8,455.3c-.2-.2-.1-.6.2-.7.3-.1.3-.2.2-.5-.3-.5.2-.9.7-.6.4.3.4.7,0,.9-.2.1-.3.2-.2.3s0,.3,0,.4c-.2.3-.6.3-.8.1ZM458.4,463.8c2.8-.5,6.4-1.4,11-2.8,1.9-.6,3.8-1.1,4.2-1.1.4,0,1.2-.3,1.7-.5.5-.2,2.8-1.1,5.1-1.9,4.4-1.5,11.4-4.3,14.6-5.7,2-.9,2.3-1.1,2.1-1.3-.1-.1-8.9,2.3-12.5,3.5-2.4.8-2.7.8-2.9.6-.1-.2-.2-.5-.1-.8,0-.4,0-.5-.3-.5s-.4-.1-.4-.4c0-.5.7-.7.9-.3.1.2.2,0,.5-.4.3-.7.3-.7-.2-1.7-.6-1.2-.6-1.8-.1-2.1.2-.1.4-.4.4-.6,0-.3,0-.4-.3-.2-.4.3-.8,1.6-1.1,3.2-.2,1.1-.4,1.6-.8,2.1-.3.4-.5.8-.5.9,0,.3-.8.9-1.1.8-.6-.1-.9.2-.9.9s0,.6-.5.7c-.2,0-.7,0-.9-.2-.4-.2-.5-.2-.6,0-.4.7-5,2.5-8.3,3.2-1.1.2-2.1.5-2.5.8-.4.3-2.4,1.1-4.6,1.8-2.1.8-4.2,1.5-4.7,1.6-.5.2-.8.4-.7.5,0,.2.3.2.5.2.2,0,1.5-.3,2.7-.5h0ZM704.2,464c0-.3,0-.4-.2-.4s-.3.2-.3.5c0,.6.4.5.5,0h0ZM630.8,464.1c0-.3-.1-.5-.3-.5s-.3.2-.3.5.1.5.3.5.3-.2.3-.5ZM599.3,464c0-.3,0-.4-.2-.4s-.3.2-.3.5c0,.6.4.5.5,0h0ZM586.3,464.1c0-.3-.1-.5-.3-.5s-.3.2-.3.5.1.5.3.5.3-.2.3-.5ZM471.8,464.2c.6-.5.7-1.1.2-1.1s-1.2.7-1.1,1.2c.1.5.3.5.9,0ZM419.1,465c.1-.2-.2-.8-.4-.8s-.2.2-.2.5c0,.4.3.6.6.4h0ZM690.7,466.2c.1-.4,0-.6-.4-.6s-.5.4-.3.7c.3.4.5.4.6,0ZM677,465.7c-.3-.3-.8,0-.8.3s.2.3.3.4c.4,0,.7-.4.5-.7h0ZM428.3,466c0-.4,0-.4-.5-.4s-.9.2-.7.7c.2.5,1.1.3,1.2-.3h0ZM698.7,466.8c.2-.4-.2-.8-.5-.5-.2.2,0,.8.2.8s.2-.1.3-.3h0ZM675.8,466.8c.2-.4-.2-.8-.5-.5-.2.2,0,.8.2.8s.2-.1.3-.3h0ZM506.9,466.8c0-.5.2-.9.6-1.2.6-.6.7-1.2.2-1.2s-.7.4-1.1.8c-.9.9-1,1.6-.5,2.1.4.4.7.3.8-.5h0ZM485.4,466.5c1.1-1.1,1.1-1.1.8-1.5-.3-.3-1.9-1.3-2.1-1.3s-.2.2-.3.4c-.2.3-.1.5.2.9.2.3.4.6.4.7s-.2.4-.4.6c-.3.4-.4.6-.2.9.1.2.3.4.4.4s.6-.5,1.3-1.1h0ZM403.3,467.8c.5-.5.4-1.2-.1-1-.1,0-.4.1-.5.1-.4,0-.5.5-.3,1,.2.5.4.5.9,0h0ZM672.8,468.1c0-.4,0-.6-.3-.6-.3,0-.5.5-.3,1,.2.5.6.2.6-.4h0ZM593.1,468.1c-.3-.5-.9-.8-1.2-.5-.3.3,0,.8.6,1.1.7.3.9,0,.6-.6h0ZM470.9,468.7c.1-.4-.2-.8-.5-.5-.2.2,0,.8.2.8s.2-.1.3-.3h0ZM543.3,469.2c0-.5-.2-.6-.5-.5-.4.2-.3.8.1.8s.4-.1.4-.4h0ZM483.9,469.9c0-.1,0-.3,0-.4-.2-.2-.9.2-.7.5.1.2.6.2.8,0h0ZM551.3,470.2c.1-.3.4-.7.7-.9.5-.5.6-1.2.2-1.2s-2.2,2-2.2,2.4.2.3.6.3.6-.1.8-.5h0ZM464.3,470.4c0-.3-.5-.5-.8-.3-.1.1-.1.3,0,.4.2.3.7.2.8-.1ZM462.3,470.9c0-.4-.7-.4-.8,0,0,.3,0,.3.4.3.2,0,.4-.2.4-.4h0ZM419.8,471c0-.4-.6-.6-.8-.3,0,.1-.1.3,0,.4.2.3.8.2.8-.1h0ZM744.5,471.4c-.2-.3-.5-.2-.5.1s.1.2.3.2c.2,0,.2-.2.2-.3ZM722,471.5c.4-.5.3-1-.3-1s-1,.2-1,.8,0,.5.4.5.6-.2.8-.4h0ZM500.5,471.7c.2-.2.2-.3,0-.5-.4-.3-.6-.2-.6.3s.2.6.6.2h0ZM478.3,471.5c0-.5-.1-.6-.5-.3-.3.2-.1.8.3.8s.3-.2.3-.5h0ZM441.4,471.6c0-.2,0-.4-.2-.5-.3-.2-.6.2-.5.6.2.4.7.4.7,0h0ZM548.5,471.9c.6-.5.2-.9-.8-.9s-.9,0-.9.5c0,.6,1,.9,1.6.4h0ZM624.2,472.2c0-.3-.1-.4-.5-.4s-.6.4-.3.6c.3.3.8.1.8-.2h0ZM533.3,472.5c.2-.2,0-.6-.5-.6s-.4.1-.4.4c0,.4.5.5.8.3ZM423.1,472.1c.4-.6.3-1-.4-1s-.9.7-.6,1.2c.2.5.6.4,1-.2ZM674.6,472.6c.1,0,.2-.2.1-.4,0-.6-1.2-.6-1.3,0,0,.4.3.7.7.6.1,0,.3,0,.4,0h0ZM504.4,473c0,0,0-.3,0-.4-.2-.3-.8,0-.8.3s.7.4.8.1h0ZM343.9,472.9c0-.4-.6-.6-.8-.3,0,.1-.1.4,0,.4.1.2.9,0,.9-.1h0ZM690.2,473.4c0-.1,0-.2-.4-.2-.5,0-.8.2-.5.5.2.2.9,0,1-.2ZM535.3,473.1c0-.6-.4-.9-.8-.5-.3.2-.3.8-.1,1,.3.3.9,0,1-.5h0ZM394.6,473.6c0-.8-.2-1.2-.7-1-.2.1-.4.4-.4.8,0,.8.1.9.6.9.3,0,.4-.2.5-.7h0ZM720.8,475c.5-.2.4-1-.2-1.2-.5-.2-1-.1-1,.2s.7,1.2.8,1.2.2,0,.4-.1h0ZM708,474.8c0-.1,0-.4,0-.5-.2-.3-.7,0-.7.4s.5.5.7,0h0ZM441.5,474.8c0-.1.3-.3.5-.3.6,0,.6-.8,0-.9-.5,0-1.5.8-1.4,1.2.1.4.6.4.8,0h0ZM722.2,475.2c0-.2-.2-.4-.3-.4s-.3.2-.3.4c0,.3,0,.4.3.4s.4-.1.3-.4ZM692.6,475.5c.2-.2,0-.6-.5-.6s-.4.1-.4.4c0,.4.5.5.8.3ZM596.3,475.3c0-.5-.2-.6-.5-.5-.4.2-.3.8.1.8s.4-.1.4-.4h0ZM395,475.2c0-.2-.1-.4-.2-.4s-.2.2-.2.4c0,.3,0,.4.2.4s.3-.1.2-.4ZM703.7,476.1c.2-.4-.2-.8-.5-.5-.2.2,0,.8.2.8s.2-.1.3-.3h0ZM575.9,475.9c0-.1,0-.3-.2-.4-.3-.2-.6.3-.3.6.2.3.5.1.5-.2h0ZM673.3,476.7c.2-.4-.2-.8-.5-.5-.2.2,0,.8.2.8s.2-.1.3-.3h0ZM441.4,476.6c0-.2,0-.4-.1-.5-.3-.2-.7.2-.5.5.2.4.7.4.7,0h0ZM506.2,476.5c2.9-.7,4.5-.9,4.9-.4.3.4.5.4.7-.1.3-.9,2-1.3,4.1-.9.8.1,1.5.2,1.6.2s.4-.4.6-.7c.3-.6.6-.7,3.1-1.5,1.8-.6,3-.9,3.7-.9s1,0,1-.2.4-.4.9-.6c1.3-.6,7.9-2.9,9.1-3.1s1.1-.3,1.4-.6c.6-.5,1.3-.9,2.2-.9s.7-.1.9-.3c.3-.4,2.4-1.4,2.9-1.4s.6-.2,1-.4c.4-.2.9-.4,1.5-.4s.9,0,.9-.2c0-.4.9-1,2.5-1.8.9-.4,2.1-1.1,2.7-1.5.9-.6,1.1-.7,1.1-.4s0,.3.2,0c.2-.4,0-.8-.6-.8s-.3,0-.3.1c0,.1-8.7,3.2-10.7,3.8-.6.1-1.5.4-2.1.6-.6.2-1.4.3-1.8.3-.4,0-1.2.2-1.8.5-.6.3-1.5.5-2.3.6-.9,0-1.4.2-1.8.5-.6.5-3.2,1.4-8.8,3.3-5.9,1.9-10.7,3.6-13.9,5-1.6.7-3.2,1.3-3.6,1.3-.4,0-1,.3-1.3.6-.3.2-.7.5-.8.5s-.2,0-.3.2c-.2.3.3.2,3.1-.5h0ZM566.2,476.8c0-.3,0-.5-.4-.6-.9-.4-1.4.2-.8.9.4.4,1.1.3,1.2-.2ZM601.3,477.2c0-.2,0-.4-.2-.5-.3-.2-.7.2-.5.5.2.4.7.4.7,0h0ZM576.6,477.1c0-.2,0-.4-.3-.4-.3,0-.4,0-.4.4s0,.5.3.4c.2,0,.4-.2.4-.4ZM553.7,477.3c.5-.6-.5-1.6-1.1-1.2-.3.2-.2.8.2,1.1.5.4.6.4.9,0ZM540.8,477.1c0-.2,0-.3-.3-.3s-.4.1-.4.4c0,.5.6.4.7,0h0ZM532.2,477.3c.3-.2.4-.2.9,0,.8.4,1.2.4,1.8-.2.4-.4.5-.7.5-1.3,0-1-.6-1.2-.9-.3-.3.8-.7.8-1,0-.3-.9-.9-.7-1.2.4,0,.3-.3.6-.5.7-.4.2-.5,1-.1,1,.1,0,.4-.1.6-.3h0ZM439,477.8c0-.5-.2-.6-.5-.4-.4.3-.3.7.1.7s.4-.1.4-.4h0ZM430.9,478c.2-.2,0-.6-.5-.6s-.4.1-.4.4c0,.4.5.5.8.3ZM566.1,478.4c0-.3-.7-.2-.8,0,0,.2,0,.2.4.2.2,0,.4-.1.4-.2h0ZM543.6,478.8c.7-.3,0-2.1-.8-2-.5,0-.6,1.3-.2,1.8.3.3.5.4.9.2h0ZM607.3,478.7c-.4-.2-.8.1-.5.5.2.2.3.2.5,0,.3-.3.3-.3,0-.5h0ZM475.3,479.1c.1-.3-.7-1.2-1.1-1.2s-.2.7.2,1.1c.5.5.7.5.9.1ZM458.5,479.1c.2-.4-.2-.8-.5-.5s-.1.8.2.8.2-.1.3-.3h0ZM453.8,479.2c.1-.4,0-.7-.3-.7s-.5.3-.4.7c.1.3.6.4.7,0h0ZM545.7,479.6c0-.2,0-.3-.3-.3-.4,0-.7.3-.5.6.2.3.7.1.8-.2ZM464.3,479.7c.3-.5,0-1-.5-1s-.8.6-.5,1.1c.3.4.7.4.9,0h0ZM417.9,479.7c0-.5-.2-.6-.5-.5-.4.2-.3.8.1.8s.4-.1.4-.4ZM609.7,480c.1-.1.2-.5.2-.8,0-.6-.3-.7-1-.3-.3.2-.5.9-.2,1.2s.7.1,1-.1h0ZM705.4,480.6c.3-.2.1-.9-.4-1.2-.5-.3-.9-.1-.9.4s.7,1.1,1.3.7ZM561.6,480.3c0-.3,0-.5-.3-.5-.7-.2-1.3.7-.7.9.5.2,1,0,1-.4h0ZM708.3,480.9c.8-.7,0-1.4-1.1-1.1-.5.1-.6.6-.2,1.1.4.4.8.4,1.2,0ZM640.8,481.1c0-.1,0-.3-.1-.5-.1-.2-.2-.2-.5,0-.2.2-.2.3,0,.5.2.3.6.3.7,0h0ZM535.1,480.9c0-.3-.1-.4-.5-.5-.5,0-.9.2-.7.6.2.5,1.2.3,1.2-.2h0ZM492,480.7c-.3-.3-.5-.3-.7,0-.1.4.3.7.6.4.2-.1.2-.3,0-.5ZM447.4,481.1c.3-.3.3-1,0-1.2-.4-.2-.8,0-1,.6-.2.4-.2.5,0,.7.4.2.8.2,1.1,0h0ZM369.8,480.9c0-.4-.5-.5-.7-.2-.1.2-.1.3,0,.5.2.3.7.1.7-.2h0ZM679.1,481.4c0-.1-.2-.3-.3-.3-.5,0-.6.2-.4.5.2.3.7.1.7-.2ZM443.1,481.7c.2-.2.2-.3,0-.4-.3-.2-.8,0-.6.4.1.4.3.4.6,0h0ZM395,482.3c.3-.3.3-.9,0-1-.4-.2-.9.5-.6.9.2.4.4.4.7.1h0ZM495.8,482.7c0-.2-.1-.4-.4-.4s-.4.1-.4.4.1.4.4.4.4-.1.4-.4ZM485.2,482.7c0-.5-.6-.4-.7,0,0,.2,0,.3.3.3s.4-.1.4-.4ZM487.8,483.2c.1-.3.4-.5.8-.5.7,0,1.1-.6.7-.9-.3-.2-1.5-.2-2,0-.7.3-.8,2,0,2s.5-.2.6-.5h0ZM594.9,483.5c.1-.3-.2-.9-.6-.9s-.7.7-.5,1c.2.3,1,.2,1.2-.1h0ZM462.9,483.5c.2-.5-.3-.8-.6-.4-.3.3-.3.4,0,.5.4.2.6.2.7-.1h0ZM563.6,484.1c.2-.2.2-.3-.2-.5-.4-.2-.7,0-.5.5.1.4.4.4.7,0h0ZM513.5,484.8c.2-.1.6-.3.8-.4.4-.1.5-.3.5-.8s-.2-.7-1.5-.8c-1.2,0-1.3.2-.8,1.3.5,1,.5,1,.9.7h0ZM577.8,484.4c-.2-.3-.7-.2-.8.1-.2.5.4.7.6.3.1-.2.2-.4.1-.5h0ZM569,484.6c0-.2,0-.4-.1-.4s-.2,0-.2.2,0,.3-.1.5c0,.2,0,.3.1.2.2,0,.3-.3.3-.5ZM543.3,484.4c0-.6-.6-1.3-1-1.3s-1.1.6-1,1.1c.2.5,1.2,1,1.7.8.2-.1.3-.4.3-.6ZM735,485.2c0-.1,0-.2-.2-.2s-.2.1-.2.3,0,.2.2.2c.1,0,.2-.2.2-.3h0ZM484.8,485.6c0-.2-.1-.5-.3-.6-.2-.2-.4-.2-.6,0-.3.3-.3.4,0,.8.2.4.3.5.6.3.2-.1.4-.4.4-.6ZM685.7,486.7c.3-.3.3-.9-.1-1.1-.5-.3-1.2-.2-1.5,0-.3.3-.3,1,0,1.2.5.2,1.4.1,1.6-.1h0ZM490.6,486.7c.2-.2.2-.2,0-.5-.5-.4-.5-.4-1,0-.7.5.3,1,1,.5h0ZM400.6,486.5c0-.1-.1-.3-.3-.3-.3,0-.5.3-.2.6.2.2.5,0,.5-.3h0ZM370.3,486.6c.1-.4,0-.5-.6-.5s-.7.1-.6.5c0,.2.3.3.6.3s.5-.1.6-.3ZM695.5,487.4c.3-.3.3-.5-.2-.7-.6-.3-1.2,0-.9.6.2.4.8.5,1.1.1ZM474,487.1c0-.2-.1-.4-.3-.4-.3,0-.4.6-.2.8.2.2.5,0,.5-.5h0ZM689.4,487.8c0-.2-.2-.4-.3-.4-.2,0-.3,0-.3.4s0,.5.3.4c.2,0,.3-.2.3-.4ZM487.4,487.9c.6-1.2.2-1.6-.8-.7-.5.5-.7,1-.3,1.4.3.3.6.2,1-.7ZM344.4,488.4c0-.2,0-.4-.1-.5-.3-.2-.7.2-.5.5.2.4.7.4.7,0h0ZM649.7,488c2.1-2.1,4.2-5.8,6.9-12.2,1.4-3.2,3.9-10.4,3.9-11s.2-1.4.5-2.6c.6-3,.9-5.7.9-8.9s-.4-6.8-.8-8q-.2-.5-.2,0c-.1,3.4-.9,11.2-1.3,12.2,0,.2-.3.4-.5.4-.4.1-.4.1,0,.5.3.3.4.5.4,1.1s0,.9-.6,1.4c-.6.5-.6.5-.2.8.3.2.4.3.3,1.1-.3,1.9-2.1,6.1-3,7-.3.3-.5.7-.5,1s-.6,2.2-1.4,4.2c-.8,2-1.9,4.8-2.4,6.1-.5,1.4-1.3,3.2-1.8,4.1-1.7,3.2-1.9,3.8-1.6,3.8s.7-.5,1.3-1.2h0ZM565.4,489c0-.1-.2-.3-.3-.3-.3,0-.5.3-.2.6s.5,0,.5-.3h0ZM654.4,489.3c0-.4,0-.6-.4-.6s-.6.5-.4,1c.2.5.8.2.8-.4ZM543.8,488.7c0-1,0-1.2-.6-1.8-.6-.7-1.1-.9-1.4-.5,0,.1.2.5.6.9.6.7.7.8.6,1.4,0,.4,0,.8,0,1,.4.5.6.2.7-1ZM499.4,489.6c0-.2,0-.3-.2-.4-.4-.1-.7.2-.6.5.2.3.6.2.7,0ZM574.7,490.1c0-.2-.1-.4-.3-.4-.5,0-.6.2-.5.5.2.4.8.3.8-.1h0ZM504.3,489.9c-.1-.1-.3-.1-.5,0-.3.1-.3.2,0,.4.2.2.3.2.5,0,.2-.1.2-.3,0-.4ZM483.4,490c0-.6-.7-1.4-1.2-1.3-.5,0-.6.6,0,1.3.5.7,1.2.7,1.3,0h0ZM385.1,490.3c0-.2-.1-.5-.4-.7-.9-.8-2.1,0-1.4.8.5.5,1.7.5,1.8,0h0ZM464.1,491.1c.3-.2.1-.8-.2-.8s-.5.3-.4.7c.1.3.3.3.7.1ZM504.7,492.1c.8-.4.9-.5.7-.8-.4-.8-2.5-.4-2.5.5s.5.9.8.8c0,0,.5-.2,1-.5h0ZM706.9,492.9c.9-.8.6-1.4-.6-1.2-.9.1-1.2.7-.7,1.2.4.5.8.5,1.3,0h0ZM604.9,492.9c.1-.4,0-.6-.4-.6s-.3,0-.4.2c-.2.3,0,.8.4.8s.3-.1.4-.3h0ZM570.9,492.9c.2-.4-.2-.8-.5-.5-.2.2,0,.8.2.8s.2-.1.3-.3h0ZM386.8,493c0-.1,0-.2,0-.2s-.2,0-.2.2,0,.2,0,.2.1,0,.2-.2ZM335.1,492.9c.2-.4-.2-.8-.5-.5-.2.2,0,.8.2.8s.2-.1.3-.3h0ZM580.2,493.4c0-.2,0-.4-.2-.5-.3-.2-.7.2-.5.5.2.4.7.4.7,0h0ZM698.2,493.9c.2-.4,0-1.1-.3-1.8-.1-.2-.2-.5-.3-.7-.2-.8-1.4,0-1.4,1s1.3,1.9,1.7,1.9.3-.2.4-.4h0ZM687.1,494.2c.2-.2,0-.6-.3-.6s-.5.3-.4.6c.1.2.5.3.7,0ZM550.3,494c.6-.5.6-.9,0-.7-.6.2-1.1.6-.9.9.2.3.5.2,1-.2h0ZM500.6,494c.1-.3-.5-.5-.7-.2,0,.1-.1.3,0,.4.1.2.7,0,.8-.2ZM646.2,494.7c.2-.3-.2-.7-.5-.4-.2.2,0,.6.2.6s.2,0,.3-.2ZM546.9,494.5c0-.4-.5-.5-.7-.2-.2.3,0,.6.4.6s.3-.2.3-.4h0ZM442.5,494.6c0-.1,0-.3-.2-.4-.3-.2-.6.2-.5.5.2.3.7.2.7,0h0ZM556,494.8c.2-.3.2-.4,0-.6-.4-.3-1,0-1,.4s.8.6,1.2.2h0ZM515.1,495.2c.4-.4.5-1.2.1-1.5-.1-.1-.3-.6-.3-1,0-.7-.2-.8-.7-.9-1.2-.1-2,1.8-.8,2.1.4,0,.5.2.5.7,0,.3,0,.7.1.8.1.3.7.3,1.1,0h0ZM466.4,495c.3-.7.6-1.3.8-1.3.3-.2.2-.7-.2-.7s-1.7,1.3-1.8,1.9c-.1.5.1,1.4.4,1.4s.5-.6.8-1.2ZM517.6,496.2c.6-.5.2-.9-.8-.9s-.9,0-.9.5c0,.6,1,.9,1.6.4h0ZM682.2,496.1c0-.5,0-.6-.5-.6s-.5.1-.5.5c0,.5.3.8.7.7.2,0,.3-.3.3-.6h0ZM430.2,496.5c-.1-.5-.7-.5-.7,0s.1.4.4.4.4-.1.3-.3h0ZM485.5,496.8c.3-.2.3-.3.2-.6-.2-.5-.8-.5-1.1,0-.2.3-.2.4.1.6.4.3.4.3.9,0h0ZM669.2,497.2c0-.1,0-.3,0-.4-.2-.2-.8.2-.7.5.1.2.6.2.8,0ZM664.2,497c0-.1,0-.3-.2-.3-.3-.1-.7.2-.6.5.2.3.8.2.8-.2h0ZM713.7,497.8c.2-.3-.3-.5-.6-.4-.1,0-.2.2-.2.4,0,.3.7.4.9,0h0ZM586.3,497.4c-.3-.3-.7,0-.5.5.1.3.2.3.4,0,.2-.2.3-.4,0-.5h0ZM680.8,498.4c.2-.2.2-.3,0-.5-.3-.2-.6-.2-.6,0,0,0,0,.3,0,.4,0,.4.3.4.6,0h0ZM332.1,498.4c.2-.4-.2-.8-.5-.5-.2.2,0,.8.2.8s.2-.1.3-.3h0ZM314.8,498.4c.3-.3.3-.4,0-.7-.2-.3-.5-.4-1.3-.5-.5,0-1.1,0-1.2.1-.3.3.2.8.8.8s.6.1.8.3c.3.4.5.4.9,0h0ZM525.3,498c2.1-.3,4.7-.6,5.7-.8,1-.2,2.1-.2,2.5-.2.5,0,.8,0,.9-.1,0-.1.4-.4.7-.5.7-.4,3.4-1.1,4.1-1.1s.8-.2,1.2-.4c.3-.2,4.1-1.5,8.3-2.9s9-3,10.6-3.6c1.6-.6,3.1-1,3.3-1,.2,0,.6,0,.9-.4.3-.2,1.5-.8,2.6-1.3,1.2-.5,2.2-.9,2.2-1,.2-.3-1.5-.1-3.7.4-4.9,1.2-9.9,2.7-20,6-6,1.9-7.3,2.2-7.5,1.5,0-.2-.2-.4-.3-.5-.2-.1-.1-.1,0-.1s.2,0,.1-.2c0-.1-.2-.2-.3-.1-.3,0-.3.7-.1.8.2.1.2.5,0,.5s-.3.2-.5.4c-.3.4-3.2,1.3-6.8,2.3-.7.2-2.3.7-3.4,1-1.1.4-2.6.8-3.2,1-2,.5-3.6,1.4-1.8,1,.4,0,2.5-.4,4.6-.7h0ZM519.7,498.7c0-.1,0-.2-.3-.2s-.4,0-.4.2.1.2.3.2.3,0,.4-.2ZM480.1,498.5c0,0,.1-.3,0-.5-.2-.5-1.7-.3-1.8.1-.1.6,1.2.8,1.7.3h0ZM427.7,498.2c0-.5-1.1-.5-1.2-.1-.2.5.4.9.9.6.2-.1.3-.3.3-.5h0ZM651.9,499.1c.1-.2-.2-.8-.5-.8s-.4.6-.3.8c.1.2.6.2.8,0h0ZM349.4,498.9c0-.2-.1-.4-.4-.4s-.4.1-.4.4.1.4.4.4.4-.1.4-.4ZM690.4,498.7c.1,0,.3-.1.3-.3.1-.4-.7-1.2-1.2-1.2-.6,0-1.3.8-1.3,1.4s.4.9,1.3.4c.4-.2.8-.4.9-.4h0ZM493,499.3c.1-.1.2-.4.1-.6-.1-.5-1.1-.4-1.1.1-.1.6.6.9,1,.5h0ZM517.1,499.9c0-.1,0-.4,0-.6,0-.3-.3-.4-.8-.4-1,0-1.3-.2-1.3-.6s-.1-.4-.3-.5c-.2,0-.3-.4-.3-.8,0-.7-.4-1.1-.8-.9-.3.2-.2,1.6.1,1.9.2.2.3.6.3.9s.1.7.3.8c.4.2,2.6.3,2.8,0h0ZM696.9,500.4c.3-.3.3-.5-.2-.6-.4-.1-.7.1-.5.5.1.3.3.4.7,0ZM530.9,500.4c.2-.4-.1-.7-.5-.6-.4.1-.4.3,0,.6.3.3.5.3.6,0ZM635.1,500.1c0-.5-1.1-.5-1.2-.1-.2.5.4.9.9.6.2-.1.3-.3.3-.5ZM574.1,500.8c0-.2,0-.3-.3-.3-.5,0-.6.2-.5.5.1.4.7.2.8-.2h0ZM328.5,500.8c0-.2,0-.3-.4-.3s-.6.3-.4.6c.2.2.7,0,.8-.3h0ZM518.6,501.6c.2-.3-.2-.7-.5-.5-.4.2-.4.7,0,.7s.4,0,.5-.1h0ZM540.4,501.8c.6-.2.7-1,0-1.3-.3-.2-.5-.1-.9.1-.7.4-.9.8-.5,1.2.4.3.7.3,1.3,0h0ZM330.5,501.9c.6-.2,0-1.4-.8-1.4s-.3,1.1,0,1.3c.4.2.3.2.7,0ZM335.3,501.8c0-.6-.8-1.2-1.2-.8-.4.3-.4.5,0,1,.4.5,1.1.4,1.2-.2h0ZM304,502c.4-.4.4-.9,0-.9s-1.3.9-1.1,1.1c.2.3.7.2,1.2-.2h0ZM437.6,502.7c0-.2-.1-.4-.4-.5-.3-.1-.6-.4-.7-.7-.1-.3-.4-.5-.9-.6-.4,0-.9-.2-1.1-.3-.4-.2-.9,0-.9.4s.8.9,1.2.9.8.3,1.1.6c.7.6,1.5.7,1.6.1h0ZM295.7,502.4c0,0-.3,0-.5,0-.3.1-.4.2-.2.4.2.2.3.2.5,0s.2-.4.2-.4ZM550,503.4c.1-.4-.2-.6-.6-.5-.3.1-.3.1-.1.5.2.4.6.4.7,0h0ZM701.2,503.2c0-.5-.5-.6-.7-.2-.1.4.3,1,.5.7,0-.1.2-.3.1-.5h0ZM559.8,504.8c.1-.3-.5-1.2-.9-1.2s-.3.6.1,1.1c.5.5.6.5.8.2h0ZM298.2,504c0-.3-.3-.5-.5-.6-.8-.3-1,.5-.3,1.2.4.4.5.4.7.2s.2-.5.1-.8ZM519.4,504.9c0-.3,0-.5-.4-.6-.6-.2-.7-.1-.7.6s0,.6.5.5c.4,0,.5-.2.6-.5h0ZM490.2,504.9c0-.3,0-.5-.3-.6-.5-.2-.6-.1-.6.6s0,.5.4.5c.3,0,.5-.2.5-.5ZM448.5,506.2c0,0-.2,0-.4,0-.1,0-.1.1.1.1s.3,0,.2-.1h0ZM534.6,506.4c0-.2-.1-.4-.4-.4s-.4.1-.4.4.1.4.4.4.4-.1.4-.4ZM302.4,506.4c0-.2-.1-.4-.4-.4s-.4.1-.4.4.1.4.4.4.4-.1.4-.4ZM446.3,507c.2,0,.4-.2.4-.3,0-.2-.8,0-1,.2-.2.2,0,.2.6,0ZM493.9,506.5c0-.6,0-.9-.4-1-.5-.2-.9,0-1.1.4s.6,1.5,1.1,1.5.4-.1.4-.9h0ZM538.8,507.3c.2-.3,0-.7-.8-1-.9-.4-1.2-.4-1.2,0,0,.7,1.7,1.5,2,1ZM456.9,507.1c0-.4-.3-.4-.7-.1-.2.2-.2.2,0,.4.4.2.6.1.7-.2h0ZM435.2,507.2c.1-.2.5-.3,1-.3,1,0,1.4-.1,1.4-.6,0-.6-1.5-.8-2.5-.2-.4.3-.6.3-1,.1-.3-.1-.6-.2-.7-.2-.3,0-.2.6.2,1.1.5.5,1.1.6,1.5.1h0ZM301.1,507.2c0-.1,0-.4,0-.5-.2-.4-.6,0-.5.5.1.4.4.4.6,0h0ZM471.9,507.3c0-.4-.6-.9-1-.7-.3.2-.2,1.2,0,1.3.4.1.9-.2.9-.6h0ZM304.4,508.9c0-.1-.1-.3-.1-.4,0-.2-.5,0-.7.1-.2.4,0,.7.5.6.2,0,.4-.2.3-.4h0ZM557.5,509.6c0,0-.1-.2-.3-.4-.2-.2-.3-.1-.5,0-.2.2-.2.3,0,.5.3.2.8,0,.8-.2h0ZM525.2,509.3c-.1-.3-.2-.3-.5,0-.3.3-.3.4,0,.5.4.2.7,0,.5-.5ZM468,509.8c0-.4-.1-.5-.4-.5-.3,0-.5,0-.5.2-.2.5,0,.9.5.8.3,0,.4-.2.4-.5h0ZM459.9,510.1c0-.1-.2-.2-.4-.2s-.4.1-.4.2c0,.1.1.2.4.2s.5,0,.4-.2ZM416.8,509.9c0-.8-.8-1.2-1.3-.6-.2.2-.2.4.1.7.5.5,1.2.5,1.2,0h0ZM699,510.1c0-.3-.5-.4-.9-.3-.3.1-.3.1,0,.4.4.3.9.2.9-.1h0ZM458,509.5c0-.3-.2-.5-.4-.4-.3,0-.4.8-.2,1.2.1.3.1.3.4,0s.3-.5.2-.8h0ZM444.6,511.8c.2-.5.6-.6.9-.3.2.3.9.2.9,0s-1-1.3-1.3-1.3-1.6,1.1-1.6,1.5c0,.7.9.8,1.1.1h0ZM546.8,512c0-.2,0-.4-.2-.4-.2,0-.5.5-.3.7.2.3.5,0,.5-.3h0ZM475.2,512.2c.2-.4-.2-.8-.5-.5-.2.2,0,.8.2.8s.2-.1.3-.3h0ZM438.8,512.3c.1-.2,0-.7-.4-.9-.4-.1-.9.4-.8.7.1.3,1,.4,1.2.1h0ZM702.6,512.5c0-.2-.1-.3-.4-.2-.6,0-.7.5,0,.5s.5-.1.5-.3ZM688.2,512.8c.1-.3-.3-.8-.5-.5-.2.2,0,.8.3.8s.2-.1.3-.3h0ZM536.4,512.7c.1-.3-.5-.5-.8-.2-.2.2-.2.3,0,.4.3.2.6.2.7-.2h0ZM511.7,512.4c-.2-.2-.8,0-.8.2s.6.4.8.2c.1,0,.1-.2,0-.4h0ZM709.3,513c-.1-.2-.6-.2-.8,0-.2.3.3.6.6.3.1-.1.2-.3.1-.4ZM540.5,513.5c.5-.2.4-1.4-.1-2.1-.5-.6-.8-.6-1.7.4-.6.6-.6,1.2,0,1.2.2,0,.5.1.7.3.4.3.7.3,1.1.2h0ZM512.3,513.6c-.2-.3-.7-.2-.7,0s.1.3.2.5.3.2.4,0c0-.2.1-.4,0-.5ZM515.4,514.4c0-.3,0-.4-.3-.4s-.4.1-.4.3c0,.7.6.8.7,0h0ZM479.1,513.8c-.3-.5-.7-.5-1,0-.2.3-.1.5.1.8.3.4.3.4.7,0,.3-.3.3-.4.1-.8ZM489.5,515.2c.2-.4-.2-.8-.5-.5-.2.2,0,.8.2.8s.2-.1.3-.3h0ZM483.4,515.3c.2-.3,0-.8-.4-.8s-.5.3-.4.7c.1.3.6.4.8,0h0ZM698.2,515.7c.1-.3-.5-.5-.8-.2-.2.2-.2.3,0,.4.3.2.6.2.7-.2h0ZM511.8,515.8c.1-.3-.5-.5-.8-.3-.1.1-.1.3,0,.4.2.3.7.2.8-.1h0ZM362.4,515.8c.1-.3-.5-.5-.7-.3-.1.1-.1.3,0,.4.2.3.7.2.8-.1h0ZM577.2,516.3c0-.2-.1-.4-.3-.4-.5,0-.6.2-.5.5.2.4.8.3.8-.1h0ZM563.6,517.1c.3-.6.2-2.6,0-2.9-.4-.3-.6-.1-.7.6v.6c-.1,0-.7-.3-.7-.3-.8-.4-1.1-.2-1.1.6s.8,1.8,1.7,1.8.8,0,.9-.4h0ZM440.7,517.5c0-.2-.1-.4-.3-.4-.3,0-.6.4-.4.8.2.3.7,0,.7-.3h0ZM460.4,519c.1-.4,0-.7-.4-.7s-.3.2-.3.3c0,.6.4.8.6.3h0ZM428.1,518.3c-.3-.2-.7-.5-.8-.5-.5,0-.3.7.2,1.1.5.4.5.4.8,0,.3-.3.2-.3-.2-.8h0ZM474,519.6c.5-.6-.3-1.7-1-1.3-.3.2-.2.9.2,1.2.4.4.5.4.8,0h0ZM462.9,520.2c0,0,0-.3-.1-.5-.2-.2-.2-.2-.5,0-.2.2-.2.4-.2.5.2.2.7.2.8,0h0ZM561.7,520.9c1.1-1.1.5-1.9-.7-1-.6.5-.9,1-.8,1.4.2.5.7.3,1.5-.4h0ZM701.2,522.1c.2-.4-.2-.8-.5-.5-.2.2,0,.8.2.8s.2-.1.3-.3h0ZM251.8,522.1c.2-.4-.2-.8-.5-.5-.2.2,0,.8.2.8s.2-.1.3-.3ZM427.2,522.3c.3-1.1-.4-1.9-.8-1-.2.6-.2.5,0,1.1.2.6.6.5.8-.2h0ZM661.7,523.4c.2-.2,0-.7-.3-.7s-.5.3-.4.6c.1.2.5.3.7,0ZM615.2,522.8c-.3-.3-.3-.3-.4,0-.2.6,0,.9.4.5s.3-.3,0-.6h0ZM684.4,523.5c.4-.7.4-1.2-.2-1.4-.4-.1-1,.2-1.4.7-.3.4-.3.5.1.9.6.6,1,.5,1.5-.2h0ZM428.4,524c.1-.3-.3-.8-.6-.6-.1,0-.2.3-.2.5,0,.4.7.5.8,0h0ZM543,524.2c.4-.4.3-.7-.4-.8s-1,.4-.5.8c.4.4.5.4.9,0h0ZM625.8,525.1c0-.2-.2-.4-.4-.5-.3-.2-.4-.1-.6.2-.3.5-.2.7.5.7s.5,0,.5-.3h0ZM418.6,525.3c.2-.3-.2-.7-.5-.5-.4.2-.4.7,0,.7s.4,0,.5-.2ZM516,525.7c0-.2-.2-.3-.3-.3s-.3.2-.3.3c0,.2,0,.3.3.3s.4,0,.3-.3ZM492.8,525.6c.2-.3.1-.5,0-.7-.4-.4-.9-.2-.9.4,0,.8.6,1,1,.3h0ZM558.7,527.3s0-.2.1-.4c0-.2,0-.3-.4-.3s-.7.3-.4.6.6.2.6,0h0ZM568.5,527.5c0-.2-.1-.4-.4-.4s-.4.1-.4.4.1.4.4.4.4-.1.4-.4ZM411.1,527.5c0-.5-.4-.7-.6-.4-.3.4-.2.7.2.7s.4-.1.4-.4ZM558.2,528.3c.2-.3-.6-.6-.8-.3-.1.1-.2.3,0,.4.2.2.8.2.9,0h0ZM534.9,528.6l.4-.4-.5-.5c-.6-.6-.8-.6-1.2-.1-.5.5-.5.7,0,1.2.4.5.9.4,1.4,0ZM345.1,529.1c0-.6-.7-.9-1.5-.7-.6.1-.7.7-.1.7s.5.1.6.3c.4.5,1,.3,1-.3ZM494.4,529.3c0-.2-.2-.3-.4-.3-.4,0-.5.5-.1.6.3.1.5,0,.5-.3h0ZM566.2,531.2c0-.3-.6-.4-.8-.2,0,0-.1.3,0,.5,0,.2.2.3.5,0,.2-.1.4-.3.4-.4h0ZM551.8,531.3c0-.2,0-.3-.2-.4-.3-.2-.6.3-.3.6.2.3.5.2.5-.2h0ZM679.1,532.5c0-.2,0-.3-.4-.3-.5,0-.5,0-.4.5.2.4.7.3.8-.1h0ZM554.3,532.6c.1-.3,0-.5-.5-.5s-.5.4-.2.6c.2.2.6.1.7-.1h0ZM290,532.4c0-.6-1-1.2-1.5-1-.6.2-.5.6.2,1.1.7.6,1.4.5,1.3-.1h0ZM429,533.1c.1-.3-.5-.5-.7-.2,0,.1-.1.3,0,.4.1.2.7,0,.8-.2h0ZM529.6,533.7c0-.5-.7-.5-.7,0s0,.4.1.5c.2.2.7,0,.6-.4h0ZM644.4,534.5c.2-.2.1-.3,0-.5-.4-.3-.8,0-.6.5.1.4.4.4.7,0h0ZM663,535c0-.2-.1-.4-.4-.4s-.4.1-.4.4.1.4.4.4.4-.1.4-.4ZM275.2,535.2c.2-.5-.3-.8-.8-.6-.4.2-.6.5-.3.8s1,.1,1.1-.2ZM549.3,536.4c.2-.4-.2-.8-.5-.5-.2.2,0,.8.2.8s.2-.1.3-.3h0ZM456.9,536.4c0,0,0-.3-.1-.5-.2-.2-.2-.2-.5,0s-.3.4,0,.5c.3.2.6.2.7-.1h0ZM689.2,537.5c.2-.4.2-.5-.2-.5s-.3.2-.3.4c0,.5.3.5.5,0ZM427.2,538.6c2.1-.2,10.4-2.4,15.4-4,1.3-.4,2.5-.8,2.7-.8s.7-.2,1.1-.5c.8-.5,7.2-3.2,9.7-4,1.1-.4,1.8-.5,2.2-.4.4,0,.9,0,1.2,0,2.8-.9,4.5-1.3,9.5-2.4,7.8-1.7,8.3-1.7,8.8-1.4.4.2.5.2.9-.2.4-.4,4.2-1.6,5-1.6s1.3-.5,2.4-1c4.6-2.2,6.4-3.2,5.9-3.1-.3,0-1.2.2-2.1.3-.8,0-2.4.4-3.4.6-3.7.8-8.5,1.5-9.5,1.5-.5,0-1.1,0-1.4.2-.2.1-1.5.4-2.9.6s-3.1.6-3.9.9c-1,.3-1.9.5-2.7.5-.9,0-1.2,0-1.3.3-.1.3-3.8,1.7-4.6,1.7s-.6-.2-.7-.4c-.3-.5-.6-.3-.6.3s-.8,1.1-1.7,1.1c-.4,0-.8.1-1,.3-.2.1-1.7.8-3.5,1.4-1.8.6-5.3,1.9-7.9,2.8-2.6.9-8.2,2.8-12.5,4.3-9,3.1-8.4,2.8-8.4,3.2s.2.2.6.2c.3,0,1.5-.2,2.6-.3h0ZM633.3,538.7c0-.3-.1-.5-.4-.5-.4-.1-.8.2-.8.7s.2.3.6.3.6,0,.6-.5h0ZM470.4,538.8c0-.2,0-.4-.2-.5-.2-.2-.6.4-.5.7.2.3.7.2.7-.2h0ZM463.5,538.9c.2-.4-.2-.8-.5-.5-.2.2,0,.8.2.8s.2-.1.3-.3ZM572.8,539.5c.2-.2.3-.9.1-1.4-.2-.4-1.8-1.1-2-.9,0,0-.1.5-.1.9,0,.6.2.8.8,1.2.9.5.9.5,1.2.2h0ZM507.9,539.7c.2-.2.2-.3,0-.6-.5-.6-1.4-.2-1.1.6,0,.2.3.3.5.3s.5-.1.6-.3ZM356.7,540.1c0-.4-.5-1.1-.9-1.1s-1,.7-1,1,.2.5,1,.4c.6,0,.8-.2.8-.4h0ZM298,540c0-.5-.3-.6-.5-.3-.2.3,0,.8.3.8s.2-.2.2-.5h0ZM393.8,541.2c0-.2,0-.3-.3-.3-.4,0-.7.3-.5.6.2.3.7.1.8-.2ZM340.6,542c.3-.3.3-.9,0-1-.4-.2-.7.2-.6.8.1.5.3.6.6.3h0ZM382.8,542.5c.1-.3-.5-.5-.8-.3-.1.1-.1.3,0,.4.2.3.7.2.8-.1h0ZM668.3,542.8c.4-.2.5-1.1,0-1.3-.3-.1-1.2.5-1.2.8,0,.2.4.7.6.7s.3,0,.5-.2h0ZM498,542.6c.2-.5,0-.6-.9-.6s-1.1.2-.8.6c.1.3.4.4.8.4s.7-.1.9-.4ZM611.5,542.9c.6-.7.4-1.3-.3-1.4-.5,0-.7,0-.8.5-.5,1.2.4,1.9,1.1.9h0ZM357.4,543.3c.1-.4,0-.7-.4-.7s-.5.3-.4.7c.1.4.6.3.8,0h0ZM590.8,543.8c0-.3-.5-.5-.7-.3-.1.1-.1.3,0,.4.2.3.7.2.8-.1h0ZM569.2,544.1c0-.5-.8-1.6-1.2-1.5-.4.1-.3,1.1,0,1.6.5.6,1,.5,1.1-.1h0ZM544.9,544.3c0-.3-.8-.5-1.1-.2s0,.6.6.6c.3,0,.5-.2.5-.3h0ZM491.3,544.3c0-.3-.3-.4-.7-.2-.2.2-.2.2,0,.4.4.2.7.2.7-.2ZM376.1,544.3c.4-.3.5-.5.3-.8-.2-.5-.7-.5-1.3,0-.3.2-.6.4-.7.4s-.3,0-.3.2c-.4.7,1.3.8,2.1.2h0ZM480.4,544.7c0-.6-.4-.9-.8-.5-.4.3-.4.9,0,1,.5.2.8,0,.9-.5ZM344.5,545.1c.2-.3-.2-.6-.7-.5-.3,0-.4.2-.2.4.3.3.7.3.9,0h0ZM681.9,545.8c-.1-.3-.5-.4-.5,0s.1.3.3.3.3,0,.2-.2h0ZM559.9,545.7c.1-.4,0-.7-.4-.7s-.3.2-.3.3c0,.6.4.8.6.3h0ZM540.6,545.7c.3-.5,0-.6-.9-.6s-1.2.2-.8.7c.3.4,1.5.4,1.7,0h0ZM351.6,547.2c.5-.3.2-.9-.4-.9-.3,0-.9-.2-1.3-.3-.7-.3-.7-.3-1.3.1-.6.5-.7.9-.3,1.1.4.2,3,.3,3.3,0h0ZM608,548.8c.1-.3-.3-.7-.5-.5,0,0-.2.3-.2.5,0,.5.5.5.7,0ZM381.5,548.2c0-1.1-.2-1.3-.9-.8-.7.5-.7.8-.2,1.3.6.7.9.5,1-.5ZM327.1,548.8c.2-.4-.2-.8-.5-.5-.2.2,0,.8.2.8s.2-.1.3-.3ZM252.8,549.2c.3-.3.4-.6.3-.8-.1-.3-.2-.3-.7,0-.7.3-.8.6-.7,1,.1.4.6.3,1.1-.2h0ZM386.5,549.8c0-.6-1-1.1-1.3-.8-.2.2-.1.3.2.7.6.6,1.2.7,1.1,0h0ZM454.9,550.7c.3-.8,0-1.5-.6-1-.3.3-.4.8,0,1.1s.5.3.6,0h0ZM380.9,550.7c.1-.4,0-.7-.4-.7s-.5.4-.3.7c.3.4.5.3.6,0h0ZM614.2,551.1c0-.5-.5-.5-.6,0,0,.3,0,.4.3.4.2,0,.3-.2.3-.5h0ZM546.4,551c.2-.7-.7-2.7-1.2-2.6-.2,0-.3.3-.4.7,0,.4-.1.8-.2.8-.3.3-.2,1,.2,1.3.6.4,1.3.3,1.5-.3h0ZM578.5,551.8c.1-.3-.5-.5-.7-.2,0,.1-.1.3,0,.4.1.2.7,0,.8-.2h0ZM558.5,551.5c.6-.7.2-1.6-.7-1.5-.5,0-.8.8-.7,1.6,0,.4.2.5.5.4.2,0,.6-.3.8-.5h0ZM651.7,553c0-.3-.1-.4-.5-.4-.5,0-.8.2-.7.6.2.5,1.1.3,1.1-.2ZM459.2,553.7c0-.4-.4-.7-.6-.5-.3.3-.1.8.3.8s.4-.1.4-.4ZM471.7,554.9c0-.3-.6-.5-.8-.2,0,.1,0,.3,0,.5.2.3.7.1.7-.2ZM491.4,556.2c0-.2-.1-.4-.4-.4s-.4.1-.4.4.1.4.4.4.4-.1.4-.4ZM447.2,557.8c.4-.4.4-.5.1-.7-.4-.3-1.2-.1-1.4.3-.3.8.5,1.1,1.2.4h0ZM597.7,558c0-.1-.2-.3-.3-.3-.5,0-.6.2-.4.5.2.3.7.1.7-.2h0ZM488.9,559.5c.2-.4-.4-.9-.9-.8-.4.1-.5.7-.3.9.2.2,1,.1,1.1-.2h0ZM459.9,559.3c0-.2-.1-.4-.3-.4-.4,0-.7.5-.3.7.4.2.6.1.6-.3h0ZM427.2,560c0,0-.1-.2-.3-.4-.3-.3-.6,0-.4.5.1.3.7.2.7,0ZM579.8,560.5c0-.1-.2-.2-.4-.2-.3,0-.4,0-.4.2s.1.3.4.2c.2,0,.4-.2.4-.2ZM467.4,560.4c0-.2-.1-.3-.4-.2-.6,0-.7.5,0,.5s.5,0,.5-.3h0ZM416.8,560.5c0-.3-.6-.4-.8-.2-.2.2-.2.3,0,.4.3.2.8,0,.8-.2h0ZM389.1,561.7c0-.1,0-.2-.2-.2s-.2,0-.2.2,0,.2.2.2.2,0,.2-.2ZM607.5,561.7c0-.3-.5-.5-.8-.3-.1.1-.1.3,0,.4.2.3.7.2.8-.1h0ZM653.2,563c0-.2,0-.4-.2-.5-.3-.2-.7.2-.5.5.2.4.7.4.7,0ZM494.4,563.1c.2-.4-.2-.7-.5-.4-.2.3-.1.7.2.7s.2-.1.3-.3ZM641.3,564.2c0-.2-.2-.4-.3-.4-.3,0-.5.5-.2.8s.5,0,.5-.4ZM492.5,564.6c.3-.2.1-.8-.2-.8s-.5.3-.4.7c.1.3.2.4.6.1ZM471,564.2c0-.4-.5-.5-.7-.2-.1.2.3.8.5.7,0,0,.2-.3.2-.5h0ZM442.5,564.3c.1-.6-1.1-1.5-1.6-1.1-.4.3-.3.5.3,1,.6.5,1.2.6,1.3,0ZM429.6,564.2c0-.5-.7-.5-.7,0s0,.4.1.5c.2.2.7,0,.6-.4h0ZM409.4,564.7c0-.6-.3-.9-.9-.9s-.8.5-.3,1c.5.5,1.2.5,1.2,0h0ZM571,564.2c0-.4-.5-1-.9-1-.6,0-.8,1.6-.2,2,.2.2,1.1-.6,1.1-1h0ZM567.3,565.7c0,0,0-.3,0-.5-.2-.4-.7,0-.6.3.1.3.4.4.6.1h0ZM524.4,565.6c3.1-.4,8.7-1.4,13.3-2.5,2.1-.5,4.2-.9,4.6-1,.5,0,1.2-.3,1.6-.5.4-.2,1.2-.4,1.7-.5s1.2-.2,1.4-.4c.7-.3,4.2-1.2,5-1.3.4,0,.7,0,.8,0s.3,0,.4-.3c.2-.2,1.4-.8,3.2-1.4,5.1-1.8,5.7-2,6.5-2.6.4-.3,1.7-1,2.8-1.6,1.1-.6,3.6-2.1,5.6-3.3,2-1.2,3.7-2.2,3.8-2.2s.4-.2.7-.5c.3-.2,2.6-1.9,5.1-3.8,9-6.4,19.4-14.5,24.5-19.1,1.3-1.2,3-2.7,3.6-3.2.7-.6,1.5-1.4,1.8-1.8.6-.8,1.7-1.6,2.2-1.6s.3-.2.4-.5c0-.3.5-.9.9-1.4.4-.5,1.5-1.8,2.4-2.8s2.4-3,3.5-4.2,1.8-2.3,1.8-2.4-.6.4-1.3,1.1c-3.4,3.3-7.1,6.8-8.3,7.8-.7.6-1.7,1.5-2.2,2-.5.5-1.2,1.1-1.7,1.3-.4.2-1,.7-1.2,1-.6.9-3,3-6.7,5.7-1.5,1.2-3.4,2.6-4.2,3.3-1.8,1.6-2.9,2.3-3.3,2.2-.2,0-.3,0-.4.3,0,.7-5.1,4.4-5.8,4.4s-.6,0-.6.2c0,.3-1.2,1.4-3.5,3.1-2.2,1.6-3.3,2.3-4.4,2.5-.9.2-1.3.5-1.7,1.3-.4.9-3.7,3.2-9.4,6.6-3.5,2-3.5,2.1-10.2,4.6-5.4,2.1-15.9,5.1-17.5,5.1s-.7,0-.8.2c-.2.3-2.8,1-3.5.9-.5,0-.8,0-1,.2-.4.4-4.8,1.5-5.5,1.4-.3,0-.7,0-.9.2-.8.5-3.2.9-6.7,1-3.1.1-3.5.2-3.8.5s-.5.4-.6.5c-.5.2.1,1.1.8,1.3,1,.3,3.8.2,6.4,0h0ZM490.8,565.6c.1-.3-.5-.5-.8-.3-.1.1-.1.3,0,.4.2.3.7.2.8-.1h0ZM411.1,567.3c.2-.5-.2-1.1-.5-.9-.2.2-.3,1.1,0,1.3.2.2.5,0,.6-.4h0ZM649.3,568.7c.5-.5.1-1.9-.5-1.9s-1.4.7-1.4,1,.8,1.1,1.2,1.1.5,0,.6-.2h0ZM627.2,568.7c.3-.4,0-1.1-.4-1-.7,0-.6,1.3,0,1.3,0,0,.2-.1.3-.3h0ZM598.8,568.5c0-.2,0-.3-.2-.3-.3,0-.6.3-.4.6.2.3.5.1.6-.3ZM551.9,568.6c.3-.8-.5-1.3-.9-.6-.1.2-.1.4,0,.6.3.4.7.4.9,0ZM578.4,570.7c0-.1,0-.3-.1-.5-.2-.2-.3-.2-.5,0-.2.2-.2.4-.1.5.2.3.6.3.8,0h0ZM570.9,570.4c0-.2,0-.4-.2-.4-.2,0-.5.5-.3.7.2.3.5,0,.5-.3h0ZM506.3,570.8c0-.5,0-.6-.5-.6s-.5.1-.5.3c-.1.6.1.9.6.9.3,0,.4-.2.4-.6h0ZM449.4,571.4c-.2-.3-.6-.2-.8.1-.2.4.4.7.6.3.1-.2.2-.4.1-.5h0ZM577,575.2c.4-.5,0-.9-.5-.8-.6,0-.8.7-.4.9.4.2.7.2.9-.1h0ZM631.5,575.6c0-.1,0-.3-.1-.5-.2-.3-.3-.3-.5,0-.1.2-.2.4-.1.5.1.2.6.2.8,0h0ZM563.7,576.2c.1-.2-.4-.7-.6-.5-.3.2-.2.7.2.7s.4,0,.5-.2h0ZM630.2,576c0-.4-.2-.5-.5-.1-.2.2-.2.3,0,.5.3.3.5.1.5-.3h0ZM509.9,576.2c0-.5,0-.8-.5-1.4-.3-.4-.6-.8-.6-.9,0-.4-.4-.7-.9-.7s-.7.4,0,1.5c.3.5.6,1.1.6,1.1s.2.4.4.7c.5.7,1,.6,1.1-.3h0ZM579.1,576.7c0-.3-.5-.5-.7-.3,0,.1,0,.3,0,.5.1.3.7.2.7-.2h0ZM535.5,577c.8-.4.3-3-.6-3s-1.9.8-1.9,1.1c0,.4.1.6,1.1,1.4.9.8.9.8,1.4.5h0ZM476.4,576.9c.3-.3,0-.7-.5-.7s-.6.3-.5.7c.1.3.7.4,1,0h0ZM453.7,577.6s0-.2.1-.4c0-.2,0-.3-.4-.3s-.7.3-.4.6c.1.1.6.2.6,0h0ZM537,577.9c0-.4-.4-.7-.6-.5-.3.3,0,.8.3.8s.4-.1.4-.4h0ZM597.7,578.6c0-.4-.6-.6-.8-.3-.2.3,0,.6.4.6s.4-.1.4-.3h0ZM514.2,581.2c0,0,.4-.2.7-.3.6-.1.7-.6.2-1-.2-.2-.5,0-1,.3-.4.3-.7.7-.7.8,0,.3.7.4.8.1h0ZM476,581.2c.2,0,.6-.2,1-.3.7-.1.9-.4.5-.8-.4-.4-1-.3-1.7.3-1,.7-.9,1.4.2.9h0ZM516.8,581.4c0-.3.2-.5.6-.5.7-.1.7-.6.2-.9s-1.7.6-1.7,1.4,0,.5.4.5c.3,0,.5-.2.5-.5h0ZM515.4,582.4c.2-.4-.2-.8-.5-.5-.2.2,0,.8.2.8s.2-.1.3-.3h0ZM509.2,581.9c.7-.7.9-1.3.4-1.3s-.5.3-1,.7c-.5.5-.7.8-.7,1,.2.5.5.4,1.3-.5h0ZM528.4,582.9c0-.3-.2-1.2-.4-1.2s-.2.2-.3.4c-.2.5,0,1.1.3,1.1s.3-.2.4-.4h0ZM511.3,583.6c0-.2-.7-.6-.8-.4-.3.3,0,.6.4.6s.5,0,.5-.2h0ZM474.1,583.6c.2-.3,0-1.1-.4-1.1s-.6.8-.4,1.1c0,.1.2.2.4.2s.3,0,.4-.2ZM590.2,584.6c0-.2,0-.2-.4-.2s-.5.1-.5.3c0,.4.8.3.9,0h0ZM562.9,589.8c.1-.3-.3-.7-.6-.5-.2.2,0,.8.3.8s.2-.1.3-.3h0ZM617.8,589.5c-.2-.7-.8-.2-.5.5.1.3.2.4.4.1.2-.2.2-.4.2-.6h0ZM488.4,590.3c0-.2-.1-.4-.4-.4-.5,0-.6.3-.3.7.4.4.6.2.6-.3ZM556.9,591.5c.2-.7-.5-1.3-1.1-1-.2.1-.4.3-.3.4,0,.5.6,1,1.2,1.1,0,0,.2-.2.3-.5h0ZM480.2,594.1c0-.5-1-.7-1.2-.2-.2.4.4.8.9.7.3,0,.4-.2.3-.5ZM543.2,596.2c.2-.3-.3-.8-.7-.8s-.8.6-.6.8c.2.2,1.2.1,1.3,0h0ZM485.2,596.2c.1-.2-.4-.8-.7-.7-.1,0-.2.3-.2.5,0,.4.6.5.8.2h0ZM528.3,597.2c0-.2-.1-.4-.3-.4s-.3.2-.3.4.1.4.3.4.3-.2.3-.4ZM621.3,597.4c.5-.4.3-.6-.4-.6s-.9.3-.6.7c.3.4.5.3.9,0ZM605.5,598.4c0-.2-.2-.4-.3-.4-.2,0-.3,0-.3.4s0,.5.3.4c.2,0,.3-.2.3-.4ZM578.3,598.7c.1-.1.2-.5.2-.8s.1-.7.3-.9c.2-.2.2-.4,0-.6-.4-.5-1-.2-1.5.9-.5.9-.5,1-.2,1.3.4.4.8.5,1.2.1h0ZM516,598.5c.1-.3.1-.5,0-.8-.3-.5-.6-.4-.7.2-.1.9.3,1.3.7.6h0ZM488.8,601.1c.2-.6-.3-.8-1.1-.5-.2,0-.2.2-.1.5.2.4,1,.5,1.2,0h0ZM467.7,601c-.1-.2-.2-.4-.3-.4s0,.2.1.4.2.4.3.4,0-.2-.1-.4ZM514.9,602.5c0-.6-.2-.8-.7-.7-.2,0-.3.3-.3.7s0,.5.5.5.5,0,.5-.6h0ZM491.4,604.6c0-.5-.3-.6-.6-.3s-.2.7.3.7.4-.1.4-.4ZM470.4,605.9c-.2-.7-1-2.4-1.6-3-.5-.6-.5-.5.2,1,.8,1.5,1.3,2.5,1.4,2.5s0-.2,0-.4h0ZM480.7,607.1c0-.4,0-.5-.7-.5s-.8.1-1,.3c-.3.5.1.7,1,.7.6,0,.7-.1.7-.5h0ZM474.7,609c0-.2,0-.3-.3-.3s-.4.1-.4.4c0,.5.6.4.7,0h0ZM527.4,608.8c0-.6.1-1.1.2-1.2.3-.3.2-.9,0-.9s-1.8,1.6-1.8,1.9c0,.5.8,1.3,1.2,1.3.3,0,.4-.2.5-1.1h0ZM529.4,610.6c-.3-.3-.3-.3-.4,0,0,.2,0,.5,0,.6.1.3.1.3.4,0s.3-.3,0-.6ZM512.9,611.2c.1-.3,0-.9-.3-.9s-.4.4-.3.8c.1.5.4.5.5,0h0ZM606.8,612.2c0-.4-.2-.5-.5-.4-.4.2-.3.6.1.6s.4-.1.4-.2h0ZM542.7,614c0-.4-.6-.5-.8-.2-.2.3,0,.6.5.6s.4-.1.4-.4ZM518.8,614.4c.8-.3.8-1.4,0-1.4s-1.2.8-.8,1.2c.3.3.4.3.8.2h0ZM494.4,615.4c.2-.4-.2-.7-.5-.4-.2.3-.1.7.2.7s.2-.1.3-.3ZM487.8,615.8c-.1-.4-.9-.4-.9,0s.2.3.5.3.5,0,.4-.2ZM601.8,617.6c0-.3,0-.4-.2-.4s-.3.2-.3.5c0,.6.4.5.5,0h0ZM537.7,621.4c0-.2-.2-.3-.4-.3-.4,0-.6.3-.3.6.2.2.7,0,.7-.3ZM514.8,622.8c0-.2,0-.4,0-.5-.3-.3-.9.3-.7.6.2.3.7.2.8,0h0ZM568.4,625.9c.3-.5-.7-1.3-1.5-1.2-1.4.1-1.3,1.3,0,1.5,1,.2,1.2.1,1.5-.3ZM561.6,627.1c0-.5-.8-.7-1.2-.4s0,.8.6.8.6,0,.5-.4ZM538.3,627.1c0-.4-.3-.6-.6-.3-.4.2-.1.8.3.7.2,0,.3-.2.3-.4h0ZM582.3,630.9c.1-.2.5-.3.8-.3.7,0,.8-.2.8-1.1s-.8-1.3-1.3-.7c-.1.2-.5.3-.8.4-.4,0-.6.2-.7.7-.2,1.1.4,1.8,1,1.1h0ZM505.3,634.4c.5,0,1.1-.6,1.1-1.2s-.7-1.1-1.2-1.1-1,.5-1,1.2-.1.7-.3.8c-.6.6-.1,1,.6.6.2-.2.6-.3.9-.3h0ZM487,635.1c0-.2,0-.3-.3-.3s-.4.1-.4.3c0,.6.6.6.7,0h0ZM505.6,639.5c0-.2-.5-.5-.7-.3,0,0,0,.2,0,.4.1.3.7.2.7-.1h0ZM500.5,640.3c.2-.1.2-.2,0-.4-.3-.3-.8,0-.7.3.1.3.2.4.6.1h0ZM504.3,641.3c0-.4-.6-1-1-1s-.4.7.1,1.1c.5.4.8.4.8-.1ZM583.9,642c.2-.2.2-.4,0-.7-.3-.5-1-.5-1.2,0-.5.9.7,1.6,1.2.7ZM508.1,642.1c.2-.2.1-.3-.2-.5-.4-.2-.7,0-.5.5.1.3.4.3.7,0h0ZM485.9,642.6c.1-.3-.5-.5-.7-.3s-.1.3,0,.4c.2.3.7.2.8-.1h0ZM501.8,645.6c0-.2-.1-.4-.4-.4-.4,0-.5.7-.1.8.3.1.5,0,.5-.4h0ZM519.7,647.8c.2-.3-.5-1.2-.9-1.2-.6,0-.6.4-.2.9.5.5.8.6,1,.3h0ZM492.7,647.6c.1-.3-.5-.5-.7-.3-.1.1-.1.3,0,.4.2.3.7.2.8-.1h0ZM579.1,648.1c0-.2-.4-.5-.5-.3-.1.1.1.5.3.5s.2,0,.2-.2ZM491.1,649.8c.5-.4.2-.9-.4-.9-.5,0-.8.7-.4.9.3.2.4.2.8,0h0ZM515.4,651.5c.2-.4-.7-1.3-1.1-1.1-.4.2-.4.4.2,1,.6.5.8.6,1,.2h0ZM520.7,687.1c.3-.1.4-.6,0-.8-.3-.2-1.1,0-1.1.4s.5.6,1,.4h0ZM617.9,692.5c0,0,0-.3-.1-.5-.2-.4-.7,0-.5.5.1.3.5.3.6,0h0ZM596.4,702.9c0-.3,0-.5-.3-.8-.5-.4-.7-.4-1,.1-.2.3-.1.4.2.7.6.5.9.5,1.1,0ZM658,705.4c.1-.3-.5-.5-.7-.2,0,.1-.1.3,0,.4.1.2.7,0,.8-.2h0ZM670.8,710.5c.3-.2.3-.3,0-.4-.4-.2-.7,0-.7.4s.2.3.7,0h0ZM503,714.3c.5-.3.5-.8-.1-.8s-.5-.1-.5-.3c0-.3-.2-.4-.5,0-.5.5-.1,1.3.5,1.3s.4,0,.6-.2h0ZM514.2,724.2c1.6-.3,3.3-.9,2.5-.8-.3,0-2.2.2-4.3.4-2,.2-4.2.4-4.7.4-1,.1-1,.1-.4.3,1,.2,5.4,0,6.9-.3ZM538.9,729.2c.2-.4-.2-.7-.6-.4-.2.2-.2.3,0,.4.3.2.5.2.6,0h0ZM564.7,732.4c.2-.2.2-.4-.2-.8-.6-.6-1.1-.5-1.1.2s.8,1.2,1.3.6h0ZM589.3,733.8c.5-.3.2-.9-.5-.9s-.6,0-.6.4c0,.3.2.7.6.7s.3,0,.5-.2h0ZM577.2,735.3c0-.2,0-.3-.3-.3s-.4.1-.4.4c0,.5.6.4.7,0h0ZM579.7,741.1c-1.2-1.4-2.3-2.3-4.3-3.3-2.1-1.1-3.8-1.8-5.3-2-.7,0-4.3-.3-8.1-.4-3.8-.1-7.5-.3-8.1-.4-1.1-.2-1.2-.1-1.9.3-.4.3-1.1.9-1.5,1.4-1.4,1.6-2.9,1.7-6.4.6-4.9-1.6-10.6-5.7-13.1-9.3-.5-.8-1.5-2-2.2-2.8l-1.3-1.4h-1c-.6,0-4.4.5-8.6,1-14,1.8-16.3,1.8-21.3.2-2.3-.7-4.2-.9-6-.6l-1.4.2-.6-.5c-.3-.3-.5-.4-.3-.2.4.5.1,1-.5.8-1-.2-1.4-1-.6-1.2.4,0,.4-.1,0-.5-.4-.5-.4-1.9,0-2.6.2-.3.5-.9.7-1.2.8-1.6,5.2-5.4,7.9-6.9,2.6-1.5,6.1-2.4,7.2-2,.5.2.7.2,1.1,0,.6-.4,2.7-.2,6.4.5,3.5.7,6,.9,7,.6.4-.1,1.2-.7,1.7-1.2l1-1v-1.9c0-2.2-.3-3.8-1.4-7.4-2.1-6.6-4.7-12-11.3-23.3-5-8.5-7.8-13.8-8.8-16.9-.6-1.9-.9-2.3-1.8-2.8-.5-.2-.9-.3-1-.3-.3.2-2.6-.6-2.9-1-.2-.2-.5-.4-.8-.5-.9-.2-2.3-1.3-4.4-3.5-4.4-4.6-11.5-13.2-12.4-15.1-.3-.6-.7-1.3-1-1.5-.7-.7-1.2-2.9-1.1-4.4.2-2.3,1.6-5.7,2.6-6.7.5-.4.5-.6.4-1.3,0-.4,0-1.9.2-3.2.4-2.7.3-4.1-.2-5-.4-.7-1-1.1-3.4-2.4-2.2-1.2-3.1-2.2-2.8-3.1,0-.2,0-.5-.1-.7-.1-.2-.3-.8-.4-1.4-.1-1.2-.9-2.8-1.8-4-.4-.5-.8-1.2-1-1.5-.3-.7-3.1-3.5-6-5.9-3.1-2.6-3.5-3.5-2-4.7.8-.7,1.6-.9,2.3-.5.7.4.8.4.8,0s.7-1.2,1.7-2l.7-.5-3.4-1.1c-1.9-.6-4.4-1.4-5.6-1.8-1.2-.4-2.8-.9-3.5-1.1-1.9-.5-10-3.2-11.4-3.9-.6-.3-1.4-.6-1.7-.7-1.9-.4-10.5-3.3-12.4-4.2-.4-.2-1.4-.5-2.2-.7-.8-.2-2.9-.9-4.5-1.5-1.7-.6-3.9-1.3-4.9-1.6-2.5-.8-9.7-3.2-10.4-3.6-.3-.2-1.2-.5-2.1-.7-3.2-.8-11.2-3.3-11.7-3.7-.2-.2-.5-.2-1-.2-.5,0-.8,0-1-.1-.2-.1-.5-.2-.8-.2-.8,0-5.6-.7-6.4-1-.4-.2-.9-.2-1.3-.2-1.3.2-2.4-.7-2.4-1.9s.8-1.7,1.7-2.2c.5-.2,3.3-1,6.2-1.8,3-.8,6.9-1.9,8.8-2.5s3.5-1.1,3.7-1.1.6-.2,1-.5c.7-.5.7-.5.5-1-.2-.5-.4-.6-.6-.3-.6.9-1.9,1.2-7.6,1.5-2.3.1-2.5,0-2.9-.2-.3-.3-.4-.3-.5-.1,0,.1-.2.2-.5.2s-.5,0-.7.2c-.5.3-4.6.3-5,0-.3-.2-.6-.1-1.2,0-2.4.8-30.9.3-46-.7-10.4-.8-13.4-1.5-14.2-3.4-.2-.6-.2-.7,0-1.4.4-.9,1.7-1.7,3.7-2.5,2.4-.9,9.7-3.4,11.5-3.8.9-.2,3.1-.9,5-1.5,5.6-1.9,30.8-9.5,34.6-10.6,1.5-.4,1.9-.5,2.3-.3.5.2.5.2.9-.3.2-.3.7-.6,1.1-.8,1.1-.4,7.5-2.4,9.4-2.8.9-.2,3.2-.9,5.1-1.5,4.3-1.4,11.9-3.7,16.1-4.9,1.7-.5,4.7-1.4,6.6-1.9,2.4-.7,3.5-1,3.7-.8.3.3.7.2.7,0s2-1.1,2.6-1c.5.1,1.5-.1,2.5-.7.4-.2.9-.4,1.1-.4s.7-.2,1-.4c.8-.5,4.4-1.5,5.2-1.5s.8-.1.9-.3c.1-.1,1.2-.6,2.3-.9,1.9-.5,2.2-.6,2.9-.4.8.2.8.2,1.5-.4.6-.6.8-.6,1.5-.6.8,0,2.3-.6,2.3-1s-.3-.2-2.8.4c-3.2.8-6.8,1.5-7.5,1.5s-1,.2-1.5.5-1.3.5-1.7.6c-.4,0-.8.2-1,.3-.3.2-6.1,1.7-8.7,2.3-.9.2-3.4.8-5.5,1.4-4.6,1.2-9.6,2.4-12.3,3-1.1.2-2.1.5-2.3.6-.2,0-1,.3-1.7.5-3.4.8-16.4,3.9-23.1,5.6-4.4,1.1-7.5,1.8-7.8,1.7-.3,0-.6,0-.6,0,0,0-.8.4-1.6.6-1.9.6-13.7,3.6-16.3,4.1-1.1.2-2.5.6-3.1.9-.6.3-1.5.5-2,.5-.5,0-1,.1-1.3.3-.5.3-3.2,1.1-5.6,1.6-1,.2-2,.5-2.4.6-.5.2-8,2.2-16.6,4.4-2.4.6-5.3,1.3-6.4,1.5-1.7.3-3.5.8-5.8,1.6-1.1.4-4.2,1.1-5.4,1.3-.7,0-1.6.3-2.1.5-.9.3-1.9.6-3.8,1.2-1.3.4-1.5.4-5,1.4-1.6.4-3.3.9-3.8,1-.5.1-2.3.6-4,1-6.5,1.7-12.7,3.2-13.6,3.4-.8,0-.9,0-1-.2-.1-.3-.1-.3-.4,0-.3.4-1.7.9-3.3,1.2-.6.1-2.9.4-5.1.6s-4.9.5-5.8.5c-4.9.5-5.6.6-6.1.3-.3-.2-.4-.2-.8,0-.2.2-.9.3-1.9.3-1.6,0-2.1-.2-2.4-1,0-.2-.2-.1-.5.2-.4.5-.6.5-1.9.6-2.2,0-9.6-.2-12.5-.5-6.6-.7-9.4-1.9-9.6-4.3-.1-1.1.4-2.1,1.6-3.2,1.6-1.4,6.1-3.5,9.6-4.4.9-.2,1.9-.5,2.2-.6.3-.1,1.5-.5,2.6-1,3.4-1.2,7.9-2.5,8.5-2.4.4,0,.7,0,.9-.3.4-.5,4.6-1.8,4.9-1.6.1.1.4,0,.8-.2.9-.5,3.6-1.3,13.1-3.7,16.9-4.4,26.5-6.9,31.1-8.3,1.8-.5,4.8-1.4,6.8-1.9,2-.5,4.6-1.3,5.9-1.7,3.3-1.1,7-2,7.6-1.9.4,0,.6,0,.9-.3.4-.4,7.1-2.4,9.4-2.8.6-.1,1.4-.3,1.8-.5s1.2-.4,2-.5c.7-.2,1.6-.4,2-.6s1.1-.3,1.5-.3,1-.2,1.4-.4,1.6-.6,2.8-1,3.5-1,5.3-1.5c1.8-.5,5.7-1.6,8.8-2.5,3.1-.9,7.7-2.2,10.3-2.9,3.5-1,4.9-1.3,5.4-1.2.5,0,.8,0,1.2-.3.7-.5,2.7-1.2,4.1-1.5.6-.1,1.5-.4,1.8-.5,1.8-.7,10.3-3.2,10.5-3.1.1,0,.5,0,.7-.2.6-.4,2.9-1.1,12.9-4.3,13.2-4.2,17.9-5.7,17.9-5.9s-.2-.1-.4,0c-3.6.8-15.5,3.8-18,4.5-1.1.3-2.3.6-2.5.6s-1,.2-1.6.5c-2,.8-4.9,1.5-5.4,1.3-.3-.2-.4-.1-.6.2-.2.3-1.2.6-4,1.4-2,.6-3.9,1-4,1-.2,0-.7,0-1,.2-2.3,1.2-21.4,6.5-24.1,6.7-.5,0-1.1.2-1.3.4-.5.4-10.1,2.8-11,2.8-.3,0-.8.1-1,.3-.3.2-.4.2-.8,0-.5-.3-.9-.2-1.3.2-.5.5-2,.9-12.4,3.6-6.9,1.8-9,2.3-9.3,2.1-.3-.1-.5,0-1.1.2-1.3.7-11.8,3.4-17.4,4.6-1.1.2-2.2.5-2.5.7-.3.1-1.8.6-3.4,1.1s-3.9,1.1-5,1.5c-1.1.4-2.2.6-2.4.6-.2,0-.7.2-1.2.4-.6.3-1.2.5-2,.5-.9,0-1.4.2-1.9.5-.4.3-1.3.6-2,.8s-2.4.7-3.8,1.2c-1.4.5-3,.9-3.6,1-.6,0-1.6.4-2.3.7-1.6.6-8.7,2.6-9.3,2.6s-.7.1-1.1.3c-2,.8-6.5.9-10.1.2-4.6-.9-9.1-2.7-10.5-4.2-1.1-1.1-1.1-2.7-.1-3.8,1.4-1.5,14.2-7.1,15.3-6.8.2,0,.5,0,.7-.2.6-.6,6.4-2.7,17.1-6.3,6.8-2.3,6.9-2.3,7.8-2.7.4-.2,1-.4,1.3-.4.4,0,1.2-.4,1.9-.7,5.5-2.3,30-11,31.1-11s.5.1.6.2c0,.2.2.2.4,0,2.4-1.6,5.3-2.6,6.8-2.5.9,0,1,0,1.8-.5.5-.4,1.1-.7,1.9-.9.6-.1,1.8-.5,2.7-.9.9-.4,3-1,4.7-1.5,1.7-.5,3.5-1,4-1.2,2.4-.8,10.9-3.6,13-4.2,1.3-.4,3-.9,3.6-1.1.6-.2,1.3-.4,1.5-.3.2,0,.6,0,1-.3,1-.5,4.3-1.6,6.6-2.3,1.5-.4,2-.5,2.4-.4.4.2.5.1,1.1-.3.4-.3,1.1-.6,1.7-.9,2.2-.8,6.2-2,6.8-2s.9-.2,1.2-.4c.7-.5,5.8-2.1,6.5-2.1s.9-.2,1.4-.5c1.3-.6,9.7-3.6,11-3.9.6-.1,1.4-.2,1.7-.1.9.2,1.5,0,1.8-.7.2-.4.6-.8,1.2-1.1,1-.5,5.1-2,6.4-2.3.4-.1,1-.4,1.4-.6.5-.3.9-.4,1.3-.3.4,0,.7,0,1-.4.4-.4.6-.5,1.1-.4.5,0,.6,0,.8-.3.1-.3.4-.4.9-.5.4,0,1.3-.4,1.9-.7.6-.3,2.2-1,3.6-1.6,3.1-1.3,7.5-3.4,7.5-3.6s-.5,0-1.2,0c-.6.1-1.6.2-2,.2-.5,0-1.4.1-2,.3-.6.2-2.3.6-3.7,1-1.4.4-3.2.8-4,1-.8.2-1.8.4-2.2.4s-.9,0-.9.2c0,.1-1.1.5-2.4,1-3.9,1.3-32.2,9.4-33,9.4-.5,0-1,.2-1.3.4-.3.2-.9.5-1.5.6-1.1.3-1.5.1-1.5-.7,0-.4-.1-.4-.3-.3-.2.1-.2.2,0,.4s.2.4.2.6c0,.3-.2.3-.9.3s-1,.1-1.1.2-.5.3-.8.5-1.4.5-2.4.9-2.2.7-2.6.8-1.5.4-2.2.6c-2,.8-5.9,1.9-6.3,1.8-.2,0-.4,0-.4,0,0,.3-1.1.7-8.5,2.8-6.1,1.7-10.5,2.9-16.7,4.2-.8.2-1.8.5-2.3.6-.5.2-1.7.3-2.7.4h-1.8c0,.1-.5-.5-.5-.5-.4-.4-.5-.8-.5-1.3,0-.7,0-.8,1.4-2.1.7-.7,3.9-2.4,7.3-3.7,2.2-.9,2.8-1.1,3.4-1,.6.1.7,0,.8-.4.1-.3.5-.6,1.2-.8,1-.4,14.1-4.9,15.9-5.5,3.4-1.1,13.6-5,26.2-10,4.2-1.7,8.2-3.2,8.9-3.4.7-.2,1.6-.6,2-.9,1.2-.8,3.5-1.6,4.2-1.5.5,0,.6,0,.7-.3.1-.4,1.2-1,2-1,.3,0,.9-.3,1.3-.5,1.2-.7,3.7-1.7,4.7-1.8.5,0,1.1-.3,1.4-.5.9-.8,9.5-4.1,10.5-4.1s.7-.2,1-.4c.3-.3.8-.4,1.5-.4s1,0,1.1-.4c.2-.6,2.7-1.7,3.9-1.7s.6-.1.7-.3c.3-.4,1.3-.8,8.7-3.5,8.7-3.2,9.3-3.3,9.3-2.3,0,.4,0,.4.5-.1.3-.3.5-.7.5-.8,0-.4,2.1-1.3,6.2-2.8,4.1-1.5,6.1-2.1,6.9-2,.4,0,.5,0,.6-.4,0-.3.4-.5.9-.7,2.8-1,14-5,22.4-7.8,8.6-2.9,9.8-3.3,10.2-3.1.3.2.5.2,1.2,0,.4-.1.8-.4.9-.5.2-.5,1.5-1,6.4-2.6,7.3-2.4,11.9-3.8,12.4-3.7.4,0,.7,0,1.1-.5.3-.3,1.1-.7,1.7-.9.6-.2,1.5-.5,2-.6.5-.2,4.2-1.5,8.4-2.9,5.8-2,7.6-2.5,7.9-2.4.3.1.5,0,.8-.2.4-.4,4.6-1.9,22.2-7.9,11.7-4,14.1-4.7,15.1-4.7s.7,0,.7-.2.2-.3.5-.4c.6-.3,4.4-1.4,5.7-1.6.5,0,3.3-1,6.2-2,4.5-1.5,5.3-1.8,5.7-1.6.3.2.4.1.9-.3.3-.3,1.9-1.2,3.5-2.1,1.7-.9,4.1-2.2,5.4-2.9,2.7-1.4,7.1-3.4,9.6-4.4.9-.4,1.8-.7,2-.9.2-.1,1.2-.6,2.3-1,2.8-1.1,6.7-3,8.3-4,2.4-1.6,5-4.2,6.1-6.1l.5-1v-10.1c0-5.6,0-10.3,0-10.6,0-.4-.2-.4-.5-.3-.2,0-1.3.3-2.5.5-1.5.3-2.2.3-2.5.2-.4-.2-.6-.1-.9.2-.3.4-.8.5-1.8.4-.2,0-.6,0-.8.2-.2.1-1.2.3-2,.5-.9.1-4.2.7-7.2,1.3-5.1,1-18.2,3.3-22.1,3.9-1.3.2-1.7.2-2,0-.3-.2-.4-.2-.6,0,0,.2-.4.3-.8.3s-1,.2-1.5.4c-1.1.5-2.4.7-3.1.4-.5-.2-.7-.1-1.3.2-1.1.5-2.3.8-9.1,2-3.2.6-12.2,2.2-19.9,3.5-7.7,1.4-17,3-20.6,3.6s-9.1,1.6-12,2.1c-7.4,1.3-18.3,3.2-19.2,3.4-.4,0-.8,0-1-.1-.2-.2-.4-.2-.7.2-.3.2-.9.5-1.6.6-2,.3-2.2.3-2.4-.4-.1-.6-.2-.6-1-.7-.9,0-1.2.2-.6.7s-.7,1.3-1.7,1.4c-.4,0-1.9.3-3.3.6-2.2.4-2.5.4-2.8.2-.2-.2-.3-.2-.7.1-.6.6-9.8,2.2-10.6,1.8-.5-.2-.6-.2-1.3.2-.8.5-3.2,1-4.9,1s-2.9,0-3.3.4c-.4.4-.6.4-.9,0-.2-.2-.3-.2-.8.2-.4.3-1.5.6-4.4,1.1-2.1.4-4.4.8-5.1.8-.7,0-1.6.2-1.9.4-.3.1-1.5.4-2.6.6-1.1.2-4.6.8-7.9,1.4-3.2.6-6.1,1-6.4,1-.3,0-.7,0-.8.2-.1.2-.4.2-.7.1-.3,0-.6,0-.7,0s-.7.2-1.3.3c-.6,0-3.5.6-6.4,1.2-8.9,1.8-12.5,2.3-12.9,2-.3-.2-.4-.2-.7,0-.2.2-.5.3-.8.3s-.8.1-1.3.3c-.4.2-2,.5-3.5.8-1.5.2-5.8,1-9.7,1.7-8.5,1.5-15.3,2.6-16.1,2.6s-1.1.2-1.8.4c-1.9.6-51.2,9.3-55.1,9.8-.9.1-1.9.3-2.3.4-1.2.4-9.2,1.7-10.1,1.7s-1.2.1-1.5.3c-.3.2-1.6.4-2.8.6s-2.6.4-3.2.6c-1.8.5-3.7.7-4.1.5-.3-.2-.4-.2-.5,0-.1.2-.4.3-.9.3-.4,0-1,.1-1.5.3-.8.3-1.9.5-3.9.7-.5,0-1.5.2-2.2.5-1.5.5-5.5,1.2-6.5,1.2s-1,0-1.2.2c-.5.2-.6.1-1-.4-.3-.4-.5-.6-.6-.5,0,0-.2.3-.4.6s-.5.5-.6.5-.4.1-.5.3c-.1.2-.6.3-1,.4s-1.2.2-1.7.3c-1,.3-2.1.2-2.6-.2-.2-.1-.5,0-1.1.3-1.1.7-2.7,1.2-3.3,1.1-.4,0-.5-.2-.5-.9,0-.6-.1-.8-.4-.9-.3,0-.3,0-.3.7,0,.7,0,.7-.4.7-.3,0-.4,0-.4.3s-.3.6-.7.6-.4-.3-.8-.6c-.4-.3-.7-.6-.7-.5s-.1.2-.2.5c-.5.9-1.6,1.4-4.6,2l-2.9.6-.5-.5c-.7-.7-1.5-.7-2.2.1-.3.3-.5.7-.5.8,0,.3-1,.5-1.2.3-.3-.3-.7-.2-1.1.2-.2.2-.9.4-2,.5-1.5.2-1.7.2-2-.1-.2-.2-.6-.4-.8-.4-.6,0-1.5.5-1.8.9-.1.2-.9.4-3,.8-2.8.4-2.8.4-3.1,0-.1-.2-.4-.4-.5-.4s-.4-.2-.7-.4c-.4-.3-.4-.5-.2-1.1.1-.4.3-.9.3-1.1.1-.5.6-.6.8-.1.1.2.3.2,1.3-.2.6-.2,2.3-.8,3.8-1.3,1.5-.5,2.8-.9,2.9-1,.2-.1.5-.2.8-.2.8,0,5.9-1.7,6.3-2.1.5-.5,2.3-1.2,3.1-1.2.6,0,.6,0,.6.3,0,.3,0,.4.8.3,1.3-.1,2.8-.9,2.9-1.4.1-.5,1.1-1.2,1.6-1.2s.4.1.5.3c.2.2.4.2,1,0,.4-.1.9-.3,1-.3s.6-.3.9-.6c.8-.8,7.3-2.9,9.3-3,.3,0,.6-.1.6-.2,0-.2.8-.6,1.3-.6s1-.3,1.9-.6c2.2-.8,8.6-2.7,11.1-3.3,1.1-.3,2.4-.7,2.7-.9.9-.5,10-3.2,10.6-3.2s1-.2,1.7-.6,1.8-.7,2.5-.9,2.4-.7,3.8-1.1c3.4-1.2,18-5.6,19.1-5.8.5,0,1-.2,1.2-.4.2-.1.5-.3.8-.2.2,0,.7-.2,1.1-.4,1.5-.8,6.3-2.1,6.9-2,.4,0,.7,0,.8-.2.3-.4,1.2-.8,3.1-1.4,1-.3,2-.5,2.4-.4.4,0,.6,0,.8-.3.1-.2.4-.4.6-.4s.7-.2,1.1-.4c.6-.3,1-.4,1.8-.3,1,.1,1.1,0,1.4-.4.4-.6,1.5-1,2.4-.8.6,0,.8,0,1-.4.3-.4.4-.5.9-.4.4,0,.8,0,1-.1.9-.6,9-3.2,10.6-3.5.4,0,1.1-.3,1.5-.5,1.7-.8,6.2-2.1,6.8-2,.4,0,.7,0,.9-.2.4-.4,5-1.9,5.9-1.9.4,0,.8-.1,1-.3.2-.2.5-.2,1-.2.5.1.8,0,1.6-.5,1.4-.9,11.8-4.2,13.1-4.2s1-.2,1.6-.6c2-1,21-6.9,22.1-6.9s.6-.1.8-.3c.3-.4,1.9-.9,2.8-.9s.8-.1,1-.3c.7-.6,10-3.4,11.2-3.4.6,0,.9,0,1.3-.4.5-.5,1.8-.9,3-.9s.8-.1,1-.4.9-.6,2-.9c.9-.2,2.4-.7,3.4-1,.9-.3,1.8-.6,2-.6s.6-.1.9-.3c.3-.1,2.9-1,5.9-1.9,3.8-1.2,5.7-1.7,6.7-1.8,1,0,1.5-.2,1.8-.5.5-.5,2.1-1.1,5.7-2.1,3.5-1.1,5.8-1.6,6.5-1.6s.8-.2,1.1-.4c.8-.5,3.4-1.5,5.5-2,.9-.2,2.9-.9,4.4-1.3,1.5-.5,4.6-1.4,6.9-2.1,2.4-.7,4.6-1.4,5.1-1.5.5-.2,3.2-1,6.1-1.9,2.9-.9,5.3-1.7,5.4-1.8.1-.1.1-.2,0-.2s-8.6-.9-18.9-2.1c-17.9-2-24.3-2.8-24.6-3,0,0-.3,0-.5,0-.2.1-.6.1-1.1,0-.4,0-1.9-.3-3.4-.4-3.5-.3-4.1-.4-4.1-1s-.2-.6-.9,0c-.5.4-.6.5-1.4.4-.5,0-1-.1-1.2-.1s-.6-.2-.8-.5c-.4-.4-.5-.4-.7-.2-.3.4-.9.4-7.6-.3-6.6-.7-7.9-.8-9-1.2-.6-.2-.9-.2-1.3,0-.4.1-1.2.1-2.9,0-1.3-.1-3.8-.4-5.5-.6-8.8-.8-12.2-1.3-12.9-1.7-.5-.3-.8-.4-.9-.2-.3.3-1.8.3-4.9,0-1.5-.2-2.8-.4-3.3-.6-.4-.2-.8-.3-1-.2-.4.3-1.9.2-6.3-.3-2.3-.3-5.4-.6-6.8-.8-1.5-.1-2.8-.3-3-.4-.4-.2-.4-.5,0-.8.2-.1.4-.4.4-.5s-.2-.1-.6.3c-.8.8-1.2.9-3.8.7-3.2-.2-5-.5-5.5-.8-.4-.2-.5-.2-.7,0-.5.4-5.1-.1-5.8-.7-.2-.2-.5-.2-1,0-1,.3-2.1,0-2.6-.5l-.4-.5-.5.4c-.5.3-.8.4-1.9.3-2.4-.2-5.8-.7-6.2-.9-.2-.1-.4-.1-.5,0-.1.2-2.8,0-3.4-.2-.2-.1-1.5-.3-2.9-.4-2.1-.1-6.1-.5-6.2-.5,0,0-.2-.2-.4-.4-.4-.4-.4-.4-.9,0-.5.3-.7.3-3.8,0-1.8-.2-3.7-.5-4.3-.6-.6-.2-1.3-.3-1.5-.3-1.2.1-2.3,0-2.8-.2-.3-.1-1.1-.2-1.9-.2-1.1,0-27.3-2.5-31.1-3-.8-.1-1.6-.3-1.8-.5-.3-.2-.5-.2-.7,0-.6.3-24.3-2.1-26.4-2.7-.4-.1-1.5-.2-2.4-.3-2.8,0-9.3-.7-27.2-2.6-5.3-.6-9.7-1-9.8-1s-.3-.2-.5-.4c-.3-.3-.5-.4-.7-.2-.5.3-1.6.2-2,0-.2-.2-.5-.2-.7-.1-.4.3-1.8.2-2.2,0-.3-.2-.4-.2-.8,0-.2.1-1.1.2-2,.2-1.9,0-2.7-.3-4-1.6-1.1-1-1.2-1.8-.5-2.4.4-.4.6-.4,1.7-.4,1,0,1.4.2,1.7.5.2.2.8.5,1.2.5.4,0,.8.2.8.2s.2-.2.3-.5c.2-.6.3-.6,1.1-.7.5,0,3.1-.1,5.7-.2,2.9-.1,7.6-.2,12-.1,4,0,7.8,0,8.3,0,1.2,0,2.8,0,4.9,0,.8,0,4.2,0,7.7,0,3.4,0,7.3,0,8.6,0,1.3,0,4.2,0,6.4-.1,5.7-.2,45.3-.2,46.6,0,.9.1,1.2.1,1.8-.1.4-.2,1.2-.3,2.1-.3.8,0,5.4,0,10.2,0,4.8,0,9.9,0,11.4,0,1.6,0,2.9,0,3.3,0,.5-.1,8.8-.2,11.3-.1.3,0,4.5,0,9.3-.2,8.8-.2,32-.5,51.9-.7h10.8c0-.1.2.4.2.4.4,1.1.4,1.1.5.6.2-1,.6-1.2,2.2-1.1.9,0,2.1,0,2.8,0,1.7-.2,3.8-.2,4.1,0,.2.1.4.1.8,0,.4-.2,1.7-.3,6-.2,4.9,0,5.5,0,6,.4.6.3.6.3,1.2,0,.9-.5,4.1-.7,10.1-.7,2.9,0,10.5,0,16.8-.1,9.2-.1,28-.2,29.5-.1.2,0,.7,0,1.2,0,.5,0,2.7-.2,4.9-.2h4c0-.1-1.3-.7-1.3-.7-.7-.3-2.7-1.1-4.4-1.8-6.2-2.4-15-6.1-15.4-6.5-.2-.2-.7-.4-1-.4-.8,0-5-1.8-5.3-2.2-.1-.3-.4-.4-1-.4-.4,0-1.7-.4-2.8-.9-13.7-5.6-25.8-10.6-26.6-11-.2-.1-.4-.4-.4-.5,0-.5-.2-.6-.6-.3-.3.2-.6.2-1.2,0-.9-.3-1.8-.7-2.1-1.1-.1-.1-.7-.4-1.3-.5-1.3-.3-7-2.6-8-3.2-.4-.2-1.2-.8-1.7-1.4-1.5-1.3-1.8-1.4-2.4-.9l-.5.5-1.3-.4c-.7-.2-2.1-.9-3.2-1.4-1.1-.5-2.1-.9-2.2-.9-.3,0-1-.3-2-.9-.1,0-.9-.4-1.7-.6-.8-.2-3.1-1.1-5.1-1.9s-5.9-2.4-8.6-3.5c-5.8-2.3-8-3.3-8.5-3.7-.2-.2-.7-.3-1.1-.3s-1.3-.3-2-.7c-1-.5-1.3-.8-1.5-1.3-.2-.5-.4-.6-.7-.6s-.5,0-.6.2c0,.1-.3.2-.6.2-.6,0-5.4-1.9-7.1-2.8-.7-.4-1.5-.7-1.6-.6-.4,0-3.5-1.2-5.6-2.2-.7-.4-2-.9-2.8-1.2-2-.7-12.6-5-15-6.1-1-.5-3-1.3-4.4-1.8-3.1-1.1-12.6-4.9-13.9-5.6-.5-.3-1.2-.7-1.5-1-.4-.3-.6-.4-.9-.4-1,.3-5.1-1.3-5.7-2.1-.2-.4-.4-.4-.7-.2-.3.2-.5.1-.8-.1-.2-.2-.6-.4-1-.5-1.2-.2-3.8-1.3-4.3-1.9-.4-.4-.7-.5-1.1-.4-.4,0-1.2-.2-2.4-.7-1-.4-1.9-.8-2-.8-.3,0-10.5-4.2-11.5-4.7-.5-.2-2-.9-3.3-1.3-3.5-1.3-16.4-6.5-17.9-7.2-.9-.4-1.3-.7-1.3-1.1,0-.4-.1-.4-.4-.1-.4.4-.6.4-2.8-.4-2-.8-2.4-1.1-2.1-1.8.3-.6,0-.6-2.1-.6-1.8,0-1.9,0-2.4-.5-.3-.3-.7-.5-1.3-.5-.5,0-1.1-.2-1.5-.4-.6-.3-.7-.4-.6-1q0-.6-.3-.3c-.2.2-.6.4-1,.3-.6,0-5.3-1.8-8.7-3.3-1-.4-2.4-1-3.1-1.2-1.4-.5-2.4-1.1-2.4-1.6s-.1-.2-.4-.1c-.2,0-.6.1-.9.1-.5,0-3.6-1.2-4.8-1.8-1.4-.8-2.1-1-3.3-1.3-2.5-.6-3.3-1.2-3.1-2.2,0-.4-.7-.4-1.3-.1-.5.3-.6.3-1.9-.2-.7-.3-1.6-.6-1.9-.9-.4-.2-1.6-.7-2.6-1.1-2.5-.9-8.2-3.3-10-4.3-.8-.4-1.6-.8-1.9-.8s-1.1-.3-1.9-.7-1.5-.7-1.7-.7c-.6,0-1.1-.7-1.1-1.3s-.6-1.3-.9-1c0,.1-.3.2-.5.2s-.5.2-.6.4c-.3.4-.3.4-1.3.2-1.4-.4-2.6-.9-2.8-1.2-.2-.4.7-2,1.3-2.4.3-.2.6-.6.8-1l.3-.7h1.4c1.5.1,2.7.5,5,1.8.9.5,1.7.8,2.9.9,1.7.3,2.6.5,4.6,1.1.7.2,1.3.4,1.5.4.1,0,.7.1,1.2.3.5.2,1.4.4,2,.6s1.4.4,1.9.5c.5.1,1.5.4,2.4.7.8.2,1.9.5,2.5.7s1.5.4,2.1.6c.6.2,1.6.4,2.1.6.5.2,1.5.4,2.1.6.6.2,1.5.5,2.1.7.5.2,1.2.4,1.5.4s.7.1,1,.3.7.3,1,.3c.3,0,.8.1,1,.3.3.1.7.3,1.1.3.3,0,.8.1,1.1.3.3.2.7.3.8.3s.8.2,1.5.4c.7.2,1.7.5,2.3.7s1.4.4,1.9.6c.5.1,1,.3,1.1.3s.6.2,1,.5c.5.4.8.4,1.2.4.3,0,.7,0,1.1.2.3.2.9.3,1.2.3.7,0,2.2.4,3,.9.3.1.7.3,1,.3s.6.1.8.3.6.3.9.3,1.2.2,2,.4,1.9.5,2.5.7c.6.2,1.5.4,2,.5s1.6.4,2.4.7,1.9.5,2.5.7c.6.2,1.4.4,1.9.6s1,.3,1.3.3.7.1,1.1.3c.4.2.9.3,1.1.3s.8.2,1.1.5,1,.5,1.3.5c.9,0,2.4.4,4.3,1.1.9.3,1.9.6,2.2.7.4,0,.6.2.6.4s.2.3,1.1.3c1.6,0,3,.3,3.4.8.2.3.5.4,1.2.4,1,0,3.7.7,6.6,1.5,3.9,1.1,4.8,1.4,6.5,1.9.6.2,1.9.6,3,.9,1.1.3,2.1.6,2.4.8s.8.3,1.3.4c1.4.2,3.9.9,6.6,1.7.7.2,1.7.5,2.2.6,1.1.3,1.7.6,1.7.9s-.2.4-.4.7c-.4.6-.5.8-.2,1.5.3.6.5.4.5-.4s0-.9.2-1.2c.2-.5.2-.5,1.6-.4,1.3.1,2.3.3,4.7,1.1.6.2,1.6.5,2.3.7.7.2,1.5.4,1.9.6s.8.3,1,.3.6.1.9.3c.3.2,1.4.5,2.3.7,1,.2,2,.6,2.2.7s.7.2,1,.2,1,.1,1.5.3c.4.2,1,.3,1.2.3s.6.2.8.4c.3.3.8.5,1.8.6.8,0,1.9.3,2.5.5,1.5.5,3.1.9,3.7,1.1.3,0,.7.2,1,.3s1.1.3,1.7.5c1.6.4,3.7,1.1,4.4,1.3.3.1.9.3,1.3.4.4,0,1.4.3,2.1.6,1.7.5,3.8,1.1,4.5,1.3.3,0,.8.2,1.1.4.7.2,2.1.6,3,.8.4,0,1,.2,1.4.4.4.1,1.3.4,2.2.6.8.2,1.9.5,2.3.7s.9.3,1,.3.5.1.8.3.9.3,1.3.4c.5,0,1.4.3,2.2.6,1.2.4,2.7.8,4.6,1.2.5,0,.9.2,1,.4.1.1.5.2,1,.3s1,.3,1.4.4c.3.1.8.3,1,.3s.9.2,1.5.5c.6.3,1.7.6,2.5.8,1.8.3,3.4.7,4,1,.3.1.7.2.9.2s.7.2,1,.5c.5.3,1,.5,1.6.5,1,0,2.3.3,4,1,.6.3,1.5.5,1.9.5s1.1.1,1.6.3c.5.1,1.5.5,2.3.7s1.8.6,2.3.8,1.5.5,2.4.6c.8.1,2.1.4,2.8.6,2.6.8,3.2,1,4.1,1.2.5.1,1.1.3,1.4.4.3.1.8.2,1.1.3.3,0,1,.3,1.4.5s1.3.5,1.8.6c1,.1,3.3.7,4.4,1.1.3.1.9.3,1.3.3.4,0,.9.2,1,.3.1,0,.6.2,1,.3s1,.2,1.3.3,1.2.4,1.9.6c1.2.4,1.9.6,4.5,1.2.6.2,1.6.5,2.4.7.7.2,1.4.4,1.6.4s.6.2,1,.4c.4.2,1.5.5,2.3.7,2.1.4,6,1.5,9.1,2.6.6.2,1.6.5,2.3.6.6,0,1.7.4,2.4.7s1.6.5,2.1.6c1.5.2,4.1,1.2,4.4,1.7,0,.1.6.2,1.3.1.8,0,1.6,0,2.3.3.6.2,1.8.6,2.5.8.8.2,1.5.5,1.7.6.1.1.8.2,1.4.3.6,0,1.2.2,1.3.3,0,.1.4.2.6.2s1,.2,1.7.4c.7.2,1.9.6,2.6.8.7.2,1.7.6,2.2.8s1.2.4,1.6.5c1.3.1,2.2.4,5,1.3.8.3,3.2.9,5,1.4.5.1,1.2.3,1.5.5.3.1.7.2.8.2s.6.2.9.4c.4.4.7.4,1.3.4.7-.1,2.5.4,3,.8.2.1.7.3,1.2.3s1.3.1,1.7.3c.4.1,1.3.4,2,.6,2.5.7,3.9,1.1,4.7,1.4.5.2,1.5.4,2.2.6.7.1,1.5.3,1.8.5s1.2.4,2.2.6c1.9.5,3.5.9,5,1.3.5.1,1.4.4,2,.5.5.1,1.6.4,2.4.7,2,.6,3.1.9,4.5,1.3.6.2,1.4.4,1.8.5s1,.3,1.3.4c.4,0,1.6.4,2.7.7,2.4.7,3.5,1,4.9,1.4,3.2.9,6,1.8,6.7,2.1.3.1.8.3,1.2.3s1,0,1.3.2c.3.1,1.7.5,3.1.9,1.4.4,3,.8,3.5,1s1.4.4,2,.5,2.2.6,3.5,1c2.5.7,3.2.9,5.5,1.5,1.8.5,3.9,1.1,4.7,1.3.5.1,1.4.4,2.1.6,2.8.8,4.8,1.3,6.6,1.8.8.2,2,.6,2.8.8.8.2,1.8.5,2.4.7.6.1,1.3.4,1.6.5.3.1.7.2.8.2s.9-.7,1.8-1.5c1.8-1.7,2.6-2.3,5-3.6l1.8-1-.9-.5c-.5-.3-1.5-1-2.2-1.5-2.3-1.9-4.6-5.6-3.8-6.1.3-.2.2-.5,0-.5-.8,0-1.4-1.8-2.2-6.7-.3-2-.4-2.5-.2-2.7.4-.4,1.1-.4,1.8.2.7.6,1.9.7,1.9.2s-.1-.3-.5-.2c-1.3.3-2-1.4-.9-2.3.3-.2.5-.5.4-.6s-.4.2-.8.5c-.8.8-1.5,1-2,.6-.5-.5-.6-1-2.3-12.8-1-7.2-1-7.3-.8-7.6.2-.2.1-.4-.2-.8-.3-.4-.4-.9-.5-2,0-.8-.2-1.6-.3-1.8-.1-.2-.2-.7-.2-1.1s0-1.3-.2-2c-.1-.8-.1-1.4,0-1.5s0-.4-.2-.9-.6-2.6-1-6.1c-.7-5.2-.7-5.4-.4-5.8.2-.2.5-.4.7-.4.7,0,.5-.4-.2-.6-.6-.2-.8-.3-1-.8-.5-1.2-2.6-11.1-2.6-12.3s.2-1.6,1-1.6.6-.1.7-.3c1-1.2,4.4,1.2,5.2,3.5.2.8.4.9.7.8.2,0,.7,0,1,.3.7.4,2.6,2.4,2.6,2.7s.4.4.9.7c.9.6,3,2.7,3.4,3.3,0,.2.5.5.9.8.4.3,1,.7,1.3,1,.3.3.8.6,1,.7.3.2.4.2.5-.1,0-.2.1-2.2.2-4.4,0-2.2.2-5.4.3-7.1s.2-3.8.2-4.8c0-2.2.2-3.1.9-3.4.3-.1.4-.3.4-.5-.2-.5.1-.8.9-.9.6-.1.7,0,1.1.5.2.3.5.8.5,1.2,0,.5.2.6.5.5.3,0,.5,0,.7.2.6.6,4.8,8.1,5.2,9.3.2.5.5,1.1.7,1.3.5.5,1.7,2.5,4.8,8.2,3.6,6.6,4.1,7.4,4.7,7.4s1.5-3,3.1-6.7c1.6-3.7,4-9.2,5.3-12.3l2.5-5.6.2-2.5c.2-1.7.3-2.6.5-2.8.3-.3.3-.4,0-.8-.3-.4-.4-.7-.3-2.1,0-.9,0-4.6-.1-8.2,0-3.6-.2-7.7-.2-9.1,0-2.4,0-2.5.4-2.5s.4,0,0-.4c-.5-.5-.7-3.4-.5-12.8,0-4.6.2-10.4.2-13v-4.7s-1.4,0-1.4,0c-2.5,0-2.8.3-3.3,2.9-.3,1.3-.5,1.7-1.2,1.8-.3,0-.7.1-.9.2-.5.2-6.2,0-6.8-.3-.4-.2-.5-.3-.4-.7,0-.4,0-.5-.2-.5s-.4.1-.6.2c-.2.2-.3.2-.5,0-.2-.2-.3-.7-.3-2.8s.2-3.4,1-3.7c.3,0,1.6-.2,2.9-.2,2.2,0,2.4,0,3,.4.3.2.7.4.8.3,0,0,0-.6,0-1.1-.1-.6-.3-1.2-.3-1.5s-.1-.6-.2-.7c-.1,0-1-.2-2-.3-2.3-.2-2.6-.2-3.5,0-.6,0-.8,0-1.1-.3-.3-.4-.4-.7-.4-3.9v-3.5h5.3c5.3-.1,6,0,6,.6s-.2.6-.5.8c-.3.3-.5.6-.4.6s.2,0,.3-.2c.2-.2,1-.2,1.1,0,0,0,.2.9.3,1.9.1,1.1.3,1.8.5,1.9.2.1.8.3,1.5.3.9,0,1.3,0,1.8-.2.3-.2.8-.3,1.1-.2.8.2.5-.2-.3-.6-.7-.3-.8-.3-.8-1.2s0-1,.3-1.1c.3-.2.3-.2,0-.4-.2-.2-.3-.7-.3-2.1,0-3.1.3-3.4,4-3.5,1.6,0,2.2,0,2.9.3.8.3,1,.5,1.2,1.1.3,1,.8,31.9.4,32.7-.2.3-.2.6,0,.9.2.3.2,2.6,0,8.9,0,4.7-.1,14-.1,20.8v12.3s1.1,2.3,1.1,2.3c.6,1.3,2.5,5.5,4.2,9.4,4.2,9.6,5.5,12.5,5.7,12.4,0,0,.9-1.4,1.8-2.9.9-1.5,1.9-3.1,2.3-3.4.4-.4.6-.8.6-1.1,0-1,8.3-16.1,9.5-17.1.2-.2.4-.6.4-.8,0-.6,1.4-2.8,2-3.2.5-.3,1.5-.4,1.9,0,.2.1.3.6.4,1.2,0,.8.2,1.2.7,1.9l.6.9v3.4c0,3,0,3.4-.3,3.6-.4.3-.4.7,0,.7.6,0,.8,1.3.6,5.6,0,1,.3,4.1.4,4.1s2.1-1.8,6.5-6c4.8-4.5,6-5.6,6.3-5.6s.8-.6.8-1,.5-1.1.9-1.1.5-.2.8-.5c.9-.7,1.2-.6,3.3.5.4.2.4,2.6,0,4.2-.5,2-1,5.7-4.1,27.8-.6,4.5-1.3,9.3-1.4,10.6s-.5,3.1-.7,3.9c-.2.8-.4,2-.4,2.6,0,1.3-.4,3.8-.8,4.4-.2.3-.4.4-.9.4-.8,0-.8.3,0,.5.5.1.6.3.7.8,0,.7-.8,5.9-1.3,8.1-.2.8-.4,1.9-.5,2.3,0,.4-.3,1.4-.5,2.1-.9,3-2.3,5.3-4.3,7.2-.6.6-1.2,1.2-1.2,1.3s.6.6,1.2,1.1c1.4,1.1,1.7,1.5,1.5,2.1-.1.5.2.8.6.5.4-.3,1.1.2,1.7,1.4.6,1.1,1.3,2,3.6,4.4,3.3,3.6,8.3,10,8.5,10.8,0,.3.4.8.8,1.3,1,1.2,2.9,4.4,5.2,9.1,3.3,6.7,5.2,11.5,6.8,17.6,1.7,6.6,2.2,9,2.3,10.3,0,.7,0,1.4,0,1.5,0,.2.2.5.5.8.3.3.5.7.5.9s.2.9.4,1.5c.5,1.5,1.5,5.4,1.5,5.9s0,.5.2.6c.4.4,1.6,5.6,1.6,6.8,0,.8.1,1.4.3,1.7.7,1.1,2.5,8.7,3.6,15.3.9,5.2,1.4,9.6,1.6,13.1,0,1.6.3,4.1.4,5.5s.3,5.5.5,9,.4,7.9.5,9.7c.1,2.2.1,3.4,0,3.5-.1.1-.1.3,0,.5.2.4,0,.9-.8,1-.3,0-.6.2-.6.3s.2.2.7,0c.6-.1.7,0,.8.3.2.4,1.2,9.7,1.2,10.7,0,.3-.1.6-.3.8-.2.2-.2.3.2.7l.5.4v8.7c-.1,7.7-.2,8.8-.4,9.2-.2.3-.3.6-.2.9.3.8-.4,3.9-2,9.7-1.2,4.2-2.7,8.9-3.4,10.2-.2.5-.6,1.5-.8,2.2-.2.7-.5,1.6-.8,1.9-.5.5-.5.6-2.2.6s-2,.1-1.3.8c.3.2.6.3,1,.3.7-.1,1.4.5,1.4,1.1s-3.8,10.1-4.3,10.6c-.2.2-.4.6-.4.7.2.6-4.1,8.4-6.1,11.1-.6.8-.8.9-1.4,1h-.8c0,0,.5.4.5.4.4.3.4.4.3.8-.3.7-4,5.7-4.9,6.6-.4.5-.9,1-.9,1.2-.2.6-1.6,2.6-2.2,3.1-.3.3-.6.6-.6.7,0,.6-11.8,15.1-13.1,16-.2.2-.7.3-1.1.3s-.7,0-.7.2.1.2.3.2.3.1.4.3c.1.3-.2.8-1.4,2.1-.7.7-.8.8-1.5.7-1-.1-1.2,0-1,1.2v.9c.1,0-4,4.5-4,4.5-2.2,2.5-4.6,5-5.2,5.5-.6.6-1.2,1.2-1.3,1.4-.1.2-.4.4-.6.5-.2,0-.6.5-.8.9-.5,1-4.7,5.5-5.5,5.9-.3.2-.8.3-1.2.2-.5,0-.5,0-.3,0,.2.1.3.3.3.5,0,.4-2,2.5-2.5,2.7-.2,0-.6.5-1,1-.4.5-.9,1-1.1,1.1-.3,0-.5.3-.6.5-.4,1.2-17.5,15.6-21.3,17.9-.3.2-3,2.8-6,5.7-5.9,5.8-8.3,8.1-10.4,9.8-.7.6-2,1.8-2.9,2.6-2.3,2.1-4.3,3.8-5,4-.3.1-.8.5-1,.8-.6.9-4.2,3.9-4.8,4-.3,0-.6.3-.6.5-.1.4-2.1,2.1-3.2,2.8-.4.2-1.2.8-1.7,1.3-1.2,1.2-3.7,2.8-4.3,2.8s-.5.1-.5.4c0,.4-.7,1-1.3,1s-.6.3-1,.8c-.3.4-1.6,1.6-2.7,2.5-2.5,2.1-4.4,4.1-5.9,6.1-.6.8-1.2,1.5-1.4,1.6-.2,0-.3.3-.4.5,0,.5-4.8,9-5.6,10-.3.4-.8.8-1,.8-.4,0-.5.2-.3.3.1.1.2.4.2.6,0,.4-3.6,6.3-4.6,7.6-.3.4-.7,1-.9,1.2-.1.3-.5.7-.7,1-.2.3-.8,1.1-1.2,1.8s-1,1.3-1.2,1.4c-.2.1-.4.3-.4.5,0,.6-2.9,4-3.4,4s-.2.2-.3.5c0,.3-.7,1.2-1.4,2.1-2.9,3.7-3.7,7-2.4,9.6,1.3,2.5,9.6,11.6,23.5,25.6,5.7,5.8,7.2,7.1,12.3,11.3,1.6,1.3,3.3,2.8,4,3.4s1.4,1.2,1.7,1.3c.3.2,1.4,1,2.5,1.9,7.7,6.3,9.3,7.3,12.2,7.8.7.1,1.5.3,1.8.5.5.2.7.2,1.4,0,.5-.1,2.1-.5,3.6-.9,3.6-.8,5.6-.7,8.3.2,2.5.8,3,.8,6-.4,3.1-1.2,4-1.5,5.9-1.5,2.4,0,4.7.8,7.2,2.4,1.7,1.1,5,4.3,5.5,5.4.2.5.7,1.3,1,1.8,1,1.7,1,5.5,0,6.5-.2.2-.7.5-1,.6-.9.2-3-.5-4.2-1.3-.5-.4-1.2-.7-1.5-.7s-.7-.2-1-.7c-.4-.6-.5-.6-.8-.5-.2.2-.6.2-1.4,0s-1.5-.2-2.8,0c-2.4.3-4,.8-5.9,1.9-2.6,1.5-3.3,1.7-5.2,1.7-.9,0-2.5-.2-3.5-.4-1.1-.2-2.9-.5-4.3-.5-2.1,0-2.5,0-3.3.3-.7.3-1,.6-1.5,1.4-.5,1-1.2,1.5-1.8,1.5s-.4.2-.5.5c-.2.4-.4.5-1.1.6-.7,0-.9,0-1.2-.4-.2-.2-.3-.6-.3-.8,0-.7-.2-.9-.9-.7-.7.2-1.4,0-1.9-1-.5-.7-2.7-2.5-4.4-3.3-1.7-.9-2.7-1-7.2-.7-5.6.3-7.2,0-12.7-2.8-5-2.5-7.2-3.3-11.9-4-2.8-.4-8.5-.6-11.2-.3-2.6.3-4.2.7-8,1.9-4.2,1.4-5.5,1.5-10.3.9-1.3-.2-1.8-.3-2.1-.7-.4-.4-.5-.4-1-.2-.3.2-.7.3-.9.3s-1,.2-1.7.5c-2.1.8-2.8.6-3.3-1.2-.5-1.8.4-5,1.6-5.6.4-.2.5-.4.5-.8,0-.7,1.2-2.1,1.7-2.1s.4,0,.4.1c0,.2.9,1.2,1.1,1.2.3,0,.2-.7-.3-1.3-.3-.3-.4-.7-.4-.9.2-.4,1.5-1.3,3.2-2.2,2.4-1.2,3.5-1.5,5.7-1.4,1.8,0,3.5.3,10.9,2,3.6.8,7.6.7,10.8-.3.9-.3,2.3-.6,3.2-.7l1.6-.2.8.9c.5.5.9.9,1.2.9.5,0,.3-.3-.4-.6-.2-.1-.5-.4-.6-.6-.3-.4,0-.6,1-.8.8-.1,1.8-.8,2.2-1.5.3-.5.3-.6-.4-1.8-.4-.7-.7-1.4-.7-1.5,0-.2-.9-1.6-3-4.4-2.2-3-9.1-11.1-15.8-18.6-4.9-5.5-7.5-8.4-8.4-9.7-.5-.6-1.5-1.8-2.3-2.7-1.7-1.7-5.3-6-5.4-6.3,0-.1-.2-.2-.4-.2s-.5-.2-.8-.4c-.3-.2-1.2-.7-2.1-1.2-3.7-1.8-5.9-3.8-9.9-8.6-3.1-3.7-4-5.3-5.2-9.3-1.3-4.1-2.1-5.5-4.5-7.5-1.3-1.1-3.4-2.2-4.1-2.2s-1.2.5-3.3,3.6c-2,3-2.8,3.9-3.3,3.7-.5-.2-1.2.8-1,1.3.2.6-1.2,2.5-2.9,4.1-.8.8-1.6,1.6-1.8,1.9-.5.8-4.4,4.9-7.3,7.6-3.9,3.7-5.9,5.4-8.7,7.5-3.1,2.4-5.1,4.3-5.8,5.7-.3.7-.4,1-.3,2.2.3,3.3,2.8,10.7,6.5,19.5,1.3,3.1,1.7,4.1,1.7,4.8,0,.3.3.9.6,1.3.7.8,1.8,3,1.8,3.6s.2.6.4.8c.2.2,1,1.5,1.6,2.7,3.2,6.1,9.7,16.5,12.8,20.5.8,1,1.6,2.1,1.8,2.4.2.3.4.5.6.5.1,0,.9.6,1.8,1.4,4,3.6,8.8,6,14.7,7.2,3.7.8,9.8,1.3,17.9,1.4,5,0,7.4.2,7.7.4.3.2.5.2,1.1-.2,1.3-.7,2.5-.8,7.7-.9,5.1,0,5.2,0,6.8.4,2.2.7,3.6,1.4,5.2,2.9,3.9,3.6,4.9,7.3,2.3,8-.4.1-2.2.2-4,.2s-3.8,0-4.4.2c-1.5.2-4.8,1.2-7.4,2.1-1.2.4-2.4.8-2.6.8s-.5.1-.5.3c0,.2-.8.7-1.7,1.3-.8.6-2.2,1.5-2.9,2.2-1.3,1.1-1.4,1.2-2.4,1.2s-1,0-2-1.1h.1Z"/>
  <polygon class="st2" points="501.2 819.7 499 819.7 495.7 859.1 464.6 833.2 463.1 834.9 489 865.7 449.4 869.1 449.4 871.2 489.2 874.6 463 905.5 464.7 907.2 495.6 881.1 499.1 920.6 501.2 920.6 504.5 881.1 535.4 907.1 537 905.5 511.1 874.6 550.7 871.2 550.7 869 510.9 865.7 537 835 535.4 833.3 504.5 859.1 501.2 819.7"/>
  <path class="st2" d="M150.6,104.5c0-.9,0-1.3,0-2,.1-2.5.5-5,1.1-7.5,1.6-6.6,4.8-12.3,9.8-16.9,3.6-3.2,7.7-5.5,12.4-6.9,3-.9,6.1-1.5,9.2-1.8s6.2-.3,9.4-.2c4.9.3,9.7,1,14.4,2.2,1.1.3,2.2.6,3.3.9.6.2.6.2.6.8v18.6c0,.2,0,.5,0,.7-.3,0-.4-.3-.6-.5-4-5.1-8-10.3-12.1-15.4-.3-.4-.7-.7-1.2-.9-1.9-.7-3.8-1.2-5.8-1.4-4-.5-7.8,0-11.4,1.7-2.8,1.4-5,3.4-6.8,5.9-1.8,2.5-3.1,5.2-4,8.2-.7,2.4-1.2,4.8-1.5,7.3-.5,4.2-.6,8.3-.4,12.5.2,3.6.6,7.2,1.5,10.8.7,2.9,1.7,5.7,3.2,8.2,1.4,2.5,3.2,4.6,5.5,6.3,2.4,1.8,5,2.8,7.9,3.3,3.6.6,7.2.3,10.8-.7.6-.2,1.2-.4,1.9-.6.4-.5.9-1,1.2-1.5,3.8-4.7,7.6-9.5,11.4-14.2.1-.2.2-.3.4-.5,0,0,0,0,.1,0,0,0,0,0,0,0v19.1c0,.9,0,.8-.8,1-2.5.5-5,1-7.5,1.3-1.9.2-3.7.5-5.6.7-3.2.3-6.5.5-9.8.4-3.9,0-7.7-.6-11.5-1.6-4.2-1.1-8.1-2.7-11.6-5.2-4.4-3.1-7.6-7.1-9.8-11.9-1.4-3-2.4-6.2-2.9-9.4-.3-1.8-.5-3.6-.6-5.4,0-.7,0-1.3-.1-2.3,0-1.2,0-2.1,0-3.2"/>
  <path class="st2" d="M810.3,69c.3,0,.8,0,1.4,0,0,0,.1,0,.3,0,5,.2,9.8,1.3,14.4,3.4,7.1,3.2,12.3,8.4,15.7,15.3,1.7,3.5,2.8,7.2,3.4,11,.6,3.8.7,7.7.4,11.5-.3,3.9-1,7.8-2.5,11.4-1.5,3.8-3.4,7.2-6.1,10.2-3.8,4.3-8.4,7.3-13.8,9.2-2.8,1-5.6,1.6-8.6,1.9-1.5.2-2.9.3-2.9.3-.6,0-1.5,0-2.6,0s-1.2,0-2.4,0c-.3,0-3-.2-5.3-.6-4.6-.8-9-2.3-13-4.8-5.3-3.3-9.3-7.9-12-13.5-1.6-3.4-2.7-6.9-3.3-10.6-.6-3.8-.7-7.5-.5-11.3.2-3.4.8-6.7,1.8-9.9,1.4-4.2,3.4-8.1,6.2-11.6,3.8-4.6,8.6-7.8,14.3-9.8,2.7-.9,5.5-1.6,8.3-2,1.8-.2,3.8-.3,3.8-.3.4,0,1.1,0,1.8,0h1.2M788.7,106.2c0,3.5.3,7.1.8,10.5.5,3.1,1.3,6,2.5,8.9,1,2.4,2.3,4.6,4.1,6.6,2.3,2.6,5.2,4.4,8.6,5.3,2.7.7,5.4.7,8.2.2,3-.5,5.6-1.7,7.9-3.7,2-1.7,3.5-3.8,4.8-6.2,1.2-2.3,2.1-4.8,2.7-7.3.8-3.3,1.3-6.7,1.4-10.2.2-4.6.2-9.1-.5-13.7-.5-3-1.2-5.9-2.3-8.8-1-2.5-2.2-4.9-4-7-2.5-3-5.7-5.1-9.5-6-1.9-.4-3.8-.6-5.8-.4-2.8.2-5.4,1-7.8,2.5-2,1.2-3.6,2.9-4.9,4.7-1.6,2.2-2.7,4.5-3.6,7-1.3,3.7-1.9,7.5-2.2,11.4-.2,2-.2,4-.3,6h0Z"/>
  <path class="st2" d="M499.8,965.4c-1.7,0-3.1.7-4-1-1.4-2.6-.7-5.9,1.7-7.5,205.7-136.5,325.7-335.5,366.8-608.5,3.6-23.7,5.4-48.1,5.4-72.3V38.3h-369.7c-2.7,0-5-2.4-5-5.4s2.2-5.4,5-5.4h379.6v248.7c0,24.8-1.9,49.7-5.5,74.1-10.6,70.4-26.9,137-48.3,198.2-21.1,60-47.7,116.4-79.3,167.6-30.9,50.2-67.4,96.8-108.4,138.7-38.9,39.7-83,76.2-131.1,108.5-1.5,1-3.4,1.8-4.8,2.7-.8.5-1.5-.6-2.4-.6"/>
  <path class="st2" d="M500.1,967c-.9,0-1.8-.2-2.6-.8-49.8-33.1-95.4-70.6-135.5-111.5-41-41.9-77.5-88.5-108.4-138.7-31.6-51.2-58.2-107.6-79.3-167.6-21.5-61.2-37.7-127.9-48.3-198.2-3.7-24.3-5.5-49.2-5.5-74V27.4h379.6c2.7,0,5,2.4,5,5.4s-2.2,5.4-5,5.4H130.4v237.9c0,24.2,1.8,48.5,5.4,72.3,41.1,273,161.1,472,366.8,608.5,2.4,1.6,3.1,4.9,1.7,7.5-2.1.3-3.4,1.6-4.2,2.6"/>
  <path class="st2" d="M500.7,20.9c-.2,0-.5,0-.8,0H114.2v257.4c0,4.3.2,8.3.3,11.9,1,27.1,1.3,34.4,4.6,56.3,18,119.3,49.5,222.2,96.4,314.6,64,126.1,159.7,232.2,284.4,315.6,124.7-83.4,220.4-189.6,284.4-315.7,46.9-92.3,78.4-195.2,96.4-314.6,3.3-21.9,3.6-29.2,4.6-56.3.1-3.6.3-7.5.5-11.9V20.9h-385.2ZM499.9,991.9c-1.1,0-2.3-.3-3.3-1-62.8-41.6-118.7-89.1-166.4-141.1-49.9-54.5-92.2-115.7-125.8-181.9-47.6-93.8-79.6-198.1-97.9-319.1-3.4-22.7-3.7-30.9-4.8-58-.1-3.6-.3-7.6-.5-12V6.9h398.1c.2,0,.5,0,.8,0h398.6v271.8c.1,0,.1.1.1.1-.2,4.4-.3,8.4-.5,12-1,27.1-1.3,35.3-4.8,58-18.2,121-50.3,225.3-97.9,319.1-33.6,66.2-76,127.4-125.8,181.9-47.7,52-103.6,99.5-166.4,141.1-.6.4-1.3.7-2,.9-.5.1-1,.2-1.6.2h0Z"/>
  <polygon class="st1" points="500 993.2 508.5 987.4 505 984.6 491.9 987.8 500 993.2"/>
  <polygon class="st0" points="500 967.8 509.2 961.8 505.6 958.2 491.4 962.1 500 967.8"/>
</svg>