<?xml version="1.0" encoding="UTF-8"?>
<svg id="Layer_1" data-name="Layer 1" xmlns="http://www.w3.org/2000/svg" viewBox="0 0 4167.56 481.33">
  <path d="M2127.25.02c2.25-.05,5.26-.03,8.82.22,0,0,.82.09,1.65.13,32.28,1.45,63.33,8.31,92.78,21.64,45.69,20.69,79.22,53.99,101.45,98.85,11.18,22.57,18.32,46.35,21.98,71.24,3.62,24.67,4.4,49.43,2.47,74.25-1.96,25.33-6.79,50.08-16.1,73.82-9.48,24.19-22.2,46.47-39.37,66.07-24.34,27.8-54.25,47.31-89.05,59.45-17.93,6.26-36.32,10.53-55.2,12.6-9.59,1.05-18.99,1.91-18.99,1.91-3.71.25-9.41.61-16.9.59-2.9,0-7.91-.08-15.26-.58-1.76-.12-19.16-1.35-34.11-3.99-29.87-5.26-58.18-14.84-84.1-30.82-34.54-21.3-60.05-50.69-77.73-87.08-10.57-21.76-17.55-44.61-21.24-68.51-3.73-24.16-4.5-48.42-2.92-72.8,1.41-21.84,4.98-43.27,11.72-64.11,8.85-27.36,21.97-52.48,40.32-74.7,24.63-29.82,55.59-50.53,91.97-63.32,17.45-6.14,35.37-10.31,53.74-12.61,11.75-1.47,24.24-1.98,24.24-1.98,2.31,0,6.83-.2,11.96-.25,3.22-.03,5.92-.03,7.86-.02h.01ZM1988.08,239.77c.37,22.81,1.66,45.5,5.5,68.01,3.35,19.68,8.58,38.81,16.44,57.18,6.62,15.47,15.16,29.75,26.4,42.35,15.02,16.85,33.32,28.41,55.24,34.01,17.38,4.45,34.93,4.63,52.56,1.58,19.1-3.31,36.03-11.23,50.72-23.9,12.97-11.18,22.81-24.78,30.73-39.84,7.82-14.86,13.27-30.61,17.34-46.87,5.38-21.54,8.19-43.47,9.23-65.59,1.38-29.45.98-58.87-3.42-88.12-2.92-19.42-7.6-38.37-14.64-56.7-6.26-16.29-14.42-31.52-25.63-45.01-16.29-19.6-36.62-32.76-61.55-38.57-12.35-2.88-24.84-3.53-37.47-2.55-18.08,1.4-34.95,6.48-50.34,16.2-12.69,8.02-23.1,18.43-31.89,30.52-10.1,13.89-17.5,29.16-23.08,45.34-8.2,23.77-12.41,48.35-14.28,73.33-.96,12.85-1.25,25.75-1.84,38.62h-.02Z" fill="#da0008"/>
  <path d="M664.99,481.33c-8.52-.13-14.83-.55-21.4-.99-9.7-.65-19.33-1.57-25.2-2.24-19.19-2.19-37.94-6.34-55.9-13.63-33.53-13.61-57.87-36.9-73.29-69.6-7.1-15.05-11.93-30.82-15.29-47.07-3.75-18.1-6.09-36.4-6.87-54.87-.51-12.08-.92-24.18-.94-36.27-.09-61.76-.07-123.52.02-185.28,0-3.53-.88-6.31-3.11-9.1-12.41-15.55-24.64-31.24-36.92-46.89-.78-1-1.57-2-2.26-3.07-.45-.71-.04-1.18.72-1.22,1.27-.06,2.55-.06,3.82-.06h170.95c1.58,0,3.16.15,4.74.23.17,2.05-1.55,3.02-2.59,4.3-12.66,15.76-25.35,31.49-38.13,47.15-1.91,2.34-2.8,4.68-2.79,7.75.09,67.17.09,134.34.07,201.51,0,16.09.63,32.15,2.2,48.15,1.99,20.3,5.22,40.37,12.16,59.68,2.48,6.9,5.43,13.58,9.02,19.98,12.1,21.6,30.15,35.32,54.26,41.04,10.41,2.47,20.94,3.84,31.66,3.94,10.52.1,21-.19,31.4-1.99,8.49-1.47,16.78-3.66,24.71-7.05,13.83-5.9,24.88-15.23,33.52-27.48,7.88-11.18,13.14-23.58,17.08-36.59,3.7-12.2,6.08-24.69,7.78-37.32,2.79-20.7,3.86-41.5,3.86-62.37.01-67.17,0-134.34.08-201.51,0-3.08-.88-5.41-2.79-7.75-12.98-15.91-25.86-31.9-38.74-47.89-.84-1.05-2.24-1.87-1.98-3.57,1.26-.08,2.53-.23,3.79-.23,57.62-.01,115.24-.01,172.86-.01.16,0,.32-.02.48,0l3.18.39c-.48.95-.81,2.01-1.45,2.82-8.43,10.79-16.9,21.54-25.35,32.3-4.52,5.76-9,11.55-13.6,17.25-1.39,1.72-2.11,3.48-1.92,5.67.1,1.11.02,2.23.02,3.34,0,59.69-.03,119.38.02,179.07.02,19.27-.24,38.52-2.16,57.7-2.35,23.48-6.27,46.65-14.25,68.97-4.84,13.55-11.17,26.35-19.38,38.19-15.43,22.26-36.15,37.78-61.09,47.89-13.62,5.52-27.76,9.13-42.22,11.6,0,0-16.5,2.83-36.99,4.03-5.58.33-9.44.47-9.44.47-.77.03-3.91.14-7.56.27-.02,0-.33.01-.34.01-13.72.47-24.44.31-24.44.31v.04Z" fill="#da0008"/>
  <path d="M.25,227.32c0-5.87.31-8.48.57-12.84.94-16.08,3.09-32,6.97-47.63,10.37-41.82,30.39-78.11,62.47-107.27,22.74-20.68,49.17-34.92,78.47-43.96,19.06-5.88,38.52-9.7,58.37-11.7,19.85-2,39.71-2.17,59.61-1.03,30.9,1.78,61.36,6.42,91.44,13.64,7.11,1.71,14.15,3.7,21.2,5.64,3.55.98,3.53,1.06,3.58,4.91v1.43c0,38.84,0,77.69-.02,116.53,0,1.54-.23,3.08-.35,4.62-2.18-.02-2.63-2.06-3.62-3.31-25.55-32.55-51.07-65.13-76.51-97.77-2.04-2.62-4.33-4.35-7.51-5.43-12.08-4.12-24.36-7.36-37.03-8.95-25.2-3.16-49.54-.43-72.52,11.01-17.62,8.77-31.63,21.76-43.27,37.46-11.7,15.77-19.78,33.32-25.53,52.01-4.65,15.09-7.63,30.52-9.67,46.17-3.46,26.46-3.59,53.03-2.43,79.61,1.01,23.08,3.79,45.98,9.32,68.47,4.5,18.31,10.7,35.97,20.11,52.39,8.96,15.64,20.22,29.33,34.7,40.21,14.92,11.21,31.7,18.02,50.05,21.12,23.19,3.93,45.98,1.71,68.53-4.3,3.99-1.06,7.92-2.37,11.87-3.56,2.65-3.16,5.37-6.27,7.94-9.49,24.06-30.08,48.1-60.18,72.14-90.28.79-.99,1.58-2,2.42-2.96.16-.19.6-.27.85-.2.21.06.46.41.47.65.06,1.27.05,2.55.05,3.82v117.49c0,5.75.58,5.15-5.18,6.35-15.73,3.27-31.53,6.14-47.46,8.28-11.82,1.58-23.65,3.24-35.52,4.42-20.6,2.04-41.27,2.92-61.99,2.47-24.76-.54-49.14-3.75-73.15-9.85-26.61-6.76-51.45-17.42-73.96-33.31-27.71-19.58-48.13-45.13-62.52-75.7-9.01-19.13-14.99-39.17-18.46-60-1.91-11.47-3.21-23-3.91-34.61-.27-4.41-.53-8.42-.71-14.39-.24-7.67.35-13.49.19-20.15h0Z" fill="#da0008"/>
  <path d="M1464.15,11c67.17,0,134.35-.01,201.52.02,6.68,0,6.15-1.05,6.12,6.06-.18,42.82-.36,85.64-.57,128.45-.01,2.34-.24,4.68-.36,7.01-2.61-.88-3.57-3.4-5.06-5.31-25.39-32.47-50.73-64.99-76.07-97.5-.59-.75-1.17-1.51-1.76-2.26-3.3-4.15-2.28-3.71-7.46-3.73-6.37-.03-12.73,0-19.1,0h-43.46c-1.11,0-2.23-.03-3.34,0-2.7.09-2.81.22-2.91,3.12-.02.64,0,1.27,0,1.91,0,119.54.01,239.09-.07,358.63,0,3.1.98,5.43,2.78,7.79,12.81,16.85,25.55,33.75,38.31,50.64.77,1.02,1.54,2.03,2.26,3.08.63.92.38,1.51-.66,1.56-1.27.05-2.55.05-3.82.05h-31.04c-45.52,0-91.05,0-136.57-.04-1.63,0-3.43.71-4.94-.57.76-1.36,1.42-2.79,2.29-4.08,11.41-16.87,22.8-33.76,34.32-50.56,1.79-2.61,2.65-5.19,2.64-8.37-.06-119.22-.05-238.45-.06-357.67,0-5.79.55-5.51-5.33-5.51h-63.99c-.8,0-1.6.06-2.39,0-1.77-.16-2.97.61-4.03,1.99-3.49,4.55-7.06,9.02-10.6,13.53-23.6,30.04-47.2,60.07-70.8,90.11-.79,1-1.59,1.99-2.43,2.95-.16.19-.59.29-.83.22-.22-.07-.49-.41-.5-.65-.07-1.43-.09-2.86-.09-4.29,0-43.46-.01-86.91,0-130.37,0-7.02-.74-6.2,6.01-6.2,67.33-.02,134.66-.01,202-.01h-.01Z" fill="#da0008"/>
  <path d="M1120.38,470.53h-170.01c-1.59,0-3.18,0-4.77-.09-.82-.05-.99-.65-.57-1.32.76-1.21,1.53-2.42,2.34-3.6,11.34-16.73,22.64-33.48,34.07-50.15,1.8-2.62,2.56-5.25,2.55-8.42-.23-112.06-.4-224.13-.51-336.19,0-3.22-.91-5.71-2.9-8.21-12.38-15.57-24.63-31.25-36.91-46.9-.88-1.12-1.74-2.27-2.52-3.47-.12-.18.23-.98.42-1,1.26-.13,2.54-.16,3.81-.16h173.35c1.43,0,2.87-.02,4.3.05.37.02.79.32,1.06.61.11.12-.05.62-.22.84-.79.99-1.64,1.95-2.46,2.92-13.46,15.71-26.88,31.47-40.44,47.09-2.12,2.45-3.02,4.88-3.02,8.12.07,120.5.06,241,.06,361.5,0,6.25-.45,5.64,5.65,5.64,40.59.01,81.18,0,121.77,0,.64,0,1.28-.07,1.91.01,2.31.28,3.81-.78,5.21-2.56,6.87-8.77,13.84-17.46,20.78-26.18,20.01-25.17,40.02-50.33,60.03-75.5.69-.87,1.37-1.76,2.14-2.56.27-.28.79-.36,1.22-.42.08-.01.32.5.33.78.06,1.27.08,2.54.08,3.82v129.89c0,.96.02,1.91-.01,2.87-.09,2.35-.22,2.49-2.4,2.58-1.43.05-2.86.02-4.3.02h-170.04Z" fill="#da0008"/>
  <path d="M3840.94,11.01c31.2,0,62.41-.14,93.61.05,22.8.13,45.45,2.12,67.83,6.64,19.11,3.86,37.58,9.62,54.68,19.21,14.34,8.03,26.76,18.32,36.56,31.61,8.93,12.11,14.74,25.64,17.57,40.37,3.93,20.45,3.57,40.88-1.94,61.02-6.85,25.03-21.3,44.91-42.06,60.31-14.35,10.64-30.35,17.94-47.33,23.19-14.01,4.33-28.32,7.3-42.91,8.93-3.16.35-6.33.66-9.49,1.03-.33.04-.63.41-.94.63.35.29.65.73,1.05.83,8.61,2.27,17.23,4.5,25.84,6.73,11.23,2.91,22.44,5.94,33.72,8.67,3.18.77,5.24,2.26,6.99,5.02,27.13,42.72,54.35,85.38,81.6,128.02,1.7,2.66,3.69,5.19,5.86,7.48,14.53,15.4,29.15,30.71,43.72,46.08.85.89,1.51,1.97,2.26,2.95-1.08,1.37-2.59.69-3.88.69-39.64.04-79.28.04-118.92.04-.8,0-1.59-.03-2.39-.02-1.04.02-1.84-.39-2.37-1.29-.73-1.23-1.46-2.46-2.19-3.7-38.77-65.44-77.53-130.88-116.31-196.31-3.42-5.77-2-4.83-8.48-4.85-16.56-.05-33.11-.02-49.67-.02-1.11,0-2.23-.03-3.34.01-2.6.1-2.86.38-2.97,3.15-.04.95-.01,1.91-.01,2.87,0,45.37.03,90.74-.06,136.11,0,3.56.98,6.33,3.13,9.14,12.77,16.69,25.38,33.49,38.03,50.26.86,1.14,1.7,2.3,2.46,3.51.11.17-.27.94-.49.98-.93.14-1.9.14-2.85.14h-172.41c-.95,0-1.92,0-2.85-.15-.25-.04-.67-.77-.57-.93.73-1.23,1.53-2.42,2.36-3.58,11.98-16.87,23.94-33.76,36-50.56,1.85-2.58,2.71-5.16,2.71-8.35-.06-112.07-.06-224.15,0-336.22,0-3.22-.88-5.72-2.94-8.2-12.92-15.55-25.71-31.21-38.54-46.83-.81-.98-1.65-1.95-2.38-2.98-.23-.33-.38-.98-.2-1.27.17-.28.79-.39,1.22-.41,1.43-.05,2.86-.04,4.3-.04h117.01v.04h-.02ZM3857.03,137.34v86.92c0,1.59.02,3.18.07,4.77.04,1.14.69,1.7,1.82,1.73.64.02,1.27.04,1.91.04,18.94-.02,37.89.08,56.83-.12,13.13-.14,25.98-2.42,38.38-6.76,30.35-10.63,49.33-31.56,56.54-63,2.47-10.79,2.77-21.75,2.56-32.75-.15-7.99-1.12-15.88-3.02-23.63-4.28-17.51-13.23-31.9-28.35-42.16-9.86-6.7-20.67-11.17-32.17-14.09-13.98-3.55-28.25-4.52-42.61-4.57-15.44-.06-30.88-.02-46.33,0-5.89,0-5.65-.46-5.65,5.76v87.88h.02Z" fill="#da0008"/>
  <path d="M2510.29,11.02c31.68,0,63.36-.16,95.04.05,22.47.15,44.81,2.16,66.88,6.6,16.43,3.31,32.4,8.06,47.51,15.41,15.5,7.54,29.17,17.5,40.25,30.83,11.03,13.26,18.02,28.46,21.23,45.33,3.87,20.3,3.46,40.57-1.99,60.55-6.78,24.87-21.07,44.67-41.61,60.07-14.43,10.81-30.56,18.21-47.69,23.52-14.01,4.34-28.32,7.31-42.9,8.95-3.32.37-6.64.7-9.96,1.08-.2.02-.55.36-.52.5.05.27.26.65.49.72,1.52.47,3.05.88,4.59,1.28,18.62,4.83,37.23,9.7,55.88,14.41,3,.76,4.91,2.29,6.55,4.87,27.14,42.71,54.37,85.36,81.55,128.05,1.81,2.84,3.87,5.42,6.19,7.85,14.18,14.86,28.31,29.75,42.46,44.64.99,1.04,1.99,2.07,2.9,3.17.25.3.29.83.3,1.26,0,.1-.51.29-.78.3-1.11.05-2.23.05-3.34.05h-117.96c-5.42,0-4.29.58-7.02-4.03-38.94-65.7-77.85-131.42-116.79-197.12-3.53-5.96-1.98-4.98-8.87-5-17.03-.05-34.07-.01-51.1-.02-4.57,0-4.7-.25-4.7,4.76.01,46.16.02,92.33-.04,138.49,0,2.72.81,4.84,2.43,6.97,13.11,17.23,26.14,34.51,39.17,51.79.84,1.11,1.46,2.38,2.18,3.58-1.2,1.08-2.67.56-4,.56-56.99.03-113.98.03-170.97.01-1.41,0-2.82-.19-4.23-.29-.2-1.82,1.24-2.83,2.12-4.06,12.05-17.01,24.11-34.02,36.26-50.96,1.75-2.44,2.57-4.87,2.57-7.91-.06-112.23-.06-224.46,0-336.69,0-3.22-.89-5.7-2.96-8.18-13.02-15.67-25.91-31.45-38.84-47.2-.71-.86-1.46-1.69-2.1-2.6-.24-.34-.28-.86-.29-1.31,0-.09.54-.27.84-.28,1.43-.04,2.86-.05,4.3-.05h117v.05h-.03ZM2526.85,137.58v86.89c0,1.43.03,2.86.03,4.3s.68,2.04,2.05,2.03c.48,0,.95.02,1.43.02,19.25-.03,38.51.1,57.76-.15,12.79-.16,25.32-2.43,37.43-6.61,30.77-10.64,50.03-31.75,57-63.62,3.64-16.65,3.56-33.5.64-50.28-4.23-24.34-17.03-42.47-39.33-53.57-1.99-.99-4.01-1.94-6.05-2.82-13.01-5.57-26.68-8.37-40.72-9.31-22.25-1.49-44.54-.5-66.82-.73-3.24-.03-3.34.18-3.42,3.62-.03,1.11,0,2.23,0,3.34v86.89h0Z" fill="#da0008"/>
  <path d="M2962,10.99c25.47,0,50.94-.11,76.41.03,28.25.15,56.23,2.95,83.76,9.56,24.59,5.9,47.93,14.92,69.53,28.24,35.08,21.63,59.28,51.98,73.17,90.7,6.1,16.99,10.01,34.48,12.48,52.34,3.17,22.96,3.63,46.02,2.53,69.1-1.31,27.45-5.66,54.4-15.03,80.38-10.29,28.53-26.09,53.37-49.1,73.38-18.46,16.05-39.42,27.91-62.23,36.54-18.21,6.89-37.01,11.54-56.24,14.54-20.33,3.17-40.77,4.71-61.34,4.71h-172.41c-1.42,0-2.83-.18-4.25-.28-.24-1.83,1.2-2.85,2.05-4.11,11.7-17.06,23.41-34.12,35.23-51.11,1.72-2.47,2.46-4.93,2.46-7.94-.06-112.08-.07-224.15.03-336.23,0-3.45-1.03-5.99-3.15-8.59-12.91-15.77-25.69-31.63-38.49-47.48-.77-.96-1.34-2.08-2-3.13,1.13-1.23,2.62-.64,3.92-.64,34.23-.04,68.45-.03,102.68-.03v.02h0ZM2993.52,240.72v190.5c0,1.59,0,3.18.06,4.77.04,1.14.74,1.69,1.85,1.72,1.27.03,2.55.04,3.82.04,11.46,0,22.92.04,34.38,0,10.04-.04,20.02-.77,29.92-2.52,32.65-5.77,59.09-21.73,79.06-48.22,11.71-15.54,19.8-32.94,25.69-51.4,8.38-26.26,12.12-53.31,13.23-80.74.78-19.25.48-38.49-1.56-57.69-1.74-16.32-4.43-32.46-8.87-48.26-5.34-18.98-13.12-36.85-24.81-52.84-18.1-24.75-42.2-40.55-71.94-47.84-13.53-3.32-27.3-4.4-41.17-4.51-11.62-.09-23.23-.02-34.85-.02-.8,0-1.59-.02-2.39.03-1.94.11-2.27.39-2.37,2.2-.07,1.43-.04,2.86-.04,4.3v190.5-.02Z" fill="#da0008"/>
  <path d="M3494.04,470.5c-59.06,0-118.12,0-177.18-.03-1.8,0-3.72.59-5.4-.61.86-1.48,1.61-3.04,2.59-4.44,11.75-16.84,23.49-33.68,35.35-50.44,1.74-2.46,2.53-4.9,2.53-7.93-.06-112.23-.06-224.46.01-336.68,0-3.11-.97-5.41-2.88-7.74-12.79-15.66-25.47-31.4-38.18-47.11-.9-1.11-1.78-2.24-2.58-3.42-.11-.17.22-.76.48-1.01.18-.17.6-.11.92-.11,1.27-.01,2.55-.01,3.82-.01,117.32,0,234.64,0,351.97.02,7.85,0,6.72-1.11,6.73,6.87.04,43.3.03,86.6-.03,129.9,0,1.58.88,3.4-.68,4.8-1.06-1.14-2.2-2.21-3.16-3.43-26.47-33.65-52.91-67.33-79.38-100.98-4.15-5.27-2.71-4.42-9.05-4.42-42.5-.03-85.01-.02-127.51,0-6.34,0-5.91-.68-5.91,5.91v168.1c0,6.6-.46,6,5.82,6.01,23.72,0,47.44,0,71.16,0,.8,0,1.6-.05,2.39,0,1.71.12,3.11-.41,4.21-1.76.6-.74,1.3-1.4,1.96-2.09,17.41-18.37,34.83-36.74,52.24-55.11.77-.81,1.5-1.65,2.33-2.39.3-.27.83-.31,1.27-.36.06,0,.26.54.27.84.04,1.43.05,2.86.05,4.3v146.13c0,1.43-.04,2.86-.16,4.28-.02.18-.85.54-.97.43-1.08-.93-2.12-1.92-3.1-2.95-16.98-17.9-34.06-35.71-50.84-53.8-3.35-3.61-6.68-4.92-11.52-4.86-23.08.25-46.16.11-69.25.11-1.43,0-2.86.02-4.3.07-.95.03-1.43.61-1.48,1.51-.06,1.27-.07,2.55-.07,3.82v170.49c0,5.85-.28,5.37,5.5,5.37,44.89,0,89.78.02,134.67-.01,6.09,0,4.78.81,8.72-4.15,26.36-33.13,52.7-66.28,79.05-99.42.99-1.25,1.98-2.49,3.02-3.7.17-.2.57-.35.83-.31.2.03.49.38.51.6.06,1.11.06,2.23.06,3.34v132.76c-.07,3.55-.07,3.57-3.8,3.61-2.55.03-5.09,0-7.64,0h-173.39Z" fill="#da0008"/>
</svg>